<svg width="30" height="31" viewBox="0 0 30 31" fill="none" xmlns="http://www.w3.org/2000/svg">
<path d="M15.0407 14.0794C15.0941 13.9849 14.9414 14.4622 14.7643 15.0356C14.6855 14.993 14.4932 15.4062 14.3461 15.8518C14.2701 16.0782 14.1993 16.328 14.1367 16.5551C14.1052 16.6675 14.0761 16.7756 14.0458 16.8514C14.0117 16.9146 13.996 17.0092 13.9092 16.8029C13.7503 16.6409 13.6531 16.7058 13.5846 16.7241C13.5067 16.7458 13.4834 16.739 13.2208 16.5101C13.2178 16.5076 13.2147 16.505 13.2116 16.5024C13.2566 16.5252 13.1186 16.4085 13.3477 16.4091C13.5648 16.4008 14.1685 16.422 14.9801 16.4395C15.267 16.3836 15.5212 16.2789 15.6307 16.1671C15.6794 16.1133 15.7019 16.0524 15.5717 16.0325C15.5007 16.0258 15.3998 16.0224 15.1376 16.0942C14.9998 16.1348 14.8296 16.1861 14.506 16.3401C14.3345 16.4241 14.1303 16.5284 13.8176 16.7344C13.4898 16.9726 13.0724 17.1928 12.2448 18.177C11.78 18.7 11.9219 18.4986 12.027 18.1689C12.1629 17.8133 12.3624 17.2951 12.7407 16.4898C12.9783 16.0141 13.1625 15.5284 13.8821 14.4088C13.7332 14.6667 13.6236 14.9401 13.5903 15.0704C13.5544 15.2064 13.5753 15.215 13.6126 15.1425C13.6912 14.9923 13.8248 14.5765 13.9581 14.1361C14.0807 13.9444 14.2106 13.4998 14.2953 12.6767C14.3226 12.9945 14.4485 13.4605 14.5457 13.6189C14.646 13.7542 14.5959 13.6535 14.1829 12.3203C15.0991 14.6641 15.997 14.7924 16.0567 14.8739C16.1784 14.8977 15.9473 14.7032 15.4177 14.3477C14.8252 13.962 14.3197 13.5591 13.9474 13.2346C13.5996 12.931 13.3642 12.7 13.2241 12.5526C14.2479 13.2557 14.8022 13.3022 15.0617 13.3544C15.3266 13.3876 15.3623 13.3538 15.3264 13.3273C15.2397 13.2671 14.8667 13.2055 14.4435 13.1536C14.6928 13.1076 15.1163 12.9419 15.1281 12.8625C15.1418 12.7745 14.7425 12.947 13.5838 13.3314C14.2172 13.0592 14.583 12.7025 14.6851 12.5594C14.7958 12.4049 14.7295 12.4026 14.6275 12.473C14.4097 12.6221 14.044 13.0137 13.6781 13.428C13.659 13.3427 13.6539 13.1833 13.5963 13.1245C13.5407 13.0724 13.4472 13.1148 13.3589 13.5696C13.3289 13.7201 13.2996 13.9176 13.255 14.209C12.8741 15.8042 12.5835 17.6935 12.464 17.8849C12.2545 17.3216 11.8948 16.9428 11.6805 16.7942C11.4575 16.6373 11.3519 16.6377 11.3305 16.6674C11.2939 16.7401 11.5255 16.9202 11.8671 17.0851C12.1533 17.444 13.5842 17.5983 14.3123 17.5418C14.3876 17.558 14.4865 17.5131 14.2517 17.7238C13.9013 18.0656 13.9421 18.1982 13.9768 18.1961C14.0234 18.1966 14.1105 18.0935 14.1937 17.9555C14.3669 17.6655 14.5269 17.2764 14.7162 16.7314C15.0753 16.0035 15.2724 14.1559 15.2164 12.9946C15.3032 13.2115 15.5504 13.3799 15.5569 13.3249C15.5675 13.2859 15.4672 13.2003 15.1828 13.0161C14.9149 12.6218 13.8925 12.4418 12.996 12.6624C12.8462 12.6962 12.6976 12.7396 12.5633 12.7885L12.7262 12.6532C12.1284 13.0983 11.5863 13.6075 10.9358 14.1513L10.9488 14.1367C10.9196 14.16 10.893 14.1813 10.8688 14.2015C10.7912 14.2638 10.6706 14.2906 10.4959 14.32C10.323 14.3455 10.1216 14.3441 9.93283 14.2804C9.74506 14.2159 9.57811 14.0976 9.49427 13.9056C9.40617 13.7212 9.44962 13.4262 9.58503 13.2179C9.62339 13.1569 9.65943 13.1033 9.69142 13.0559C9.69857 13.0493 9.71654 13.0259 9.72396 13.0196C10.0413 12.4788 10.4814 11.7023 10.9714 11.007C11.0316 10.9557 11.1956 10.7966 11.2667 10.7617C11.4957 10.5782 11.7241 10.4243 11.9566 10.2856C13.2443 9.56736 14.8546 8.95665 16.9175 9.76844C16.9177 9.76827 16.918 9.76811 16.9182 9.76797C16.5545 10.5205 16.687 11.1829 16.9723 11.8083C17.0564 12.0026 17.1485 12.2377 17.2049 12.4619C17.2372 12.5834 17.2922 12.698 17.3774 12.7908C17.561 12.9909 17.8318 13.1239 18.089 13.2596C18.3575 13.4012 18.6111 13.5466 18.7193 13.7647C18.9022 14.1335 19.2783 14.4698 19.6631 14.8511C19.803 14.9899 19.944 15.1342 20.0763 15.2867C20.1777 16.0553 20.3157 16.6164 20.2092 17.8262C20.2017 18.2243 20.1706 18.8002 20.0725 19.4256C19.8326 19.9669 19.5768 20.5225 19.2494 21.1756C19.0175 21.6165 18.7906 22.1741 18.1864 22.8326C18.0158 23.0211 17.875 23.1695 17.7488 23.305C17.3781 23.5507 17.0996 23.6981 16.8329 23.8336C15.1977 24.619 13.8835 24.9617 12.1938 25.1047C11.511 24.9709 10.7965 24.7918 9.96237 24.4823C9.428 24.2512 8.78345 24.0097 7.90845 23.533C7.13903 23.0886 6.09632 22.3477 5.4412 20.8082C5.34943 20.5818 5.27362 20.3447 5.21711 20.1033C5.06811 19.1386 5.09699 18.2296 4.96431 17.6019C4.86393 17.1158 4.98174 16.646 5.1079 16.2025C5.27765 15.607 5.46266 15.06 5.18194 14.5298C5.00536 14.1996 4.78709 13.8883 4.58539 13.6032C4.56924 13.58 4.55321 13.5568 4.53733 13.5337C4.2204 13.3414 3.95043 12.875 3.97034 12.4128C4.00266 11.4847 3.97823 10.3696 4.13842 9.38364C4.24877 8.67653 4.43597 8.033 4.71939 7.52878C4.80985 7.34073 4.93852 7.18685 5.13003 7.08315C5.20215 7.04355 5.28952 7.0038 5.39098 6.95629C5.99707 6.67497 6.52979 6.43023 7.91724 4.77123C8.37263 4.27908 8.98581 3.63946 9.83549 3.12396C9.81345 3.08563 9.79705 3.0445 9.78707 3.00078C9.70206 2.67194 10.0501 2.09203 11.0372 1.87511C11.1827 1.84494 11.3655 1.88095 11.5337 1.91705C11.7472 1.96289 11.9352 2.00869 12.0115 1.90193C12.2331 1.58869 12.6716 1.20652 13.2213 0.844856C13.6074 0.588984 14.0431 0.34458 14.4577 0.116517C14.4651 0.106822 14.4725 0.0971107 14.4798 0.0873809C14.9903 0.0408688 15.5561 -0.015214 16.4246 0.00380564C17.33 0.146392 18.4169 -0.281562 21.4053 1.61251C21.804 1.8698 22.086 2.05187 22.2584 2.1391C22.442 2.23366 22.5027 2.22742 22.504 2.18967C22.625 2.2359 22.8417 2.33286 23.123 2.47257C23.2976 3.00193 23.5875 3.55178 24.0654 4.22637C24.4861 4.97355 25.625 5.58002 26.5842 8.473C26.5177 8.359 26.4844 8.36264 26.4952 8.46589C26.5158 8.7853 27.0686 10.2677 26.9535 11.9518C26.9383 12.2025 26.9161 12.4494 26.8879 12.6902C26.5916 14.0084 26.5535 15.6636 26.4725 16.8832C26.4728 16.9018 26.4733 16.9201 26.4739 16.9382C26.48 17.1335 26.4877 17.3351 26.4925 17.5625C26.4075 18.2968 26.8521 18.9579 25.473 21.8507C25.7066 21.5792 25.6833 21.7048 25.6623 21.9178C25.419 23.0687 25.0645 24.8583 23.4069 27.1201C22.6725 28.0079 22.2483 28.2658 21.9147 28.5161C20.9775 29.1468 20.5969 29.2618 20.2002 29.4365C19.8255 29.5877 19.5353 29.6834 19.2722 29.7651C18.7579 29.9229 18.3654 30.0154 18.0318 30.0947C16.8991 30.3629 15.6633 30.4818 14.4568 30.4686C13.8002 30.462 13.1573 30.4177 12.5522 30.3497C11.8058 30.2915 10.9774 30.2072 10.3363 30.1408C9.98935 30.1061 9.59828 30.0653 9.14131 29.9902C7.93603 29.7962 5.9408 29.278 3.89475 27.7434C3.86818 27.723 3.84171 27.7025 3.81534 27.6819C1.17139 25.4659 0.686595 23.9834 0.115684 22.2723C-0.080435 21.5889 0.0021832 20.8803 0.146478 20.1542C0.148942 20.1301 0.151579 20.1064 0.154361 20.0829C0.355229 18.8727 0.794828 18.3469 0.575867 17.4987C0.527855 17.3095 0.440331 17.1079 0.351756 16.898C0.188915 16.5107 0.0222328 16.0814 0.092447 15.6296C0.116957 15.4722 0.203713 15.3337 0.289903 15.1993C0.384794 15.0508 0.478902 14.9068 0.491894 14.7377C0.540334 14.1064 0.58081 13.4572 0.66184 12.8243C0.692244 12.5861 0.728475 12.3501 0.771484 12.1231C0.827299 11.8047 0.895658 11.5115 0.995876 11.3059C1.25245 10.7878 1.2845 10.0816 1.53453 9.05858C1.66073 8.55277 1.85318 7.96301 2.16802 7.35832C2.11616 7.41737 2.13779 7.36525 2.20004 7.2578C2.48913 6.91437 3.26547 4.41401 6.50421 2.71173C7.09341 2.34184 7.77136 1.83649 9.03593 1.24408C9.51612 1.02057 9.99074 0.910858 10.3983 0.877414C10.4254 0.933321 10.5667 1.01642 10.9038 1.05288C11.3087 1.10556 12.001 1.04535 13.2457 0.991889C13.9476 0.967958 14.6038 0.770699 15.241 0.641462C15.8254 0.522101 16.399 0.460664 16.9081 0.640882C17.0231 0.68188 17.1231 0.737029 17.2109 0.80173C17.3566 0.962414 17.4352 1.20012 17.5072 1.42892C17.6163 1.77335 17.7058 2.09477 18.0064 2.12512C18.1667 2.14166 18.3948 2.06038 18.6788 1.97445C18.7905 1.94029 18.9121 1.90617 19.0412 1.87675C19.0159 1.93014 18.9969 1.97914 18.9834 2.01654C18.8885 2.28118 19.1405 2.52798 19.3852 2.78559C19.4828 2.8881 19.5805 2.99209 19.6531 3.09553C19.8414 3.36309 20.2213 3.61594 20.6659 3.89996C20.5182 3.82737 20.5438 3.84739 20.6085 3.87368C20.7064 3.91583 20.8378 4.07352 21.0055 4.27276C21.1562 4.45089 21.345 4.66554 21.6134 4.8968C21.7667 5.02908 21.854 5.18341 21.919 5.30891C21.9676 5.40081 22.0071 5.4794 22.0585 5.52917C22.103 5.57229 22.1919 5.53701 22.2901 5.49635C22.3612 5.46747 22.4392 5.4371 22.5116 5.43375C22.683 5.42433 22.8406 5.50602 22.908 5.60718C22.9398 5.65437 22.9534 5.70638 22.966 5.75772C22.9797 5.81667 22.9926 5.87556 23.0347 5.92884C23.2254 6.17154 23.4965 6.30062 23.7722 6.44396C24.0731 6.59964 24.3813 6.77553 24.5483 7.10123C24.6004 7.20315 24.6303 7.33269 24.6544 7.45445C24.681 7.58368 24.7032 7.7065 24.7473 7.79003C24.8256 7.93687 24.9303 8.0445 25.057 8.1417C25.3729 8.47989 25.6177 8.69522 25.841 8.88963C26.0952 9.11077 26.3079 9.29952 26.4194 9.49015C26.6219 9.84024 26.9092 9.92705 27.1275 10.0004C27.2402 10.0386 27.3315 10.068 27.3741 10.1186C27.3868 10.174 27.3989 10.2322 27.4085 10.2861C27.4082 10.3391 27.4076 10.3937 27.4286 10.4375C27.4302 10.4408 27.4323 10.4439 27.4339 10.4472C27.4751 10.7511 27.479 11.0419 27.4759 11.3228C27.4683 11.9536 27.4259 12.5284 27.6573 13.0657C27.7068 13.1805 27.832 13.2822 27.9583 13.3849C28.1133 13.512 28.2709 13.6426 28.295 13.8043C28.3524 14.1898 28.2637 14.6033 28.1697 15.0046C28.1167 15.2315 28.0621 15.4545 28.0317 15.6694C27.9677 15.9419 27.9825 16.2166 28.1894 16.4585C28.2987 16.5863 28.4648 16.7058 28.6327 16.8307C28.7263 16.9008 28.8208 16.9724 28.9055 17.0492C28.7722 17.0521 28.6484 17.0624 28.5329 17.0722C28.2948 17.0923 28.091 17.1094 27.9066 17.0564C27.4705 16.9307 26.8801 16.8208 26.4791 16.9129C26.3703 16.9379 26.247 16.9538 26.1228 16.9694C25.8113 17.0087 25.4931 17.0482 25.3793 17.2423C25.3027 17.3733 25.1319 17.7077 25.4 17.8658C25.4585 17.9001 25.5649 17.9099 25.6833 17.9212C25.8959 17.9425 26.1481 17.966 26.2338 18.1559C26.2482 18.1879 26.262 18.2224 26.2754 18.2597C26.3291 18.4065 26.387 18.5777 26.5602 18.6252C26.76 18.6804 26.9758 18.6386 27.2273 18.5874C27.5549 18.5223 27.9436 18.4355 28.4393 18.5691C28.5373 18.5954 28.5777 18.667 28.608 18.7211C28.6293 18.7593 28.6462 18.7889 28.6747 18.7892C28.7075 18.7894 28.7737 18.7698 28.8573 18.7445C29.1521 18.6604 29.6687 18.4784 29.7338 18.9465C29.7509 19.0769 29.7369 19.232 29.7224 19.3821C29.7011 19.5988 29.6779 19.801 29.765 19.8261C29.798 19.8356 29.8337 19.8423 29.8707 19.8476C29.8642 20.0453 29.8534 20.2565 29.8349 20.4874C29.7175 20.7848 29.717 21.2109 29.5872 21.9695C29.5533 22.1588 29.5111 22.3609 29.4477 22.5991C29.2504 23.2427 28.9394 24.0525 28.3053 24.9435C28.2722 24.9854 28.2387 25.0274 28.2047 25.0695C28.0104 25.2678 27.7825 25.4519 27.5099 25.61C26.9637 25.9259 26.348 26.0411 25.7525 26.1147C25.502 26.1451 25.2532 26.1687 25.0121 26.1967C25.0581 26.1328 25.0963 26.0705 25.1163 26.0141C25.2526 25.6268 25.0809 25.2615 24.9187 24.9338C24.8103 24.7154 24.7051 24.512 24.6833 24.33C24.6429 23.9954 24.3993 23.8155 24.2259 23.6773C24.1352 23.6062 24.0616 23.5472 24.0372 23.4906C24.0181 23.4447 24.0349 23.3943 24.0511 23.3425C24.0653 23.2974 24.0793 23.2507 24.0705 23.2053C23.9561 22.6588 23.6816 22.5884 23.3132 22.4523C23.1088 22.3779 22.8719 22.2848 22.6036 22.0968C22.3238 21.8925 22.2576 21.8166 22.2423 21.6233C22.0434 21.5944 21.848 21.5578 21.6556 21.5149C21.6371 21.551 21.6953 21.6445 21.7931 21.7982C21.9693 22.0719 21.8631 22.343 21.7656 22.5495C21.7209 22.6454 21.6794 22.7284 21.673 22.7967C21.6364 23.1596 21.9068 23.3998 22.1663 23.5972C22.3074 23.7067 22.4407 23.8053 22.4946 23.921C22.5176 23.9704 22.5655 23.9991 22.6148 24.0279C22.653 24.0501 22.692 24.0724 22.7201 24.1054C22.9246 24.3441 22.9204 24.6511 22.8927 24.9427C22.8773 25.1098 22.8571 25.2708 22.8778 25.4095C22.8841 25.4518 22.8939 25.4925 22.9036 25.5318C22.9177 25.5893 22.9307 25.6444 22.9291 25.7002C22.9256 25.8271 22.8337 25.9725 22.7228 26.1298C22.6656 26.2107 22.6044 26.2944 22.5481 26.3818C22.4749 26.4949 22.4964 26.6245 22.5169 26.7614C22.5312 26.858 22.5447 26.9583 22.5215 27.0585C22.4801 27.2398 22.2766 27.3995 22.0749 27.5398C21.9868 27.6013 21.9007 27.6597 21.8293 27.7169C21.8003 27.7402 21.7922 27.7664 21.7995 27.795C21.4568 28.037 21.0987 28.2578 20.7229 28.4517C20.1331 28.7561 19.4977 28.9931 18.8225 29.1283C18.2109 29.4052 17.5205 29.568 16.5093 29.361C16.2303 29.3034 15.9233 29.3135 15.5981 29.3528C14.5611 29.1991 13.4302 29.0164 12.0596 28.5558C11.8494 28.2124 11.5744 27.8917 11.2222 27.5671C11.1122 27.4649 10.9952 27.365 10.8784 27.268C10.5615 26.896 10.1591 26.6522 9.68061 26.3363C9.25605 26.0535 8.76622 25.7184 8.24192 25.1346C7.51574 24.2394 6.41071 23.2612 5.99399 21.0843C5.98432 20.9535 5.97329 20.8161 5.96247 20.6752C5.84342 19.3574 5.97353 17.909 6.11199 16.9664C6.14952 16.695 6.25746 16.4275 6.39772 16.1742C6.52222 15.9692 6.67069 15.7635 6.81507 15.5659C7.23965 14.9804 7.63283 14.4671 7.2818 14.0272C7.16947 13.8862 6.95842 13.726 6.75547 13.565C6.61086 13.4506 6.47091 13.3354 6.37185 13.2287C6.45692 13.0246 6.54606 12.8173 6.64323 12.6052C6.90958 12.3842 7.21249 12.0775 7.39827 11.6366C7.45953 11.4943 7.48373 11.3329 7.45092 11.1493C7.56175 10.9835 7.67315 10.8163 7.78381 10.6541C8.02283 10.2982 8.25987 9.94801 8.53787 9.55806C8.6302 9.42938 8.72725 9.29634 8.8396 9.14972C8.84071 9.14836 8.84182 9.14701 8.84293 9.14566C8.96005 8.99414 9.09101 8.8288 9.26671 8.64204C9.43066 8.4694 9.5956 8.33165 9.75687 8.21415C9.90014 8.10981 10.0392 8.02293 10.1785 7.94404C10.5298 7.74658 10.872 7.60765 11.2027 7.49787C11.378 7.44006 11.5526 7.38932 11.7269 7.34481C12.0096 7.27274 12.2917 7.21584 12.5719 7.17196C13.0251 7.10164 13.4736 7.06207 13.9346 7.05981C14.0106 7.05962 14.0887 7.09363 14.1539 7.15583C14.2182 7.21833 14.2599 7.304 14.2746 7.39659C14.2891 7.48929 14.2766 7.58351 14.2418 7.66297C14.2061 7.74235 14.1544 7.79953 14.0929 7.82741C13.7188 7.99713 13.3655 8.19686 13.0289 8.41439C12.821 8.54911 12.6198 8.6924 12.4301 8.84111C12.3131 8.93283 12.2006 9.02644 12.0942 9.12247C11.8937 9.30312 11.706 9.49665 11.5592 9.69079C11.501 9.76755 11.4502 9.84366 11.4071 9.91897C11.359 10.0033 11.3217 10.086 11.2999 10.1602C11.277 10.2392 11.2486 10.3405 11.2207 10.452C11.2203 10.4533 11.22 10.4546 11.2196 10.4559C11.1927 10.5625 11.1665 10.6766 11.1405 10.7949C11.0601 11.1591 10.9841 11.5523 10.9046 11.9539C10.8648 12.1637 10.8219 12.3806 10.7791 12.5986C10.755 12.7209 10.7319 12.841 10.7087 12.9609C10.7067 12.9705 10.7048 12.9801 10.7028 12.9898C10.6986 13.0288 10.6937 13.071 10.6894 13.1134C10.5896 14.1691 10.6506 15.484 10.7013 16.8059C10.7121 16.9755 10.7262 17.1422 10.7437 17.3058C10.8495 18.3143 11.0814 19.1092 11.4604 19.8705C11.4709 19.6363 11.4306 19.4875 11.4763 19.4501C11.654 19.3836 12.7543 19.8196 13.8881 20.0368C13.9189 20.0212 13.9647 20.0104 14.0233 20.0009C14.7962 19.9444 16.606 19.6349 18.6174 19.297C18.4388 19.1692 18.2708 19.1371 18.3209 18.9639C18.3512 18.8056 18.5267 18.4661 18.5616 18.2044C17.6091 19.6663 17.8161 20.0172 17.7069 20.0788C17.6569 20.1335 17.5987 19.9324 17.5128 19.6783C17.3432 19.1483 17.0949 18.3705 16.8497 17.4473C16.6098 16.6687 16.3381 15.8894 16.0527 15.2159C15.9113 14.8832 15.7632 14.572 15.6368 14.3684C15.5751 14.2692 15.5171 14.1959 15.4938 14.2064C15.4838 14.229 15.4457 14.2837 15.7376 14.7552C15.5442 14.5975 15.4158 14.5883 15.4668 14.7161C15.4868 14.7756 15.5668 14.8678 15.595 14.9178C15.6046 14.9411 15.6011 14.9547 15.4954 14.9207C15.3776 14.8755 15.198 14.8324 14.5329 14.4746C14.6601 14.5891 14.5778 14.5794 14.4745 14.5832C14.3649 14.582 14.2074 14.5714 14.0299 14.566C14.0796 14.5846 14.1344 14.6028 14.1939 14.62C14.5854 14.7524 15.2555 14.7271 15.2926 14.7473C15.3503 14.7623 14.7732 15.0094 13.603 15.3225C13.5274 15.3535 13.51 15.3732 13.5117 15.3866C13.5226 15.4076 13.504 15.4334 13.3286 15.5305C13.1613 15.6241 12.8979 15.7659 12.6123 15.9203C13.5747 15.5132 14.411 14.7496 14.7702 14.2942C15.1442 13.8333 15.2124 13.6518 15.0672 13.9816C15.0088 14.1054 14.9165 14.3015 14.7388 14.6224C14.9265 14.3255 15.0111 14.1234 15.0407 14.0794Z" fill="black"/>
</svg>
