<svg width="66" height="78" viewBox="0 0 66 78" fill="none" xmlns="http://www.w3.org/2000/svg">
<path d="M16.0249 47.7434C16.0331 47.6198 16.119 48.2255 16.2162 48.7925C16.3159 49.3891 16.4325 50.0862 16.5794 50.7986C16.8723 52.2211 17.2984 53.7429 18.0843 54.9294C18.3887 55.3886 18.7315 55.8063 19.0586 56.1243C18.8118 55.7558 18.7793 55.711 18.9253 55.7262C19.0687 55.7477 19.3656 55.8427 19.7412 55.957C20.5005 56.1936 21.5567 56.5064 22.7695 56.9886C24.0252 57.4159 25.5035 57.9641 26.8417 58.6613C29.1356 59.8536 31.4979 61.0367 33.8884 62.2109C34.9979 62.7967 36.1267 63.2755 37.3213 63.6453C38.8565 64.1179 40.3782 64.3907 42.5506 64.5661C43.1059 64.8723 44.5717 64.6715 46.5755 63.8157C47.3021 63.5198 48.0906 63.1709 48.9388 62.8122C51.8206 61.7031 53.5051 60.9056 55.9846 59.1338C56.3214 58.9504 56.5894 58.7805 56.8842 58.4718C57.4395 57.9244 58.0747 56.5868 58.9691 55.3295C59.8028 54.2156 60.6138 53.1383 61.3054 52.0512C61.4913 51.7559 61.6709 51.4577 61.8437 51.155C62.3377 50.2914 62.7719 49.3865 63.1662 48.4317L63.1409 48.6136C63.2031 48.323 63.2708 48.0305 63.3486 47.7363C63.4787 47.2466 63.6355 46.7497 63.8544 46.2654L63.8484 46.288C64.0487 45.8645 64.1884 45.3716 64.3224 44.8626C64.3575 44.73 64.4622 44.6061 64.6192 44.5219C64.7765 44.4366 64.9725 44.3951 65.171 44.4094C65.3696 44.4242 65.5581 44.494 65.7 44.6053C65.8415 44.7153 65.9235 44.8605 65.9333 45.0055C65.9669 45.5544 65.9979 46.1462 65.9172 46.8071C65.9139 46.8158 65.9087 46.8433 65.9052 46.8519C65.8806 47.214 65.8929 47.6121 65.9259 48.0317C65.9446 48.2711 65.9702 48.5168 66.0001 48.7677C65.9899 48.8276 65.9788 49.0069 65.9588 49.0643C65.8954 49.9542 65.7923 50.8663 65.6323 51.781C64.7961 51.7082 64.132 51.7459 63.7174 52.0809C63.5057 52.2528 63.3304 52.5451 63.3767 52.8338C63.3803 52.8565 63.3849 52.8792 63.3902 52.9018C63.4456 53.138 63.5879 53.368 63.7221 53.5903C63.8759 53.8448 64.0187 54.0904 64.0042 54.318C63.9799 54.7035 64.1461 55.1608 64.3146 55.6454C64.3759 55.8215 64.4377 56.0014 64.491 56.1815C64.2991 56.7703 64.1028 57.3459 63.9105 57.9098C63.8069 58.2681 63.7203 58.6376 63.6237 59.059C63.4026 59.3617 63.1958 59.6918 63.0879 60.0352C62.9912 60.343 63.021 60.7056 63.0602 61.1165C62.9859 61.3269 62.9021 61.5447 62.8069 61.7675C62.4209 62.6851 61.8188 63.6498 61.1418 64.4398C60.8859 64.7687 60.6351 65.0883 60.3683 65.4168C59.5661 65.8668 58.7349 66.3458 57.6707 67.0819C57.2115 67.3979 56.6886 67.6427 56.1853 67.8557C55.4375 68.1742 54.7406 68.4179 54.2887 68.8235C53.9848 69.0957 53.5773 69.1984 53.1834 69.2948C53.0513 69.3275 52.9235 69.3579 52.7966 69.3962C52.4263 69.5037 52.0881 69.6733 51.9057 70.0595C51.7532 70.3822 51.6398 70.7316 51.5293 71.058C51.3541 71.5771 51.1843 72.0384 50.8882 72.2344C50.3325 72.6023 49.9215 73.1216 49.5129 73.5832C49.0251 74.1372 48.534 74.6098 47.9131 74.5904C47.8192 74.5874 47.7092 74.5769 47.5849 74.5634C46.9157 74.4893 45.9272 74.3616 44.5486 74.8613C44.0519 75.0372 43.5784 75.331 43.0774 75.5931C43.0265 75.6197 42.9753 75.646 42.9238 75.6717C42.5195 76.0056 42.0841 76.3039 41.5872 76.1752C41.5063 76.1545 41.4236 76.062 41.3456 75.9773C41.2466 75.8697 41.1607 75.7754 41.1121 75.8591C40.9679 76.1048 40.7339 76.3766 40.4675 76.6694C40.2732 76.8845 40.0611 77.1111 39.8595 77.3474C38.3517 77.4596 36.7462 77.4674 35.1415 77.3358C34.4055 77.2761 33.6675 77.1882 32.9333 77.0727C32.6444 76.6289 32.3573 76.216 32.0423 75.8714C31.6292 75.4202 31.022 75.1398 30.2658 74.7435C29.9674 74.5868 29.6465 74.4118 29.3052 74.1995C29.0582 74.0348 28.81 73.853 28.5402 73.6351C27.4789 72.7702 26.2022 72.3589 25.3174 72.2406C25.1282 72.2148 24.9434 72.194 24.7386 72.1695C23.9688 72.0778 23.007 71.9679 21.2544 71.5148C19.5936 71.0827 18.2418 70.5277 17.1923 70.0693C16.8231 69.9079 16.4916 69.7585 16.1896 69.6265C16.094 69.5882 16.0024 69.5539 15.9156 69.5248C15.4427 69.3652 14.8138 69.1327 14.0779 68.8362C12.9459 68.3878 11.4641 67.6882 10.3748 67.0268C9.99538 66.8019 9.56678 66.5359 9.06922 66.1533C8.70212 65.8695 8.29535 65.5216 7.85403 65.0498C7.23789 64.4983 6.58728 63.8492 5.91342 63.0003C4.95605 61.7857 4.57794 60.9461 4.28078 60.0252C4.16155 59.6504 4.27348 59.2041 4.39626 58.7493C4.57045 58.1026 4.76698 57.4454 4.34125 56.8936C4.242 56.7649 4.10109 56.6421 3.95399 56.5121C3.68458 56.2751 3.39235 56.0086 3.30309 55.6358C3.27239 55.5067 3.30429 55.3676 3.33549 55.2298C3.36997 55.0785 3.40505 54.9325 3.35641 54.8023C3.17392 54.3144 2.96609 53.8368 2.78735 53.3951C2.55638 52.8268 2.36893 52.2949 2.3415 51.9316C2.29298 51.2747 1.98931 50.608 1.73574 49.5984C1.72748 49.5649 1.71933 49.5311 1.71132 49.4971C1.71866 49.8717 1.65092 49.6742 1.59467 49.5697C1.53632 49.438 1.47979 49.2573 1.44932 49.074C1.25234 47.9345 0.728034 46.299 0.152765 44.6868C-0.0664473 44.0731 0.0666456 43.5172 0.248793 42.8218C0.362109 42.3858 0.496277 41.9032 0.580762 41.3109C0.628618 40.9737 0.437975 40.7134 0.262034 40.4611C0.253771 40.4493 0.245543 40.4375 0.237373 40.4258C0.0854354 40.2079 -0.0454702 40.0004 0.0151324 39.78C0.0716376 39.5746 0.354678 39.4349 0.62353 39.3011C0.922917 39.1549 1.2046 39.0168 1.13928 38.8145C1.10454 38.7073 0.953918 38.5787 0.775516 38.4292C0.704947 38.3697 0.630279 38.3058 0.556231 38.2378C0.6151 38.2392 0.667646 38.238 0.707391 38.2365C0.988263 38.2252 1.12815 38.0124 1.266 37.8034C1.32101 37.72 1.37546 37.638 1.43849 37.5696C1.67029 37.3174 1.69578 36.8592 1.67608 36.5101C1.66777 36.3626 1.75175 36.2265 1.85005 36.0688C1.93732 35.9286 2.03599 35.7709 2.09152 35.5719C2.12317 35.4584 2.20312 35.3703 2.26991 35.2976C2.31825 35.245 2.35959 35.2002 2.36998 35.1593C2.37892 35.1238 2.29789 35.0965 2.20665 35.0659C2.14098 35.0437 2.06983 35.0197 2.02316 34.9895C1.91167 34.9173 1.87702 34.8229 1.91156 34.7559C1.92753 34.725 1.95856 34.7004 1.98945 34.6758C2.02542 34.6472 2.06167 34.6188 2.07399 34.5802C2.13042 34.403 2.03657 34.2328 1.93935 34.0556C1.8325 33.8612 1.72177 33.6577 1.8016 33.4294C1.82675 33.3576 1.88502 33.2812 1.94162 33.2076C2.00084 33.1301 2.05804 33.0545 2.07312 32.9909C2.13423 32.733 1.93268 32.4911 1.7476 32.2665C1.62452 32.1188 1.50891 31.9768 1.48254 31.847C1.43439 31.6082 1.19355 31.4786 1.01571 31.3837C0.92357 31.3338 0.847904 31.2932 0.825141 31.2509C0.832019 31.2123 0.840173 31.1733 0.849043 31.1353C0.866951 31.1003 0.885441 31.0649 0.879779 31.0301C0.879348 31.0275 0.878317 31.0249 0.87787 31.0223C0.937483 30.8074 1.02188 30.5967 1.10637 30.3895C1.29619 29.9202 1.48558 29.4572 1.38991 28.9635C1.38809 28.9543 1.38568 28.945 1.38272 28.9358C1.3521 28.8363 1.26275 28.7389 1.17225 28.6369C1.05068 28.4987 0.926457 28.3588 0.938455 28.2181C0.967086 27.8821 1.13949 27.5401 1.31187 27.1973C1.57165 26.679 1.82842 26.1717 1.60852 25.5907C1.53629 25.3972 1.40962 25.1906 1.28859 24.959C1.22111 24.8306 1.15529 24.6928 1.10285 24.5475C1.22992 24.5933 1.35088 24.6241 1.46371 24.6526C1.69642 24.7109 1.89498 24.7624 2.05342 24.8984C2.42775 25.222 2.96965 25.5227 3.38125 25.5274C3.49299 25.5291 3.61621 25.5456 3.74026 25.5625C4.05174 25.6047 4.36863 25.6479 4.53092 25.463C4.63991 25.338 4.90046 25.0166 4.7047 24.7364C4.66161 24.6761 4.56538 24.6246 4.4585 24.5679C4.26705 24.4657 4.03981 24.3345 4.03807 24.076C4.03803 24.0707 4.03802 24.0653 4.03804 24.0599C4.03498 24.036 4.03291 24.0106 4.03144 23.9845C4.02483 23.8651 4.01733 23.7278 3.86465 23.645C3.68876 23.5497 3.4713 23.5177 3.21792 23.4798C2.88784 23.4307 2.49643 23.37 2.05285 23.1586C1.96513 23.1168 1.9424 23.0664 1.9252 23.0275C1.91308 23.0002 1.90321 22.979 1.87577 22.9716C1.84422 22.9631 1.77618 22.9576 1.69011 22.9505C1.38646 22.9248 0.856178 22.8816 0.88342 22.6284C0.890919 22.5591 0.931574 22.4821 0.967999 22.4137C1.02184 22.312 1.0674 22.2214 0.98468 22.1934C0.953333 22.1825 0.919037 22.1725 0.883356 22.1628C0.910661 22.0758 0.938926 21.9837 0.966971 21.893C1.09127 21.793 1.11548 21.6203 1.148 21.3952C1.1561 21.3396 1.16444 21.2841 1.1749 21.2239C1.23535 21.0293 1.29665 20.834 1.36063 20.6342C1.43692 20.483 1.54396 20.3228 1.69459 20.1644C1.99699 19.8448 2.43595 19.6088 2.86671 19.3856C3.04764 19.294 3.229 19.1986 3.39672 19.1054C3.40077 19.159 3.40881 19.21 3.42696 19.2523C3.55156 19.5409 3.8954 19.7193 4.21016 19.8892C4.41995 20.0008 4.61807 20.105 4.73371 20.2247C4.94612 20.4425 5.24179 20.4957 5.4606 20.5333C5.57407 20.553 5.66691 20.5697 5.71652 20.6035C5.75623 20.6307 5.76768 20.6749 5.77976 20.7202C5.79027 20.7596 5.8015 20.8002 5.83155 20.8311C6.19721 21.2068 6.46539 21.1757 6.85395 21.1366C7.06809 21.1161 7.31953 21.0926 7.64493 21.1303C7.98796 21.177 8.08344 21.211 8.18621 21.3792C8.37629 21.3102 8.56796 21.2364 8.75804 21.1716C8.75697 21.1277 8.66077 21.0718 8.49937 20.986C8.21134 20.8313 8.16216 20.5434 8.12771 20.3138C8.11114 20.2095 8.09743 20.117 8.06295 20.0574C7.87976 19.7413 7.51425 19.7217 7.19196 19.7052C7.0148 19.6956 6.84997 19.6901 6.73749 19.6317C6.68934 19.6069 6.63431 19.6098 6.57824 19.6125C6.53489 19.6147 6.49079 19.617 6.44879 19.6066C6.14404 19.5295 5.95863 19.3165 5.78913 19.1139C5.69189 18.9982 5.60001 18.8835 5.49096 18.8075C5.45781 18.784 5.4232 18.7629 5.38951 18.7428C5.34032 18.7135 5.29353 18.6851 5.25632 18.6506C5.17156 18.5719 5.13454 18.4473 5.09593 18.3081C5.07614 18.2367 5.05469 18.1654 5.02627 18.093C4.98931 17.9996 4.87833 17.9366 4.76248 17.8704C4.68063 17.8236 4.59647 17.7749 4.53391 17.7121C4.42146 17.5963 4.41543 17.4398 4.41261 17.2886C4.41127 17.2231 4.40975 17.1592 4.39997 17.1022C4.39601 17.079 4.37854 17.0632 4.35117 17.0525C4.3254 16.8054 4.30139 16.5522 4.2744 16.3199C4.15011 15.1286 4.07697 14.0728 4.88697 12.8947C5.03895 12.6759 5.13763 12.4064 5.203 12.1304C5.63354 11.4021 6.07782 10.6924 6.53371 9.99526C6.57699 9.92538 6.6208 9.85551 6.66517 9.78565C7.01347 9.71388 7.34148 9.58637 7.65058 9.40107C8.2309 9.05475 8.5922 8.58362 9.06027 8.05196C9.40518 7.66166 9.81072 7.23966 10.3818 6.87232C11.342 6.25602 12.2936 5.7261 13.261 5.10979C13.3548 5.05005 13.4482 4.9912 13.5444 4.93053C14.3795 4.41236 15.2969 3.83355 15.9621 3.41017C16.3634 3.15308 16.9218 3.08274 17.4373 3.0322C18.1637 2.95965 18.802 2.92863 18.8966 2.3786C18.9264 2.20296 18.9054 1.9403 18.8887 1.68383C18.8759 1.50163 18.8657 1.32277 18.8752 1.18049C19.0728 1.11535 19.268 1.05341 19.4672 0.992749C19.9219 1.08035 20.5445 1.11509 20.9042 0.602552C21.1115 0.552609 21.3185 0.505462 21.5204 0.463853C21.9581 0.370341 22.3911 0.292528 22.8263 0.227388C22.9694 0.206135 23.1123 0.186415 23.2569 0.167702C23.2582 0.167578 23.2596 0.167454 23.261 0.167331C23.5517 0.129848 23.8447 0.0979607 24.1324 0.0740423C24.2558 0.0636042 24.3794 0.0542322 24.5024 0.0461169C24.6024 0.0394551 24.7029 0.0334337 24.8034 0.0281525C25.0142 0.0177686 25.2205 0.0107635 25.4293 0.00606245C25.5925 0.00240654 25.7549 0.000267506 25.921 1.3113e-05C26.1904 -0.000278354 26.4598 0.00490868 26.7404 0.0187459C27.2014 0.0525489 27.6112 0.0538435 28.2489 0.260714C28.3593 0.30086 28.4808 0.39273 28.556 0.520879C28.6321 0.648901 28.629 0.78246 28.5596 0.84452C28.4923 0.909581 28.3841 0.930887 28.2972 0.965791C28.2085 0.997992 28.1399 1.02466 28.0746 1.02485C27.6786 1.04186 27.3056 1.18817 26.9375 1.32781C26.7075 1.41779 26.4846 1.51601 26.2608 1.61801C26.1229 1.68096 25.9878 1.74467 25.8519 1.81036C25.6786 1.89415 25.5073 1.97979 25.3316 2.06821C25.2501 2.10969 25.1693 2.15162 25.0892 2.19389C24.9916 2.2456 24.8941 2.29826 24.7973 2.35167C24.5715 2.47654 24.3441 2.60662 24.1219 2.74005C24.1206 2.74084 24.1192 2.74164 24.1179 2.74243C24.0084 2.80814 23.9011 2.87444 23.7943 2.9415C23.4668 3.14655 23.1475 3.35904 22.8291 3.58098C22.6648 3.69754 22.4947 3.81858 22.3285 3.94156C22.2364 4.00979 22.1435 4.0795 22.0544 4.14806C22.0054 4.18528 21.9561 4.2228 21.9059 4.26106C20.7674 5.14351 19.7267 6.10754 18.7365 7.13447C18.1181 7.7768 17.5245 8.44208 16.937 9.12893C16.6199 9.511 16.331 9.89255 16.0746 10.2732C15.3769 11.3045 14.9725 12.2669 14.689 13.3491C14.6556 13.475 14.6236 13.6031 14.5925 13.7339C13.3607 18.0355 13.0187 21.1043 12.7148 26.0015C12.7503 26.0502 12.7876 26.0741 12.8115 26.2955C12.8374 26.5009 12.8645 26.7955 12.8949 27.1047C12.9554 27.7313 13.0242 28.4291 13.093 29.1295C13.4363 32.4896 13.7917 35.9687 14.2412 39.1106C14.2614 39.2465 14.2821 39.3861 14.3029 39.5195C14.4681 40.6109 14.6516 41.6935 14.8558 42.7158C15.09 43.8939 15.3371 44.9184 15.653 46.0693C15.6937 46.2195 15.7375 46.3819 15.7908 46.5957C15.8453 46.8435 15.9062 46.9776 16.0254 47.825C16.0245 47.7871 16.0241 47.7605 16.0249 47.7434Z" fill="black"/>
</svg>
