<svg width="178" height="120" viewBox="0 0 178 120" fill="none" xmlns="http://www.w3.org/2000/svg">
<path d="M12.2609 99.9989C10.3733 99.3196 8.56446 98.8823 6.46306 98.2958C5.33926 97.8922 4.42868 97.9552 2.21595 96.2949C1.68677 95.8343 0.840216 95.0265 0.314167 93.5105C-0.247618 91.9765 0.0370619 90.0964 0.443551 89.141C1.28758 87.1865 1.85515 86.7725 2.22178 86.2119C7.99177 79.844 12.5765 77.351 19.6065 74.8763C28.6377 72.0924 32.064 72.7261 39.2952 70.7148C41.2024 70.1934 43.4607 69.4651 46.1294 68.4661C58.7526 63.7476 72.089 61.3579 77.4835 58.5903C82.8971 55.8215 84.3962 58.5982 92.3011 55.4199C100.209 52.2441 105.242 51.1141 112.623 49.8937C119.998 48.6712 142.05 42.811 149.602 39.2107C157.168 35.6034 166.828 34.8982 172.414 33.7253C174.151 33.3606 175.547 33.1612 176.635 33.0651C177.096 33.0245 177.355 33.155 177.413 33.3441C177.413 33.3442 177.413 33.3443 177.413 33.3444C177.485 33.58 177.245 33.9063 176.698 34.1059C174.041 35.075 170.125 36.6872 165.619 38.9973C157.219 43.3043 155.71 41.8403 143.964 46.3284C132.215 50.8204 125.515 54.661 111.086 57.9508C96.6593 61.2531 94.7882 66.6544 74.1477 70.3891C57.6697 73.399 53.9072 77.42 43.2404 82.5226C40.5443 83.816 37.456 85.1707 33.6222 86.6477C29.6603 88.1776 25.4698 89.6757 21.3427 91.2086C17.4499 92.6237 12.3859 94.7267 11.5613 95.4673C11.4792 95.5342 11.454 95.555 11.5444 95.4312C11.6306 95.2951 11.86 95.0584 12.2274 94.2343C12.5882 93.4841 13.0017 91.6211 12.4985 89.9652C12.0177 88.3218 11.2332 87.5605 10.8578 87.1906C10.4317 86.7998 10.2403 86.71 10.1291 86.6478C10.0166 86.5912 10.0029 86.6011 10.024 86.6229C10.078 86.6745 10.2728 86.7832 10.5184 86.8974C11.538 87.3694 13.0549 87.876 14.5008 88.3249C17.4399 89.23 20.4289 90.019 23.2517 90.7262C28.0133 91.9131 32.2505 92.8395 35.5517 93.3806C47.8597 95.395 64.5116 97.6538 81.9 101.246C85.7797 102.048 89.8868 102.776 94.1158 103.478C97.9491 104.114 101.883 104.757 105.841 105.433C107.841 105.773 109.834 106.122 111.783 106.451C112.752 106.614 113.718 106.773 114.545 106.881C114.936 106.933 115.341 106.969 115.404 106.962C115.402 106.97 115.393 106.912 114.674 107.026C114.313 107.116 113.67 107.17 112.483 107.974C111.253 108.727 110.106 110.812 110.032 111.967C109.951 112.554 109.989 112.728 109.989 112.808C109.994 112.886 109.991 112.854 109.975 112.788C109.942 112.648 109.866 112.381 109.763 112.075C109.557 111.463 109.26 110.726 108.932 109.981C108.272 108.485 107.467 106.892 106.633 105.318C104.948 102.147 103.118 98.9876 101.32 95.8576C98.9845 91.7945 96.2241 87.3643 93.2515 82.855C84.116 69.1036 73.2837 54.4497 67.9197 46.3698C66.2936 43.9448 64.9427 41.9028 63.7674 40.1156C59.7867 34.0644 57.3484 30.8648 51.1982 23.5897C46.6209 18.18 40.964 10.1725 37.1661 2.74627C35.2568 -0.992221 36.5154 -0.72536 39.2864 2.40703C43.3437 6.97908 46.0154 11.2226 48.7738 13.0708C54.2886 16.7551 56.5672 18.3405 60.3887 25.4069C63.4935 31.1448 67.0774 33.0329 69.6804 35.6406C70.263 36.2177 70.8059 36.8433 71.2838 37.5665C73.8253 41.3812 72.3707 42.3543 88.0995 59.9202C93.6808 66.1828 98.2966 71.5284 102.135 76.251C109.096 84.8309 113.421 91.0756 116.663 96.1928C117.674 97.7999 118.806 99.8079 119.972 102.279C120.552 103.517 121.138 104.855 121.699 106.412C121.98 107.2 122.258 108.04 122.512 109.049C122.716 110.182 123.172 110.873 122.876 113.861C122.748 115.176 121.711 117.285 120.318 118.299C119.029 119.297 118.009 119.533 117.389 119.685C116.1 119.947 115.56 119.878 115.049 119.871C114.078 119.821 113.493 119.715 112.894 119.618C111.736 119.417 110.746 119.199 109.744 118.981C107.747 118.541 105.802 118.098 103.82 117.671C99.8682 116.817 95.8981 116.043 92.0546 115.444C90.8977 115.264 89.7248 115.093 88.577 114.94C74.2044 113.033 45.1829 107.646 33.2661 106.332C26.4597 105.599 23.615 104.631 20.7286 103.408C18.5289 102.472 16.3425 101.435 12.2609 99.9989Z" fill="black"/>
</svg>
