<svg width="90" height="121" viewBox="0 0 90 121" fill="none" xmlns="http://www.w3.org/2000/svg">
<path d="M51.6495 74.531C50.9921 75.8204 49.9643 77.2821 48.9662 78.3381C47.9629 79.4065 47.2906 79.9495 46.7807 80.4032C45.1774 82.0064 42.7988 83.5954 41.6736 84.2634C40.1218 85.3963 39.3785 85.5831 38.6965 85.8802C38.0349 86.138 37.5024 86.3214 36.986 86.5104C35.237 87.1607 33.4445 87.8594 31.8773 88.6093C31.6759 88.7064 31.4814 88.8029 31.3219 88.8861C31.2418 88.9278 31.1712 88.9661 31.129 88.9907C31.0923 89.0112 31.0558 89.0388 31.1987 88.9538C29.6376 89.9702 27.9599 91.2315 27.2867 92.0242C27.2475 92.1633 26.2936 93.5258 25.5761 94.7195C24.5887 96.2733 23.4784 97.9265 22.03 99.5993C22.109 99.5454 22.0259 99.6684 21.9467 99.8107C21.8618 99.9577 21.7561 100.144 21.6535 100.335C21.4479 100.717 21.2444 101.146 21.1387 101.416C21.5013 100.55 21.4063 100.508 21.4015 100.692C21.3757 100.889 21.341 101.338 21.2986 101.905C21.2645 102.346 21.227 102.867 21.1648 103.465C21.1213 103.742 21.1005 104.008 21.091 104.174C21.0853 104.253 21.0842 104.31 21.0665 104.273C21.0568 104.253 21.0435 104.209 21.0081 104.099C20.9674 103.984 20.9281 103.829 20.7332 103.404C20.5552 103.067 20.3847 102.928 20.4233 103.006C20.4536 103.077 20.6581 103.312 20.9583 103.594C21.5664 104.171 22.4987 104.929 23.4489 105.711C22.7936 105.493 23.9564 106.143 26.2825 106.444C27.4229 106.659 28.1713 106.744 30.1816 106.441C30.4003 106.411 30.6285 106.37 31.1349 106.316C30.9387 106.356 31.0335 106.362 31.2002 106.337C31.3709 106.313 31.6219 106.268 31.8884 106.221C32.4288 106.125 33.0298 106.025 33.6184 105.943C35.0042 105.8 36.4447 105.462 37.398 105.106C39.5944 104.164 41.2072 103.387 43.9842 102.109C44.5913 101.92 45.6864 101.306 46.8143 100.64C48.0087 99.9583 49.1095 99.1902 51.1935 98.3054C51.3921 98.2398 51.5798 98.1731 51.7669 98.1003C52.3175 97.9023 52.8129 97.5864 54.2042 96.9324C54.3671 96.9557 55.069 96.5438 55.7372 96.0148C56.4644 95.4552 57.0721 94.8742 58.2947 93.8776C59.246 93.1754 60.951 91.5346 62.2997 90.2749C63.8955 88.79 65.0891 87.6486 66.3393 86.1194C67.0628 85.2585 67.8748 84.0805 68.7375 82.948C69.2868 82.2227 69.8613 81.497 70.4644 80.7879C72.3917 78.5369 74.4043 76.5438 76.2793 74.5446C77.4443 73.3094 78.4897 72.055 79.668 70.6659C79.8811 70.419 80.0958 70.1788 80.3073 69.9459C81.1222 69.0575 81.8774 68.2242 82.6273 67.3214C83.4566 66.3265 84.2766 65.2959 85.0878 64.2621C85.7984 63.3552 86.5068 62.4382 87.1934 61.5191C87.612 60.9528 88.0468 60.3732 88.3805 59.8139C88.4372 59.7158 88.4952 59.641 88.5698 59.5484C88.6523 59.4458 88.748 59.3584 88.8525 59.2925C89.0531 59.1663 89.2685 59.1292 89.4572 59.1924C89.646 59.2557 89.7962 59.4155 89.8802 59.6372C89.9235 59.7519 89.9471 59.8783 89.9512 60.0089C89.9547 60.1368 89.9076 60.3391 89.8523 60.4841C89.5342 61.2926 89.2165 61.898 88.8867 62.5603C88.3473 63.6255 87.7952 64.6725 87.2355 65.7177C86.6128 66.8771 85.9847 68.0287 85.3177 69.1868C84.9107 69.8921 84.4822 70.6009 84.0423 71.2935C83.1864 71.0735 82.4163 71.053 81.694 71.5561C81.5725 71.6413 81.4459 71.7495 81.3262 71.8736C81.0836 72.1249 80.8689 72.4432 80.7738 72.7553C80.6466 73.1736 80.6643 73.5715 80.6793 73.9506C80.6946 74.3477 80.7063 74.7268 80.5425 75.0894C80.2642 75.7053 80.1635 76.4162 80.0416 77.1683C80.027 77.26 80.0122 77.3521 79.9958 77.446C79.9656 77.6283 79.9324 77.813 79.8946 77.9979C78.7544 79.7048 77.6212 81.3317 76.5775 82.9531C76.0987 83.4427 75.673 83.9016 75.3763 84.3391C75.3503 84.3775 75.3253 84.4157 75.3014 84.4537C75.0378 84.873 74.922 85.3474 74.85 85.8438C74.7132 86.0953 74.5777 86.3496 74.4427 86.6075C73.8388 87.7451 73.304 88.9142 72.475 90.3317C72.1224 90.9345 71.7516 91.5371 71.3582 92.1361C70.3363 93.1881 69.1219 94.2841 67.9699 95.384C67.7443 95.6045 67.5134 95.8339 67.2756 96.0742C66.6227 96.7336 65.9157 97.3302 65.221 97.9054C64.5615 98.4489 64.076 98.8527 63.245 99.5644C63.0369 99.7166 62.7363 100.02 62.4909 100.33C62.0587 100.873 61.4128 101.363 60.7153 101.843C59.7706 102.487 58.8121 103.106 57.7299 103.997C57.7269 104.001 57.724 104.006 57.7211 104.01C57.5229 104.33 57.2571 104.785 56.8988 105.258C56.3643 105.97 55.7303 106.63 55.0926 106.971C55.0828 106.979 55.0716 106.987 55.0592 106.994C54.5997 107.252 53.9337 107.999 53.4093 108.633C52.7521 109.413 52.1187 110.138 51.2501 110.409C51.1178 110.45 50.963 110.491 50.7834 110.538C50.232 110.679 49.5057 110.874 48.4464 111.27C48.1073 111.341 47.5026 111.652 46.8898 112.119C46.3645 112.517 45.9312 113.033 45.5046 113.536C44.8798 114.269 44.2625 114.978 43.3623 115.275C43.2298 115.318 43.053 115.303 42.8985 115.286C42.7862 115.274 42.681 115.263 42.6031 115.277C42.5254 115.297 42.4647 115.33 42.4351 115.385C42.2319 115.759 41.855 116.233 41.4339 116.723C41.1252 117.083 40.7904 117.455 40.4841 117.817C39.0226 118.405 37.5714 118.848 36.1124 119.189C35.7335 119.289 35.3778 119.392 34.9557 119.518C34.4942 119.639 34.1505 119.81 32.7553 120.03C32.9714 120.011 32.8708 120.03 32.7659 120.061C31.8659 120.303 30.2046 120.668 28.7019 120.803C27.8867 120.486 27.0809 120.166 26.2548 119.878C25.7972 119.718 25.2881 119.582 24.7208 119.436C24.2117 119.269 23.5257 119.132 22.6337 118.923C21.4986 118.64 19.9894 118.306 18.0706 117.214C17.3596 116.8 16.6225 116.311 15.9223 115.726C14.5332 114.446 12.9114 113.398 11.4609 112.219C11.0803 111.909 10.6799 111.558 10.2391 111.095C9.73817 110.565 9.16789 109.873 8.64134 108.896C7.42338 106.087 7.40453 104.818 7.34357 102.352C7.32816 102.104 7.30945 101.801 7.29073 101.425C7.31563 100.173 6.90217 98.8248 8.07495 95.6245C8.96282 93.4919 9.81322 92.1147 10.9266 90.6505C11.1465 90.3695 11.3845 90.0821 11.6689 89.7733C12.0177 89.3755 12.3162 88.9991 12.5468 88.672C12.9943 88.0383 13.5575 87.2176 14.1523 86.3102C14.2401 86.1783 14.3287 86.0457 14.4194 85.9109C15.351 84.5671 16.1863 83.2093 17.8645 81.5318C18.3855 81.0199 18.7929 80.6523 19.1181 80.3501C19.5256 79.9725 19.9299 79.601 20.3567 79.2203C21.2484 78.4257 22.2397 77.5859 23.5022 76.6518C24.1977 76.2046 24.4165 76.0906 24.7357 75.9037C25.0285 75.7357 25.2909 75.5893 25.5567 75.4441C27.7495 74.2543 29.0011 73.7821 30.4283 73.3206C30.5245 73.2899 30.6225 73.2657 30.7223 73.2468C31.2414 73.1404 31.7608 73.1862 32.2329 73.2571C32.5506 73.3065 32.8521 73.3637 33.0603 73.4199C33.2592 73.4888 33.3966 73.4978 33.0912 73.7777C33.2805 73.6453 33.4638 73.4931 33.6361 73.3178C33.8312 73.119 34.0097 72.8829 34.1751 72.6516C34.4845 72.2227 34.7209 71.8311 35.0545 71.6254C35.1724 71.5525 35.3161 71.5354 35.4595 71.5145C35.6169 71.4918 35.7734 71.4647 35.8851 71.3607C36.0661 71.192 36.2439 71.0075 36.4199 70.8123C36.7794 70.4173 37.1099 70.0615 37.3824 69.7669C38.0144 69.0896 38.2584 68.7846 38.4571 68.6557C38.8085 68.4319 38.9193 68.0521 39.0694 67.4952C39.1436 67.2155 39.2214 66.8989 39.3272 66.5737C39.3803 66.4104 39.4338 66.2608 39.4913 66.1273C39.6418 65.7821 39.7332 65.4431 39.7334 65.2727C39.7407 65.0975 39.6314 65.1436 39.617 65.513C39.3631 64.5533 39.0826 64.0115 38.9108 64.011C38.7408 64.0136 39.0949 64.1719 39.2036 63.9118C39.2272 63.8551 39.2347 63.7813 39.2134 63.692C38.93 63.3706 38.8114 63.177 38.6328 62.9903C38.4694 62.8209 38.1958 62.8908 37.9282 62.9606C37.6796 63.0245 37.4365 63.0876 37.2218 62.9455C37.0322 62.8203 36.9607 62.5027 36.8816 62.1992C36.8598 62.1144 36.8369 62.0308 36.8099 61.9528C36.7167 61.7174 36.59 61.5324 36.3465 61.5206C36.1728 61.5121 35.937 61.6086 35.656 61.7252C35.5449 61.7713 35.4252 61.82 35.3017 61.8674C35.3191 61.811 35.3311 61.7598 35.3392 61.7209C35.3965 61.4457 35.0962 61.2327 34.7945 61.0267C34.6733 60.9442 34.5534 60.8632 34.4573 60.7787C34.1039 60.4671 33.348 60.293 32.7637 60.2108C32.5168 60.1756 32.3067 60.0545 32.0609 59.9146C31.8427 59.7905 31.5955 59.6511 31.27 59.5465C31.0844 59.4869 30.9491 59.3869 30.8369 59.3037C30.7558 59.2436 30.6866 59.1923 30.6189 59.1727C30.5602 59.1557 30.5019 59.2296 30.4368 59.3131C30.3899 59.3731 30.3392 59.4382 30.2819 59.4778C30.2076 59.5293 30.1259 59.557 30.0497 59.5641C29.9853 59.5699 29.9248 59.5611 29.8756 59.5393C29.826 59.5171 29.7887 59.4814 29.7515 59.4459C29.7083 59.4045 29.6652 59.3629 29.6016 59.3431C29.3094 59.2524 29.0074 59.3143 28.6937 59.3805C28.3486 59.4533 27.9887 59.531 27.6004 59.4178C27.4779 59.3821 27.35 59.3131 27.225 59.2462C27.0946 59.1762 26.9665 59.1088 26.8554 59.0852C26.4026 58.9891 25.9542 59.1597 25.5385 59.3171C25.2623 59.4218 24.9997 59.5204 24.7599 59.5312C24.32 59.5508 24.0655 59.7758 23.8779 59.9417C23.7805 60.0277 23.7006 60.0983 23.6207 60.1159C23.5492 60.1043 23.4764 60.0914 23.4053 60.0778C23.3408 60.0555 23.2735 60.0325 23.209 60.0339C23.2041 60.034 23.1992 60.0347 23.1943 60.0348C22.8373 59.9575 22.4831 59.8598 22.1277 59.7581C22.0849 59.7458 22.0422 59.7335 21.9996 59.7212C21.1083 59.4636 20.2398 59.1986 19.289 59.2023C19.0843 59.2031 18.8664 59.2796 18.6452 59.3567C18.3734 59.451 18.0936 59.5463 17.8244 59.5047C17.1822 59.4055 16.551 59.1578 15.9197 58.9028C15.7953 58.8523 15.6677 58.801 15.543 58.7509C14.7659 58.4241 13.8395 58.1448 12.659 58.036C12.2232 57.9982 11.7845 57.9975 11.3795 57.9978C11.261 57.9978 11.1454 57.998 11.031 57.9965C10.9447 58.0021 10.8582 58.0063 10.7718 58.0078C10.8542 57.8987 10.9179 57.7909 10.9773 57.6903C11.0819 57.513 11.1737 57.3576 11.3289 57.2521C11.3589 57.2356 11.3911 57.2206 11.426 57.2074C11.9941 56.9954 12.7012 56.6357 12.7676 56.2242C12.7875 56.1134 12.8386 55.9995 12.8904 55.8849C13.0228 55.5971 13.1413 55.3037 12.8266 55.0398C12.7244 54.9533 12.5504 54.8068 12.3558 54.6861C12.167 54.565 11.9429 54.4737 11.7204 54.5153C11.6267 54.5329 11.5419 54.6097 11.4467 54.6945C11.2757 54.8467 11.072 55.0279 10.7178 54.9349C10.6581 54.9191 10.5938 54.9001 10.5277 54.8793C10.2632 54.7967 9.96452 54.6956 9.78467 54.7936C9.57808 54.907 9.50791 55.1165 9.42867 55.3624C9.3236 55.6812 9.21035 56.0673 8.71152 56.3544C8.61263 56.4108 8.48762 56.3848 8.39225 56.3639C8.3252 56.3493 8.27342 56.3382 8.25587 56.3611C8.23594 56.3875 8.2239 56.4575 8.20927 56.5464C8.15448 56.8564 8.08262 57.4207 7.41369 57.0941C7.2318 57.0036 7.036 56.8666 6.85854 56.7381C6.59684 56.5492 6.3735 56.3778 6.29614 56.4316C6.26682 56.452 6.23938 56.4768 6.21276 56.5037C5.98702 56.3507 5.75882 56.1892 5.52445 56.0139C5.27654 55.7147 4.83688 55.4133 4.25976 54.9236C4.11904 54.8036 3.97203 54.6729 3.81652 54.525C3.32558 54.0214 2.82385 53.4283 2.36028 52.7132C2.18253 52.4136 2.0113 52.0801 1.85973 51.7147C1.81042 51.5451 1.76634 51.3652 1.72934 51.1738C1.57566 50.3804 1.61353 49.5727 1.68992 48.7896C1.72195 48.4591 1.76065 48.1316 1.79322 47.8061C1.84788 47.9088 1.9026 47.9992 1.9564 48.0637C2.32626 48.5044 2.7571 48.5484 3.14746 48.5847C3.4077 48.608 3.65194 48.626 3.85586 48.7376C4.22995 48.9398 4.48658 48.7761 4.67732 48.6617C4.77621 48.6017 4.85767 48.5536 4.92644 48.5685C4.98168 48.5807 5.03447 48.6432 5.08945 48.7071C5.13736 48.7629 5.1872 48.8197 5.24014 48.8455C5.88392 49.153 6.03137 48.8759 6.25813 48.5024C6.38308 48.2951 6.53357 48.0554 6.79841 47.8544C7.08482 47.6534 7.18386 47.6301 7.42345 47.8068C7.48506 47.5468 7.55188 47.2902 7.6249 47.0387C7.58265 46.9721 7.46156 46.9619 7.26565 46.9554C6.91513 46.9449 6.61336 46.5242 6.39776 46.181C6.29701 46.0224 6.21253 45.8819 6.1388 45.8102C5.74968 45.4262 5.44615 45.65 5.18175 45.8709C5.03644 45.9907 4.90361 46.1047 4.76955 46.0898C4.71226 46.0835 4.67173 46.1303 4.63058 46.1781C4.59876 46.2151 4.56671 46.2533 4.52576 46.2673C4.22853 46.37 3.90651 46.1273 3.61552 45.879C3.44855 45.7376 3.29109 45.597 3.14655 45.5316C3.10247 45.5117 3.05909 45.4976 3.01714 45.4845C2.95588 45.4653 2.89737 45.4463 2.84227 45.4075C2.71671 45.3192 2.5979 45.1016 2.47575 44.8592C2.41293 44.7345 2.34899 44.6033 2.28082 44.48C2.19261 44.32 2.06106 44.2762 1.92294 44.2291C1.82545 44.1957 1.72476 44.1594 1.63547 44.0788C1.47367 43.9332 1.38291 43.6026 1.30947 43.296C1.28606 43.1994 1.26368 43.1045 1.24028 43.0178C1.23188 42.9902 1.22327 42.9635 1.21432 42.9381C1.20093 42.9 1.17834 42.8827 1.1488 42.8806C1.02079 42.4479 0.89891 42.0457 0.782656 41.6544C0.358366 40.2116 1.66893e-05 38.9501 -1.38283e-05 37.2707C0.00272989 36.6648 0.0543532 35.963 0.209893 35.1515C0.320387 34.5743 0.392393 33.9425 0.44579 33.3457C0.549975 32.9028 0.660281 32.4875 0.771713 32.0898C1.12942 30.8161 1.53876 29.539 2.0198 28.2653C2.39151 28.008 2.74461 27.6685 3.08258 27.2458C3.47408 26.7563 3.78133 26.2316 4.09239 25.6532C4.28565 25.2946 4.47778 24.9221 4.68815 24.5346C5.09346 23.7884 5.56711 22.9834 6.24534 22.1414C6.85414 21.3863 7.47404 20.6449 8.11117 19.8782C8.66128 19.2151 9.28739 18.4506 9.95454 17.716C10.6908 16.9009 11.4694 16.1256 12.1946 15.3977C12.8679 14.7239 13.5069 14.0848 14.0319 13.5498C14.6265 12.9439 15.4227 12.4714 16.1657 12.0365C17.2111 11.4242 18.1511 10.8878 18.2923 10.1308C18.3373 9.88893 18.3063 9.58023 18.2769 9.28C18.2562 9.06598 18.2376 8.85568 18.2461 8.67672C18.5229 8.45218 18.8009 8.22767 19.08 8.00522C19.2777 7.93235 19.4996 7.83887 19.725 7.72049C20.2459 7.44564 20.7878 7.03739 21.1159 6.42089C21.4105 6.19738 21.7061 5.97523 21.9941 5.76373C22.62 5.29961 23.2402 4.85448 23.8719 4.41432C24.0791 4.27029 24.2883 4.1261 24.4986 3.98292C24.5006 3.98159 24.5027 3.98026 24.5047 3.97893C24.9288 3.69005 25.3596 3.40302 25.7871 3.12717C25.9704 3.00876 26.1547 2.89092 26.3393 2.77455C26.374 2.75262 26.4085 2.7309 26.4429 2.70939C26.8742 2.43925 27.3116 2.16925 27.7498 1.90938C28.0012 1.76038 28.2559 1.61178 28.5179 1.46451C28.9436 1.22653 29.3787 0.990362 29.8713 0.773818C29.9264 0.74977 29.9824 0.726054 30.0387 0.703163C30.7227 0.442767 31.3788 0.186034 32.1972 0.0151254C32.3434 -0.0129286 32.5113 -0.00276351 32.647 0.0523787C32.7841 0.106913 32.8683 0.200692 32.8654 0.294067C32.8645 0.388014 32.7969 0.477978 32.7153 0.56253C32.6329 0.646307 32.531 0.717788 32.42 0.766551C31.7869 1.05461 31.2157 1.44776 30.642 1.8399C30.6018 1.86817 30.561 1.89756 30.5206 1.9275C30.1633 2.19355 29.8198 2.49821 29.4836 2.80648C29.276 2.99733 29.0722 3.19033 28.8703 3.38535C28.5197 3.72423 28.1651 4.07572 27.815 4.42738C27.7867 4.45596 27.7581 4.48475 27.7294 4.51375C27.582 4.66285 27.435 4.81316 27.2889 4.96413C26.9477 5.31693 26.6037 5.67908 26.2661 6.04234C26.264 6.04454 26.262 6.04674 26.2599 6.04894C26.0944 6.22721 25.9297 6.40637 25.7671 6.58499C25.2667 7.13349 24.7777 7.68469 24.2832 8.25155C24.0289 8.54582 23.764 8.85207 23.5033 9.15818C23.3578 9.32907 23.2141 9.49932 23.0731 9.66757C22.9951 9.76002 22.9181 9.85147 22.8387 9.94576C22.6945 10.1184 22.5507 10.2915 22.4063 10.466C20.768 12.4524 19.1753 14.4807 17.598 16.5329C17.0294 17.2747 16.4629 18.021 15.9125 18.7627C14.7841 20.2746 13.933 21.5265 13.2066 23.0567C13.199 23.0719 13.1915 23.0872 13.1839 23.1025C12.3073 24.874 11.5509 26.6845 11.0432 28.4325C10.8747 29.0158 10.7254 29.6176 10.5929 30.2311C10.3317 31.4425 10.1362 32.698 9.99085 33.9726C9.83112 35.3182 9.84759 36.1467 9.93867 37.4507C10.0532 39.0447 10.232 40.8138 10.4701 42.356C10.7377 43.7523 11.2216 44.7167 12.1725 46.1813C11.9547 45.6876 12.1808 45.9759 12.8258 46.2327C13.4552 46.5112 14.3599 46.8327 15.3707 47.1527C15.7193 47.2515 15.8083 47.2407 16.0525 47.2622C16.2962 47.2826 16.7563 47.3241 17.269 47.3668C19.1271 47.5131 21.1356 47.6024 23.0778 47.636C25.5847 47.677 28.4199 47.6521 31.413 47.8661C34.3025 48.0827 36.9758 48.4087 39.9361 48.9891C40.448 49.0949 40.9736 49.2175 41.52 49.3665C43.2989 49.7968 45.9018 50.9956 47.3816 52.0502C49.2898 53.285 51.3037 55.4703 52.3646 57.7622C53.4119 59.9514 53.7259 61.8187 53.9792 62.987C54.6318 66.8101 53.6828 69.4631 53.0274 71.376C52.9187 71.6735 52.8086 71.9586 52.6986 72.2332C52.4106 72.9497 52.0771 73.7094 51.6495 74.531Z" fill="black"/>
</svg>
