<svg width="46" height="51" viewBox="0 0 46 51" fill="none" xmlns="http://www.w3.org/2000/svg">
<path d="M45.3488 33.1067C45.4683 35.0976 43.9796 37.672 43.57 39.3926C43.559 39.4433 43.5488 39.5114 43.5398 39.5931C43.4214 40.4781 43.5022 42.7075 42.1928 45.2476C40.4604 48.0247 38.4663 48.7033 37.3625 49.1949C36.1722 49.6518 35.3344 49.8273 34.5836 49.9663C33.1051 50.2211 31.9947 50.2301 30.9839 50.0667C30.2616 49.9449 29.5874 49.7983 29.0333 49.66C28.2759 49.4325 27.3823 49.2465 25.938 48.9154C25.9364 48.7576 24.8393 48.5859 23.9033 48.3848C23.7991 48.3629 23.6954 48.3405 23.59 48.3177C21.6667 47.8084 19.6127 47.3327 17.7313 46.9527C17.49 46.9288 17.2516 46.9006 17.0192 46.8688C15.5187 46.6622 14.4956 46.3355 13.4672 46.0998C11.9679 45.8466 10.6799 45.5152 9.35078 45.1933C8.87882 45.0767 8.40556 44.9592 7.95361 44.8449C6.74356 44.5494 5.48665 44.2779 4.20662 43.9499C4.06255 43.9128 3.91874 43.875 3.77514 43.8365L3.90591 43.8286C3.20962 43.7197 2.58238 43.5611 1.95481 43.3911C1.55358 43.2807 1.15805 43.1633 0.765617 43.0408C0.762335 43.0414 0.752234 43.0398 0.748936 43.0403C0.57486 42.9826 0.401436 42.9237 0.210694 42.8447C0.122024 42.8076 0.0426546 42.6916 0.0281017 42.53C0.0135492 42.3684 0.0511424 42.177 0.112915 41.988C0.174243 41.7985 0.274071 41.6286 0.338027 41.4912C0.401874 41.354 0.423099 41.2633 0.462222 41.2471C0.54553 41.2125 0.689645 41.1759 0.833346 41.1347L0.797102 41.1336C1.18124 41.0271 1.5606 40.9154 1.93233 40.7971C2.49533 40.6171 3.05806 40.4218 3.52516 40.2019C3.56315 40.2056 3.67743 40.1833 3.71495 40.1903C3.73504 40.184 3.75507 40.1777 3.77502 40.1713C3.88228 40.9862 4.02658 41.6033 4.28345 41.8697C4.41416 42.0056 4.60265 42.0574 4.73342 41.9005C4.85083 41.7596 4.93287 41.5128 5.00978 41.2776C5.09025 41.0315 5.16554 40.7978 5.27232 40.7114C5.45364 40.5647 5.61509 40.2093 5.78455 39.8356C5.84597 39.6996 5.90907 39.561 5.97437 39.4293C6.52765 39.2403 7.09385 39.0511 7.66651 38.8669C7.69206 38.8588 7.71788 38.8507 7.74394 38.8426C7.99035 38.9182 8.20919 38.9798 8.39031 38.9391C8.55262 38.9026 8.69559 38.7246 8.83531 38.5047C8.92788 38.4762 9.01864 38.4479 9.11102 38.4196C9.70107 38.2375 10.2856 38.0594 10.8603 37.8807C11.3203 38.0811 11.8044 38.2744 12.3974 38.3363C12.5834 38.3557 12.7664 38.4158 12.9363 38.4844C13.018 38.5082 13.0963 38.5339 13.1758 38.5594C13.6083 38.6996 14.0032 38.8404 14.3329 38.7122C14.5542 38.6264 14.7881 38.7358 15.0132 38.8456C15.3148 38.9928 15.6053 39.1402 15.8423 38.8179C15.9909 38.6152 16.1185 38.3695 16.2301 38.141C16.4079 37.7775 16.5443 37.4579 16.6822 37.4261C16.7517 37.4101 16.8167 37.3782 16.8779 37.3352C17.1397 37.2097 17.3602 37.0099 17.5612 36.829C17.8916 36.5319 18.173 36.2862 18.439 36.5213C18.479 36.557 18.5255 36.6047 18.5786 36.6591C18.8531 36.9462 19.2786 37.4069 19.8544 37.1304C20.0614 37.032 20.2509 36.7852 20.443 36.5438C20.7183 36.1925 20.9936 35.8533 21.2891 36.004C21.3325 36.0265 21.3778 36.1209 21.4191 36.2071C21.4716 36.3167 21.5174 36.4124 21.5455 36.3295C21.6272 36.0863 21.7556 35.8178 21.9001 35.5263C22.004 35.3121 22.1173 35.0853 22.2231 34.8473C22.8913 34.7414 23.563 34.6502 24.2392 34.5745C24.3247 34.5613 24.4086 34.5479 24.4931 34.5344C24.7735 34.4899 25.0517 34.4442 25.3585 34.3996C25.5053 34.771 25.665 35.1061 25.8571 35.3625C26.107 35.6993 26.4761 35.806 27.0922 35.9911C27.2064 36.0261 27.3278 36.0641 27.4545 36.1074C27.6004 36.2074 27.7842 36.3322 28.0184 36.524C28.6014 36.9993 29.4178 36.9659 29.9718 36.7958C30.0893 36.7595 30.2093 36.7206 30.3389 36.6788C30.4073 36.657 30.4776 36.6345 30.5528 36.6118C30.951 36.4616 31.4422 36.2907 32.1172 36.0975C32.8502 35.8844 33.3151 35.8128 33.4997 35.7484C33.5951 35.716 33.6168 35.6889 33.5904 35.6494C33.5373 35.5981 33.395 35.4806 32.5798 35.781C32.0644 35.9822 31.0457 36.5491 30.2361 37.7519C30.0017 38.0093 29.8511 38.211 29.7326 38.3082C29.6584 38.3705 29.5793 38.4235 29.5021 38.4631C29.2897 38.5477 29.0785 38.6683 29.021 38.0196C29.0145 37.9281 29.0127 37.8249 29.0162 37.7101C29.0508 37.2849 29.0633 37.1888 29.0815 37.0694C29.0989 36.9625 29.1197 36.8899 29.147 36.8204C29.2012 36.6854 29.2806 36.5721 29.3799 36.4486C29.472 36.335 29.7936 36.2519 30.1254 36.1596C30.5963 36.0275 31.0883 35.868 30.9662 35.5828C30.9377 35.5154 30.8684 35.4425 30.7954 35.3653C30.6615 35.2216 30.5154 35.0685 30.5913 34.9245C30.6178 34.8738 30.7047 34.8293 30.7897 34.7898C30.8832 34.745 30.9747 34.6999 30.9824 34.6429C31.0109 34.4342 30.9983 34.2262 30.9862 34.0376C30.9705 33.7984 30.956 33.5958 31.0334 33.4682C31.1712 33.2494 31.0589 32.9954 30.9432 32.7397C30.8985 32.6424 30.8532 32.5429 30.8219 32.4423C30.7913 32.3458 30.7741 32.2478 30.7838 32.1496C30.84 31.5955 30.6201 30.8119 30.2465 30.0049C30.1052 29.6974 30.2987 29.4396 30.5467 29.1064C30.7009 28.8984 30.8768 28.6607 31.005 28.3681C31.0777 28.2001 30.9048 28.0608 30.7451 27.9304C30.5979 27.8099 30.4617 27.6992 30.5378 27.5846C30.605 27.4832 30.8944 27.4172 31.1692 27.3544C31.4751 27.2849 31.7628 27.2204 31.706 27.1138C31.6757 27.0572 31.5304 26.9888 31.3577 26.9071C31.2894 26.8751 31.2171 26.8412 31.1455 26.8051C31.2042 26.8066 31.2568 26.8067 31.2966 26.8065C31.5777 26.8048 31.725 26.6954 31.8693 26.587C31.9269 26.5437 31.9838 26.5005 32.0488 26.4648C32.288 26.3357 32.3253 26.0899 32.3126 25.9043C32.3073 25.8258 32.3939 25.7536 32.4949 25.6691C32.5846 25.5938 32.6858 25.5094 32.7441 25.4028C32.7774 25.3419 32.8584 25.2944 32.9261 25.2551C32.9751 25.2267 33.0169 25.2025 33.0278 25.1802C33.0371 25.161 32.9564 25.1462 32.8655 25.1296C32.8 25.1177 32.7291 25.1047 32.6828 25.0884C32.5721 25.0498 32.5383 24.9993 32.5734 24.9631C32.5896 24.9465 32.6209 24.9331 32.652 24.9198C32.6882 24.9044 32.7246 24.889 32.7372 24.8681C32.795 24.7724 32.7022 24.6798 32.6058 24.5847C32.4998 24.4804 32.3897 24.3714 32.4697 24.2473C32.4949 24.2083 32.5532 24.166 32.6098 24.1258C32.669 24.0836 32.7261 24.0425 32.7411 24.0079C32.8018 23.8676 32.5994 23.7371 32.4131 23.6184C32.2893 23.5396 32.1727 23.465 32.1454 23.3948C32.0954 23.266 31.8533 23.1987 31.6746 23.1502C31.5819 23.1249 31.5059 23.1042 31.4827 23.0819C31.4891 23.061 31.4969 23.0399 31.5053 23.0192C31.5228 23.0001 31.5409 22.9803 31.5348 22.962C31.5344 22.9606 31.5333 22.9592 31.5328 22.9579C31.5899 22.8418 31.6715 22.7262 31.7528 22.613C31.9354 22.3576 32.1161 22.1045 32.0089 21.8409C31.9857 21.7841 31.8853 21.7269 31.7833 21.6695C31.6583 21.5989 31.5304 21.5266 31.5385 21.451C31.5577 21.2704 31.7195 21.087 31.8788 20.9055C32.1183 20.6323 32.3522 20.366 32.0875 20.1279C32.0001 20.0495 31.8554 19.9738 31.7095 19.8979C31.6282 19.8556 31.5463 19.8131 31.4745 19.7701C31.6066 19.7774 31.7306 19.7804 31.8462 19.7832C32.0844 19.7891 32.2884 19.7942 32.4622 19.8339C32.8729 19.9278 33.4378 20.0328 33.8484 20.0138C33.9598 20.0087 34.084 20.0095 34.2091 20.0107C34.5228 20.0134 34.8433 20.0162 34.9867 19.9207C35.0833 19.8564 35.3049 19.6906 35.0634 19.5919C35.0108 19.5704 34.907 19.5584 34.7916 19.5451C34.5843 19.5211 34.3389 19.4926 34.2803 19.3962C34.2705 19.38 34.2615 19.3623 34.2532 19.344C34.2198 19.271 34.183 19.1891 34.0162 19.1612C33.8241 19.1289 33.6048 19.1401 33.3492 19.1531C33.0163 19.17 32.6208 19.19 32.1427 19.1217C32.0481 19.1082 32.0154 19.08 31.9905 19.0587C31.973 19.0437 31.959 19.0322 31.9306 19.0315C31.898 19.0307 31.8303 19.0367 31.7446 19.0443C31.4423 19.0713 30.9142 19.118 30.8891 18.9594C30.8824 18.9165 30.9068 18.8668 30.9288 18.8223C30.9464 18.7866 30.9623 18.7543 30.9593 18.7312C30.9568 18.7116 30.9409 18.6986 30.9013 18.6959C30.8684 18.6937 30.8328 18.6924 30.7959 18.6914C30.8055 18.6387 30.815 18.5861 30.8245 18.5335C30.9265 18.4645 30.9161 18.3703 30.9028 18.2528C30.8995 18.2242 30.8965 18.1941 30.8945 18.1629C30.9141 18.0591 30.9337 17.9554 30.9538 17.8518C30.9962 17.7692 31.0661 17.681 31.1777 17.5872C31.4015 17.3992 31.7728 17.2337 32.1358 17.0714C32.2888 17.0031 32.4407 16.9354 32.5792 16.8672C32.5967 16.8927 32.6174 16.9156 32.6455 16.9331C32.8383 17.0527 33.2147 17.0962 33.5612 17.1361C33.7917 17.1626 34.009 17.1875 34.1496 17.2323C34.4073 17.3144 34.707 17.301 34.9286 17.2912C35.0435 17.2862 35.1377 17.2822 35.1938 17.2928C35.2387 17.3013 35.2601 17.3223 35.2823 17.3439C35.3016 17.3628 35.3219 17.3823 35.3582 17.3944C35.7995 17.5414 36.0535 17.491 36.4232 17.418C36.6271 17.3777 36.8664 17.3306 37.1916 17.3056C37.5361 17.2831 37.637 17.2873 37.7756 17.3656C37.9449 17.3002 38.1141 17.2349 38.2834 17.1695C38.2719 17.1451 38.1652 17.1282 37.9879 17.1047C37.6714 17.0629 37.5536 16.9119 37.4615 16.7942C37.4189 16.7396 37.3817 16.6922 37.3328 16.6659C37.0731 16.5258 36.715 16.5731 36.4 16.6149C36.2266 16.6379 36.0661 16.6591 35.9423 16.6464C35.8893 16.641 35.8369 16.6507 35.7836 16.6605C35.7423 16.668 35.7003 16.6758 35.6571 16.6767C35.3428 16.6835 35.1082 16.6018 34.8904 16.5257C34.7656 16.4822 34.646 16.4408 34.5202 16.4188C34.4819 16.4121 34.4429 16.4069 34.4049 16.402C34.3496 16.3949 34.2968 16.388 34.2515 16.3766C34.1483 16.3506 34.0781 16.2949 34.0017 16.2339C33.9625 16.2026 33.9215 16.17 33.8735 16.1393C33.8112 16.0994 33.6867 16.0865 33.5566 16.073C33.4647 16.0634 33.37 16.0533 33.2918 16.0334C33.1504 15.9972 33.0984 15.9207 33.0501 15.8498C33.0291 15.819 33.0082 15.7891 32.9815 15.7641C32.9707 15.754 32.9492 15.7493 32.9199 15.7487C32.8197 15.6331 32.7175 15.5216 32.6174 15.414C32.1156 14.874 31.6806 14.4079 31.9794 13.6979C32.0359 13.5633 32.0218 13.42 31.9725 13.2768C32.0881 12.8115 32.2075 12.35 32.3294 11.8858C32.6109 11.7903 32.8466 11.6731 33.0307 11.5375C33.3763 11.284 33.446 11.0261 33.528 10.7238C33.5887 10.5003 33.6562 10.2503 33.8464 9.95977C34.1658 9.46774 34.4329 8.9638 34.5613 8.40081C34.6894 7.84012 34.7731 7.20299 34.7915 6.75495C34.8015 6.50801 35.0427 6.24316 35.2658 5.99363C35.5798 5.64424 35.8577 5.31958 35.4154 5.1679C35.2743 5.12117 35.0316 5.07897 34.7961 5.04207C34.6283 5.01548 34.4645 4.99012 34.3418 4.96333C34.347 4.94676 34.3521 4.93028 34.3572 4.91387C34.3816 4.82568 34.406 4.73911 34.4308 4.65414C34.7035 4.45341 34.988 4.14659 34.646 3.90713C34.6764 3.79786 34.7071 3.69658 34.7377 3.58981C34.8018 3.36907 34.8653 3.14223 34.929 2.92477C34.9498 2.8504 34.9707 2.77731 34.9917 2.7061C34.9919 2.70542 34.9922 2.70474 34.9924 2.70406C35.034 2.55423 35.0755 2.40721 35.1168 2.26324C35.1342 2.1992 35.1518 2.13947 35.1689 2.07696C35.2125 1.91919 35.2548 1.76025 35.2968 1.60783C35.3187 1.5239 35.3403 1.44344 35.3616 1.36206C35.396 1.22911 35.4292 1.09784 35.4602 0.970142C35.5108 0.765581 35.5549 0.564692 35.5914 0.409807C35.5975 0.384285 35.6335 0.347572 35.6924 0.302518C35.7511 0.256925 35.8278 0.206924 35.9116 0.164918C35.9955 0.122981 36.0823 0.09214 36.1582 0.0836064C36.2333 0.0739091 36.2906 0.0877557 36.3181 0.116189C36.4849 0.291561 36.6255 0.500919 36.7576 0.706973C36.8393 0.835898 36.918 0.966474 36.9938 1.0984C37.0404 1.17916 37.0854 1.25843 37.1307 1.34153C37.215 1.49163 37.298 1.64842 37.3786 1.80369C37.4104 1.86505 37.4417 1.92361 37.4734 1.98667C37.5468 2.12813 37.619 2.2731 37.6905 2.42063C37.6909 2.42148 37.6913 2.42233 37.6918 2.42319C37.7266 2.49246 37.7615 2.56393 37.7961 2.63636C37.9008 2.84981 38.0042 3.07269 38.105 3.28968C38.1595 3.40849 38.2121 3.52006 38.2659 3.64274C38.2956 3.70871 38.3252 3.77235 38.3546 3.83764C38.3703 3.87319 38.3859 3.9096 38.4017 3.94656C38.4968 4.15792 38.5907 4.37169 38.6835 4.58977C38.9484 5.21746 39.1929 5.84527 39.4258 6.4751C39.7397 7.32069 40.0318 8.16732 40.3091 9.00988C40.5863 9.85364 40.848 10.6949 41.0978 11.5363C41.7931 13.876 42.4227 16.2112 42.9943 18.5292C43.7258 21.5317 44.3361 24.5434 44.7791 27.5868C44.8923 28.36 44.9929 29.1554 45.0804 29.9403C45.168 30.7295 45.243 31.5136 45.3008 32.3264C45.3083 32.4319 45.3155 32.5368 45.3224 32.6412C45.3319 32.7972 45.3407 32.9489 45.3488 33.1067Z" fill="black"/>
</svg>
