<svg width="93" height="349" viewBox="0 0 93 349" fill="none" xmlns="http://www.w3.org/2000/svg">
<path d="M76.1338 330.977C76.4588 328.462 77.1128 325.564 77.5322 322.552C77.7971 320.701 77.9364 318.894 77.7301 317.081C77.5137 314.917 76.7652 312.744 76.2153 309.427C76.1479 309.283 75.9696 308.465 75.8265 307.764C75.6789 307.034 75.5473 306.296 75.4331 305.582C75.2044 304.146 75.0362 302.763 74.9205 301.395C74.7712 299.632 74.7053 297.912 74.7502 296.205C74.8726 291.785 75.0909 287.418 75.4146 282.975C75.5955 280.481 75.8531 277.958 76.1957 275.477C76.6211 272.381 77.1293 269.607 77.476 266.857C77.9652 262.684 78.819 259.058 79.3531 255.536C79.3809 255.357 79.4079 255.183 79.4346 255.003C80.5543 248.351 81.3809 242.24 82.0688 235.681C82.0919 235.467 82.1149 235.249 82.1378 235.029C82.6006 231.265 82.4234 228.15 82.0593 223.783C82.0686 223.322 82.0569 222.847 82.0312 222.363C81.9345 220.453 81.595 218.441 81.5357 216.319C81.5319 216.152 81.5302 215.984 81.5314 215.817L81.5359 215.854C81.5329 215.362 81.4113 214.665 81.421 214.009C81.4263 213.219 81.506 212.487 81.5815 211.75C81.604 211.541 81.6985 211.342 81.8486 211.195C81.9989 211.048 82.1915 210.965 82.3906 210.965C82.5897 210.966 82.7827 211.049 82.9326 211.196C83.0821 211.343 83.1755 211.541 83.1988 211.746C83.2803 212.461 83.3648 213.187 83.5027 213.796C83.6115 214.304 83.8075 214.707 83.999 215.508C83.9998 215.522 84.0066 215.562 84.0069 215.575C84.0397 215.724 84.0753 215.875 84.1134 216.026C84.4889 217.512 85.0723 219.06 85.5829 220.742C84.8338 221.17 84.2995 221.649 84.1376 222.372C84.0589 222.725 84.0645 223.206 84.2273 223.564C84.235 223.58 84.2432 223.596 84.2517 223.611C84.4217 223.915 84.7001 224.114 84.9659 224.296C85.2446 224.487 85.512 224.661 85.6499 224.934C85.8845 225.399 86.3276 225.81 86.7895 226.269C86.9573 226.435 87.1283 226.609 87.2924 226.792C87.7702 228.443 88.1349 230.172 88.3937 231.871C88.3446 232.537 88.295 233.145 88.3401 233.653C88.3804 234.108 88.5572 234.523 88.7723 234.943C88.7751 234.972 88.7779 235.002 88.7806 235.031C88.8028 235.258 88.8248 235.482 88.8467 235.703C89.0047 237.311 89.152 238.925 89.2865 240.537C89.0507 241.792 88.8157 243.123 88.6727 244.837C88.6105 245.585 88.4676 246.307 88.3263 247.01C88.1177 248.045 87.9121 249.024 87.9802 249.887C88.0257 250.469 87.8726 251.067 87.7172 251.659C87.5092 252.451 87.2959 253.238 87.56 253.968C87.7261 254.426 87.9398 254.841 88.1419 255.215C88.1881 255.301 88.2337 255.385 88.278 255.466C88.5384 256.008 88.7387 256.496 88.7279 256.93C88.704 257.88 88.8939 258.716 89.0582 259.451C89.2556 260.333 89.4161 261.065 89.1107 261.656C89.0643 261.745 89.0044 261.846 88.9365 261.961C88.5796 262.56 88.0013 263.518 88.153 264.923C88.2077 265.423 88.4187 265.896 88.6308 266.351C88.791 266.695 88.9516 267.028 89.0456 267.359C89.1306 267.717 89.154 268.073 89.0625 268.432C89.0339 268.546 88.9333 268.659 88.8413 268.761C88.7244 268.89 88.622 269.005 88.7007 269.081C88.9317 269.302 89.1802 269.648 89.4487 270.024C89.6459 270.302 89.8541 270.596 90.0746 270.868C90.0664 272.835 90.024 274.69 90.0233 276.466C90.0221 277.283 90.0279 278.089 90.0408 278.896C89.6536 279.291 89.3045 279.694 89.0368 280.138C88.6873 280.711 88.561 281.472 88.4101 282.464C88.3756 282.691 88.3397 282.926 88.2996 283.184C88.2111 283.748 88.1008 284.377 87.9363 285.076C87.4936 286.954 87.5831 288.906 87.81 290.151C87.8579 290.414 87.9093 290.68 87.9653 290.963C88.179 292.036 88.4439 293.378 88.7628 295.909C89.0115 297.869 89.1343 299.587 89.2319 300.937C89.2533 301.233 89.2735 301.508 89.2934 301.764C89.3507 302.508 89.4056 303.105 89.4774 303.561C89.6003 304.343 89.7389 305.254 89.9118 306.146C90.0134 306.706 90.1391 307.17 90.2806 308.225C90.4046 308.902 90.5792 309.591 90.7441 310.099C90.8389 310.39 90.952 310.707 91.0774 311.069C91.4205 312.066 91.8847 313.429 92.2428 315.452C92.6103 317.578 92.5832 318.928 92.4373 320.286C92.3761 320.84 92.0739 321.325 91.7571 321.824C91.6019 322.062 91.4432 322.304 91.307 322.562C91.0484 323.031 90.8733 323.537 90.9561 324.159C90.9856 324.38 91.0551 324.618 91.1268 324.868C91.2588 325.326 91.398 325.83 91.3088 326.337C91.2777 326.514 91.1861 326.668 91.0961 326.818C90.997 326.981 90.8994 327.145 90.8841 327.332C90.8271 328.035 90.7994 328.726 90.7652 329.347C90.7216 330.147 90.6658 330.833 90.5413 331.247C90.3194 331.986 90.3187 332.835 90.2813 333.728C90.253 334.408 90.2031 335.116 90.021 335.795C89.657 337.101 89.3176 338.792 88.3755 341.001C86.6214 343.987 85.229 344.256 84.4036 344.808C83.532 345.257 82.8931 345.5 82.3235 345.72C81.029 346.202 80.1048 346.146 78.9901 346.055C78.3012 345.994 77.5533 345.905 76.6681 345.862C76.1652 345.838 75.7703 346.046 75.4027 346.236C75.0662 346.412 74.7516 346.573 74.4163 346.521C74.1144 346.476 73.9186 346.199 73.7244 345.937C73.5088 345.645 73.3098 345.37 73.0145 345.446C72.8571 345.487 72.6682 345.644 72.4522 345.831C72.3658 345.904 72.2731 345.982 72.1741 346.06C72.1757 346.001 72.1738 345.948 72.1714 345.909C72.154 345.628 71.8387 345.499 71.5345 345.372C71.4123 345.321 71.2899 345.271 71.188 345.212C70.8197 344.993 70.144 344.991 69.6295 345.03C69.4109 345.046 69.2142 344.969 68.9784 344.879C68.768 344.799 68.5365 344.709 68.242 344.664C68.074 344.639 67.9406 344.564 67.8316 344.501C67.7536 344.456 67.687 344.417 67.6266 344.409C67.5742 344.402 67.5362 344.484 67.4933 344.577C67.4625 344.644 67.429 344.717 67.3857 344.765C67.2823 344.881 67.1434 344.921 67.0428 344.89C66.9963 344.876 66.96 344.846 66.9232 344.817C66.8805 344.782 66.838 344.748 66.781 344.738C66.5675 344.7 66.3622 344.762 66.1518 344.845C66.1062 344.864 66.0607 344.883 66.0151 344.903C65.7438 345.021 65.4625 345.145 65.1372 345.081C65.0341 345.061 64.9272 345.008 64.8184 344.958C64.705 344.904 64.5963 344.853 64.5069 344.843C64.1354 344.804 63.8124 345.026 63.5094 345.233C63.3119 345.37 63.1248 345.5 62.9443 345.54C62.6181 345.614 62.4596 345.87 62.3422 346.058C62.2819 346.156 62.2336 346.236 62.1786 346.264C62.1259 346.261 62.0697 346.258 62.0167 346.254C61.9669 346.241 61.9157 346.227 61.8702 346.237C61.8667 346.237 61.8634 346.239 61.86 346.239C61.5591 346.207 61.2626 346.152 60.9665 346.098C60.2999 345.976 59.6344 345.864 58.9249 346.046C58.7728 346.085 58.6218 346.202 58.4658 346.32C58.2736 346.465 58.0734 346.614 57.8446 346.627C57.6225 346.64 57.3906 346.629 57.1502 346.602C56.9051 346.555 56.6532 346.482 56.3971 346.413C55.7471 346.238 55.0679 346.09 54.497 346.438C54.3077 346.553 54.1332 346.725 53.9538 346.899C53.855 346.996 53.7549 347.094 53.6511 347.182C53.655 347.048 53.6488 346.923 53.6431 346.807C53.6311 346.568 53.6214 346.363 53.7045 346.175C53.9003 345.73 54.1087 345.13 54.0152 344.728C53.9898 344.619 53.9784 344.495 53.9677 344.371C53.9404 344.058 53.9143 343.737 53.6484 343.631C53.469 343.56 53.0079 343.404 52.774 343.684C52.7229 343.745 52.7029 343.854 52.6805 343.974C52.6397 344.19 52.594 344.445 52.3429 344.543C52.3005 344.559 52.254 344.575 52.2057 344.591C52.016 344.654 51.799 344.724 51.7417 344.902C51.6768 345.106 51.7312 345.319 51.795 345.568C51.8777 345.893 51.9775 346.277 51.8449 346.781C51.8185 346.881 51.7448 346.925 51.6887 346.959C51.6492 346.983 51.6189 347.001 51.62 347.03C51.6215 347.063 51.6455 347.127 51.676 347.21C51.7839 347.499 51.9701 348.005 51.5345 348.096C51.4165 348.12 51.2719 348.117 51.1466 348.113C50.9602 348.108 50.8023 348.104 50.7945 348.192C50.7917 348.226 50.7915 348.262 50.7924 348.299C50.6433 348.311 50.4971 348.322 50.3468 348.334C50.1391 348.26 49.8788 348.306 49.5419 348.364C49.4615 348.378 49.3761 348.392 49.2866 348.406C48.984 348.425 48.6894 348.442 48.3849 348.458C48.147 348.443 47.8783 348.404 47.6034 348.321C47.0417 348.157 46.5361 347.833 46.0549 347.512C45.8494 347.376 45.6475 347.241 45.447 347.118C45.5194 347.095 45.5838 347.069 45.6322 347.036C45.9673 346.815 46.0727 346.427 46.1654 346.07C46.2267 345.833 46.286 345.609 46.4044 345.457C46.6202 345.177 46.5629 344.881 46.5227 344.662C46.5017 344.549 46.485 344.456 46.5107 344.397C46.5314 344.35 46.5877 344.323 46.6454 344.294C46.6954 344.27 46.7481 344.244 46.7795 344.204C47.1567 343.721 46.9969 343.482 46.774 343.134C46.6502 342.942 46.5063 342.716 46.4196 342.398C46.3382 342.06 46.3408 341.958 46.5418 341.798C46.3542 341.648 46.1743 341.495 45.9895 341.343C45.9253 341.361 45.8861 341.472 45.8334 341.655C45.745 341.981 45.3399 342.136 45.034 342.253C44.8902 342.307 44.7631 342.354 44.6932 342.408C44.3293 342.696 44.4666 343.044 44.5918 343.351C44.6603 343.52 44.7238 343.677 44.694 343.803C44.6813 343.857 44.7096 343.907 44.7382 343.959C44.7603 343.999 44.7829 344.039 44.7872 344.082C44.8177 344.395 44.6037 344.646 44.3975 344.879C44.2794 345.012 44.1657 345.139 44.109 345.269C44.0914 345.308 44.078 345.348 44.0655 345.387C44.0472 345.444 44.0292 345.498 43.9984 345.545C43.9282 345.653 43.7732 345.732 43.6 345.819C43.5113 345.863 43.4225 345.909 43.3363 345.961C43.2251 346.029 43.1902 346.156 43.1532 346.288C43.1269 346.381 43.0993 346.477 43.0428 346.558C42.9387 346.705 42.7243 346.767 42.5219 346.823C42.4337 346.848 42.3479 346.872 42.2756 346.901C42.2462 346.913 42.2327 346.935 42.2308 346.965C41.9002 347.077 41.5806 347.188 41.27 347.296C40.4704 347.572 39.7282 347.817 38.9071 347.945C38.2072 348.067 37.4374 348.096 36.5018 347.95C36.141 347.894 35.7513 347.908 35.3534 347.957C34.0877 347.839 32.8034 347.713 31.5153 347.569C31.264 347.283 30.9538 347.041 30.5883 346.848C29.9008 346.486 29.1894 346.396 28.3475 346.279C27.726 346.193 27.0312 346.092 26.2291 345.852C24.8809 345.447 23.5031 345.067 21.9324 344.744C21.0187 344.555 20.0256 344.346 19.1022 344.133C18.4682 343.985 17.8842 343.854 17.3762 343.747C16.7151 343.607 16.0585 343.229 15.4507 342.875C14.5938 342.376 13.8345 341.925 13.2509 342.248C13.0625 342.351 12.8608 342.555 12.6652 342.753C12.5252 342.893 12.392 343.031 12.2606 343.127C11.9863 343.034 11.7211 342.942 11.4517 342.847C11.0105 342.463 10.3242 342.003 9.51185 342.152C9.24145 342.052 8.95466 341.948 8.69264 341.848C8.10739 341.63 7.54306 341.412 6.96915 341.187C6.78117 341.113 6.59927 341.04 6.40581 340.963C6.40402 340.962 6.40223 340.961 6.40044 340.96C6.02265 340.809 5.64053 340.653 5.26432 340.496C5.10074 340.429 4.95074 340.364 4.78397 340.294C4.37697 340.122 3.97154 339.946 3.56733 339.766C3.35971 339.672 3.14081 339.575 2.92889 339.477C2.5816 339.317 2.23531 339.153 1.88946 338.984C1.33424 338.712 0.780399 338.427 0.230957 338.111C0.142591 338.06 0.0682256 337.978 0.0286373 337.882C-0.00997858 337.788 -0.00887959 337.689 0.0280755 337.603C0.0653139 337.517 0.135875 337.448 0.227884 337.408C0.320802 337.369 0.425492 337.361 0.520471 337.383C1.10972 337.519 1.70322 337.627 2.2944 337.724C2.66275 337.784 3.02999 337.839 3.39809 337.891C3.62257 337.923 3.85368 337.956 4.07341 337.984C4.50057 338.04 4.92794 338.092 5.35603 338.143C5.53082 338.164 5.68912 338.18 5.86071 338.2C6.2566 338.244 6.65757 338.287 7.05401 338.327C7.05643 338.328 7.05885 338.328 7.06127 338.328C7.26205 338.349 7.45088 338.367 7.646 338.386C8.245 338.445 8.83391 338.497 9.44147 338.551C9.75113 338.576 10.0827 338.606 10.4025 338.632C10.5818 338.647 10.7682 338.663 10.9401 338.675C11.0356 338.683 11.133 338.691 11.2316 338.699C13.4902 338.874 15.7291 339.013 17.9957 339.141C18.6426 339.177 19.2899 339.211 19.9475 339.246C21.4609 339.312 22.9999 339.299 24.5452 339.241C26.7225 339.16 28.9151 338.993 31.1217 338.79C33.6787 338.557 36.2257 338.258 38.9118 338.003C44.6992 337.527 49.1415 335.956 56.163 334.685C58.7665 334.177 62.4462 333.562 65.6046 333.239C68.3035 332.935 70.9843 332.644 73.5312 332.306C75.3865 332.058 77.51 331.728 78.4252 331.406C78.5639 331.358 78.6441 331.298 78.3942 331.381C78.2619 331.432 78.0506 331.503 77.5893 331.798C77.1521 332.114 76.3424 332.589 75.446 334.188C75.5405 333.915 75.7576 333.21 75.9136 332.367C75.9929 331.948 76.0675 331.481 76.1338 330.977Z" fill="black"/>
<path d="M73.4893 165.539C73.3092 164.88 74.764 164.196 74.7464 163.536C74.7247 162.718 73.2906 161.928 73.531 161.102C73.7717 160.281 74.128 159.456 74.5732 158.632C75.0183 157.809 75.5521 156.985 76.1458 156.161C76.7396 155.338 77.3932 154.514 78.0802 153.69C78.5469 153.131 79.0292 152.571 79.5177 152.011C79.7318 151.766 79.9469 151.521 80.1627 151.276C80.3242 151.093 80.4857 150.91 80.6471 150.727C80.6699 150.701 80.7639 150.675 80.9137 150.654C81.0637 150.633 81.256 150.619 81.4549 150.615C81.654 150.611 81.8472 150.616 81.9974 150.631C82.1472 150.645 82.241 150.667 82.264 150.692C82.4281 150.869 82.5921 151.047 82.7562 151.224C82.9383 151.421 83.1206 151.618 83.3015 151.815C82.4856 151.865 81.8672 151.921 81.5955 152.009C81.4569 152.053 81.4002 152.115 81.5529 152.157C81.6901 152.194 81.9338 152.219 82.1661 152.242C82.409 152.267 82.6397 152.29 82.7217 152.325C82.8611 152.384 83.209 152.436 83.5746 152.489C83.7077 152.509 83.8433 152.529 83.9718 152.55C84.142 152.738 84.311 152.927 84.4786 153.114C84.3932 153.19 84.3244 153.259 84.3592 153.317C84.3904 153.368 84.5639 153.412 84.7795 153.454C84.8052 153.483 84.8309 153.512 84.8566 153.542C85.0215 153.73 85.1839 153.917 85.3449 154.105C85.1304 154.26 84.9223 154.421 84.8339 154.626C84.7959 154.715 84.68 154.805 84.5688 154.891C84.4046 155.017 84.2502 155.136 84.3699 155.235C84.4499 155.3 84.3361 155.375 84.2226 155.449C84.0704 155.548 83.9185 155.646 84.2348 155.725C84.4337 155.775 84.6751 155.819 84.899 155.86C85.2552 155.925 85.5669 155.982 85.5896 156.04C85.6322 156.148 85.8927 156.237 86.1225 156.315C86.3989 156.408 86.6308 156.487 86.3848 156.566C86.3475 156.578 86.2979 156.592 86.2415 156.608C85.9441 156.691 85.4685 156.824 85.7356 156.992C85.8308 157.051 86.0756 157.104 86.3158 157.155C86.6655 157.229 87.0049 157.302 86.8568 157.392C86.8346 157.406 86.7407 157.421 86.655 157.436C86.546 157.454 86.4508 157.47 86.5341 157.476C86.7783 157.494 87.0484 157.525 87.3425 157.558C87.5585 157.583 87.7875 157.609 88.0278 157.633C88.1685 157.851 88.3037 158.074 88.432 158.293C88.4908 158.393 88.5482 158.494 88.6043 158.596C88.2388 158.657 87.9097 158.719 87.6611 158.782C87.3362 158.864 87.2386 158.962 87.112 159.088C87.0189 159.181 86.91 159.291 86.6846 159.42C86.2672 159.658 86.3682 159.891 86.5991 160.035C86.6479 160.066 86.7 160.096 86.7566 160.129C86.9714 160.252 87.2403 160.407 87.5405 160.705C87.8243 160.985 87.9029 161.233 87.9618 161.414C87.9919 161.507 88.0162 161.586 88.061 161.645C88.1375 161.746 88.2066 161.87 88.2758 161.994C88.384 162.188 88.4926 162.386 88.6328 162.493C88.6827 162.532 88.7442 162.572 88.81 162.615C88.9923 162.736 89.2124 162.882 89.3432 163.086C89.4806 163.3 89.396 163.441 89.2069 163.587C89.13 163.647 88.8205 163.706 88.5008 163.769C88.0471 163.858 87.5735 163.952 87.719 164.052C87.753 164.075 87.828 164.099 87.9067 164.123C88.0513 164.168 88.208 164.217 88.1419 164.274C88.1189 164.294 88.035 164.313 87.9527 164.333C87.8623 164.355 87.7738 164.376 87.7696 164.396C87.7537 164.474 87.7772 164.547 87.7984 164.612C87.8257 164.696 87.8484 164.765 87.7761 164.811C87.6471 164.894 87.7681 164.978 87.8912 165.06C87.9852 165.123 88.0808 165.186 88.0659 165.251C88.023 165.438 88.2571 165.684 88.6415 165.931C88.7869 166.024 88.5969 166.115 88.3529 166.231C88.2011 166.302 88.0279 166.387 87.9027 166.487C87.8318 166.543 88.0058 166.581 88.1666 166.616C88.3147 166.648 88.4517 166.678 88.3767 166.717C88.3104 166.752 88.0217 166.784 87.7476 166.815C87.4426 166.85 87.1557 166.883 87.2133 166.915C87.2439 166.932 87.3897 166.948 87.5628 166.967C87.6313 166.974 87.7038 166.982 87.7756 166.991C87.7169 166.993 87.6644 166.995 87.6246 166.996C87.3438 167.009 87.1974 167.05 87.054 167.09C86.9967 167.106 86.9402 167.122 86.8755 167.136C86.6373 167.187 86.6016 167.265 86.6154 167.324C86.6212 167.349 86.5352 167.376 86.4348 167.408C86.3456 167.435 86.245 167.467 86.1873 167.503C86.1545 167.524 86.0738 167.543 86.0064 167.558C85.9576 167.569 85.9159 167.579 85.9052 167.586C85.896 167.593 85.9767 167.594 86.0676 167.595C86.1331 167.596 86.204 167.597 86.2503 167.6C86.3612 167.608 86.3952 167.622 86.3603 167.635C86.3441 167.641 86.313 167.647 86.282 167.652C86.2459 167.659 86.2096 167.665 86.1971 167.672C86.1398 167.705 86.233 167.729 86.3298 167.755C86.4362 167.784 86.5467 167.815 86.4674 167.858C86.4424 167.871 86.3843 167.887 86.328 167.902C86.2691 167.919 86.2122 167.934 86.1974 167.946C86.1373 167.993 86.3401 168.025 86.5266 168.054C86.6507 168.073 86.7674 168.091 86.7949 168.111C86.8453 168.148 87.0874 168.159 87.2662 168.166C87.3588 168.17 87.4349 168.173 87.4581 168.179C87.4518 168.186 87.4441 168.193 87.4358 168.2C87.4183 168.207 87.4004 168.214 87.4065 168.22C87.407 168.22 87.408 168.22 87.4085 168.221C87.3519 168.26 87.2709 168.3 87.1901 168.34C87.0085 168.429 86.8287 168.513 86.9368 168.592C86.9601 168.609 87.0606 168.622 87.1627 168.635C87.2877 168.651 87.4156 168.667 87.4078 168.691C87.3891 168.748 87.2281 168.813 87.0695 168.876C87.0269 168.893 86.9845 168.91 86.9451 168.927C86.7638 169.007 86.6456 169.081 86.8633 169.13C86.9508 169.149 87.0954 169.165 87.2412 169.18C87.3225 169.188 87.4044 169.197 87.4762 169.206C87.3443 169.211 87.2205 169.217 87.1051 169.222C86.8672 169.233 86.6636 169.243 86.4899 169.24C86.0797 169.234 85.5153 169.232 85.1054 169.259C84.9942 169.267 84.8702 169.273 84.7453 169.28C84.432 169.296 84.1121 169.312 83.9692 169.35C83.8729 169.375 83.6521 169.44 83.8935 169.457C83.9461 169.461 84.0498 169.459 84.165 169.457C84.372 169.453 84.6172 169.449 84.676 169.477C84.6858 169.481 84.6948 169.486 84.7033 169.492C84.7368 169.513 84.7738 169.537 84.9404 169.537C85.1323 169.536 85.3511 169.52 85.6063 169.502C85.9386 169.478 86.3333 169.449 86.8108 169.444C86.9052 169.442 86.938 169.449 86.9629 169.454C86.9804 169.458 86.9944 169.461 87.0228 169.459C87.0553 169.458 87.1229 169.452 87.2084 169.445C87.5101 169.419 88.0372 169.375 88.0626 169.422C88.0694 169.435 88.0452 169.451 88.0233 169.466C87.9911 169.488 87.9645 169.505 88.051 169.502C88.0838 169.501 88.1194 169.499 88.1562 169.497C88.1468 169.513 88.1374 169.53 88.128 169.546C88.0263 169.571 88.037 169.6 88.0507 169.635C88.0541 169.643 88.0572 169.652 88.0593 169.662C88.04 169.694 88.0209 169.727 88.0012 169.759C87.9591 169.786 87.8898 169.816 87.7787 169.851C87.5562 169.92 87.1866 169.994 86.8252 170.067C86.6729 170.098 86.5218 170.128 86.384 170.158C86.3663 170.152 86.3456 170.146 86.3174 170.143C86.1243 170.118 85.7485 170.129 85.4025 170.139C85.1724 170.145 84.9554 170.151 84.8148 170.146C84.5571 170.136 84.2582 170.159 84.0371 170.176C83.9225 170.185 83.8285 170.192 83.7725 170.192C83.7275 170.192 83.7061 170.187 83.6838 170.182C83.6644 170.177 83.6442 170.173 83.6079 170.171C83.1667 170.153 82.9135 170.184 82.5449 170.23C82.3417 170.256 82.1032 170.286 81.7787 170.314C81.4351 170.343 81.3344 170.348 81.1956 170.331C81.0271 170.363 80.8586 170.395 80.6902 170.428C80.7018 170.435 80.8084 170.434 80.9855 170.431C81.3017 170.424 81.4203 170.467 81.513 170.499C81.5559 170.514 81.5935 170.527 81.6424 170.532C81.9026 170.56 82.2594 170.521 82.5735 170.487C82.7463 170.469 82.9063 170.451 83.0299 170.447C83.0828 170.445 83.135 170.439 83.1882 170.432C83.2293 170.427 83.2711 170.422 83.3143 170.419C83.6278 170.396 83.8624 170.406 84.0802 170.415C84.205 170.421 84.3246 170.425 84.4502 170.424C84.4885 170.423 84.5275 170.422 84.5654 170.421C84.6207 170.42 84.6734 170.418 84.7186 170.419C84.8218 170.42 84.8921 170.431 84.9689 170.446C85.0082 170.453 85.0493 170.461 85.0975 170.467C85.1599 170.475 85.2842 170.471 85.4141 170.466C85.5059 170.463 85.6004 170.459 85.6785 170.46C85.8198 170.462 85.8723 170.482 85.921 170.5C85.9422 170.508 85.9632 170.515 85.99 170.521C86.0009 170.524 86.0224 170.523 86.0516 170.522C86.1524 170.55 86.2552 170.576 86.3558 170.6C86.8607 170.73 87.298 170.831 87.0067 171.065C86.9516 171.109 86.9669 171.15 87.0174 171.189C86.9066 171.335 86.7924 171.482 86.6753 171.627C86.3959 171.68 86.1626 171.738 85.9808 171.795C85.6395 171.904 85.5725 171.984 85.4943 172.085C85.4364 172.158 85.3714 172.236 85.1856 172.345C84.8727 172.523 84.6125 172.705 84.4898 172.891C84.3676 173.076 84.2882 173.277 84.271 173.416C84.2613 173.49 84.023 173.606 83.8018 173.715C83.4908 173.869 83.214 174.013 83.6485 173.994C83.7872 173.988 84.0257 173.963 84.2572 173.937C84.4221 173.919 84.583 173.901 84.7035 173.891C84.6719 173.926 84.6408 173.962 84.609 173.997C84.3359 174.099 84.0495 174.241 84.3793 174.256C84.3466 174.294 84.3139 174.331 84.2809 174.368C84.2123 174.449 84.1426 174.528 84.0734 174.61C84.0503 174.637 84.0274 174.663 84.0045 174.691C84.0042 174.691 84.0039 174.692 84.0037 174.692C83.9575 174.747 83.911 174.802 83.8646 174.859C83.8448 174.883 83.8251 174.907 83.8053 174.931C83.7552 174.992 83.7055 175.055 83.655 175.116C83.6282 175.15 83.6018 175.183 83.5749 175.217C83.5312 175.271 83.4878 175.327 83.4439 175.382C83.373 175.472 83.3015 175.563 83.2294 175.655C83.2175 175.67 83.1739 175.692 83.1056 175.718C83.0372 175.744 82.95 175.77 82.859 175.793C82.768 175.816 82.6784 175.833 82.6062 175.843C82.5343 175.852 82.4863 175.853 82.4691 175.845C82.3647 175.797 82.2613 175.749 82.1586 175.699C82.0952 175.669 82.0311 175.638 81.9684 175.607C81.9297 175.588 81.8916 175.569 81.8531 175.549C81.781 175.513 81.7085 175.475 81.6372 175.437C81.609 175.423 81.5809 175.408 81.5527 175.392C81.4865 175.356 81.4212 175.321 81.3559 175.283C81.3555 175.283 81.3551 175.282 81.3547 175.282C81.3225 175.264 81.2905 175.246 81.2587 175.227C81.1616 175.171 81.0657 175.114 80.9704 175.053C80.9193 175.022 80.8692 174.99 80.8185 174.957C80.7903 174.939 80.7618 174.92 80.7341 174.902C80.7192 174.893 80.7044 174.883 80.6895 174.873C80.3388 174.64 80.004 174.394 79.6853 174.138C79.3666 173.883 79.0637 173.619 78.775 173.354C78.4862 173.088 78.2116 172.815 77.9499 172.545C77.0078 171.57 76.1822 170.571 75.489 169.573C74.9602 168.816 74.5089 168.048 74.1471 167.291C74.0272 167.043 73.9181 166.784 73.8199 166.533C73.7214 166.277 73.6337 166.031 73.5573 165.776C73.5335 165.7 73.511 165.621 73.4893 165.539Z" fill="black"/>
<path d="M71.891 43.496C71.6866 41.5456 73.1282 39.6312 73.1116 37.6702C73.0947 35.6583 72.1311 33.615 71.961 31.5716C71.9568 31.5514 71.9664 31.4886 71.9625 31.4683C71.9325 31.0257 71.9389 30.5834 71.9981 30.1431C72.3427 27.5822 72.8443 25.3781 73.353 23.0695C73.4545 22.617 73.5578 22.1627 73.6633 21.703C74.094 19.8343 74.5617 17.9271 75.0644 16.0199C75.6895 13.6453 76.3667 11.2596 77.0748 8.8733C77.5558 7.25212 78.051 5.62935 78.552 4.00582C78.7715 3.29495 78.992 2.58279 79.2132 1.87196C79.3786 1.34057 79.544 0.809458 79.7094 0.278446C79.7327 0.20458 79.8273 0.133786 79.9775 0.0815783C80.1279 0.0293817 80.3205 -7.10612e-05 80.5195 0C80.7186 9.80489e-05 80.9116 0.0297717 81.0615 0.0821511C81.2109 0.134512 81.3042 0.205438 81.3266 0.279307C81.4868 0.814804 81.647 1.35039 81.8072 1.88639C81.9848 2.48115 82.1628 3.07463 82.3392 3.6705C81.5225 3.76419 80.9029 3.89148 80.6293 4.13302C80.4897 4.25615 80.4316 4.43543 80.5834 4.56727C80.7197 4.68576 80.9628 4.77441 81.1945 4.8598C81.4368 4.94879 81.6669 5.03319 81.7481 5.14159C81.886 5.32582 82.2327 5.49915 82.5969 5.68377C82.7295 5.7508 82.8646 5.819 82.9926 5.88916C83.1584 6.45618 83.3228 7.02462 83.4856 7.594C83.3985 7.8127 83.3279 8.01485 83.3613 8.18643C83.3912 8.34018 83.5636 8.48071 83.778 8.62033C83.8029 8.70837 83.8278 8.79705 83.8528 8.88517C84.0128 9.45263 84.1701 10.02 84.3259 10.5906C84.1071 11.0323 83.8945 11.4972 83.8001 12.1023C83.7594 12.3596 83.6408 12.6214 83.527 12.8661C83.3588 13.2311 83.2007 13.5718 83.317 13.8752C83.3948 14.0784 83.2786 14.2856 83.1626 14.4986C83.0071 14.7834 82.8517 15.0613 83.1649 15.3217C83.3618 15.4846 83.6014 15.6306 83.8236 15.7705C84.1772 15.9926 84.4864 16.184 84.5068 16.3558C84.5451 16.6854 84.8017 16.9618 85.028 17.2155C85.3002 17.5147 85.5284 17.769 85.279 17.9867C85.2412 18.0197 85.191 18.0573 85.1339 18.0994C84.8329 18.325 84.3516 18.6817 84.6097 19.2059C84.7017 19.3888 84.9434 19.5719 85.1806 19.7428C85.5258 19.9932 85.8607 20.2423 85.7073 20.4994C85.6843 20.5384 85.5896 20.5782 85.5031 20.6141C85.3931 20.6599 85.2971 20.6996 85.3799 20.7248C85.6226 20.7996 85.8906 20.9116 86.182 21.0423C86.3961 21.1367 86.623 21.236 86.8614 21.3273C86.898 21.521 86.9337 21.7269 86.969 21.9197C87.0547 22.4074 87.1361 22.8932 87.2125 23.3815C87.2619 23.6947 87.3091 24.0123 87.3542 24.3306C86.9831 24.4801 86.6481 24.6392 86.393 24.8043C86.0596 25.0244 85.9508 25.311 85.8082 25.6879C85.7033 25.9648 85.5801 26.2839 85.337 26.6502C84.8871 27.3279 84.9515 28.0323 85.16 28.4824C85.2041 28.5776 85.2514 28.6736 85.3031 28.7755C85.4992 29.1621 85.7436 29.6404 86.0081 30.5222C86.1467 30.9851 86.2264 31.4032 86.2774 31.7789L86.2787 31.6929C86.3239 32.0041 86.3497 32.2811 86.3723 32.5209C86.3982 32.7991 86.4194 33.0282 86.4618 33.2031C86.5343 33.5031 86.5991 33.8742 86.6645 34.2434C86.7668 34.8243 86.8713 35.4081 87.0098 35.735C87.059 35.8533 87.12 35.9769 87.1852 36.1096C87.3658 36.4751 87.5842 36.9198 87.7148 37.5334C87.8519 38.1737 87.7681 38.5733 87.5803 38.9944C87.504 39.1651 87.1949 39.3144 86.8757 39.4757C86.4228 39.7037 85.9501 39.9347 86.0977 40.244C86.1321 40.3159 86.2077 40.3917 86.287 40.4706C86.4326 40.6155 86.5906 40.7701 86.5258 40.9371C86.5032 40.9949 86.4197 41.0469 86.3378 41.0978C86.2478 41.1538 86.1598 41.2086 86.156 41.2686C86.142 41.4906 86.1678 41.7153 86.1908 41.9072C86.2206 42.1545 86.2458 42.3703 86.1749 42.5009C86.0484 42.7326 86.1727 42.9926 86.299 43.244C86.3956 43.4389 86.494 43.6389 86.4816 43.83C86.4463 44.3854 86.692 45.1387 87.0893 45.9146C87.2394 46.2033 87.0536 46.4666 86.815 46.7982C86.6665 47.0057 86.497 47.2398 86.3763 47.5306C86.3079 47.6912 86.4844 47.8301 86.6472 47.9518C86.7972 48.0644 86.9359 48.1692 86.8627 48.2857C86.7979 48.3876 86.51 48.4583 86.2366 48.5251C85.9323 48.5984 85.6462 48.6711 85.7053 48.775C85.7368 48.8303 85.8836 48.8942 86.0579 48.9694C86.1268 48.9994 86.1998 49.0297 86.2721 49.0652C86.2133 49.0649 86.1608 49.0658 86.121 49.0669C85.84 49.0744 85.695 49.1881 85.5528 49.2973C85.496 49.341 85.44 49.3841 85.3756 49.4198C85.1388 49.5519 85.1059 49.7958 85.1213 49.9811C85.1278 50.0607 85.0423 50.1342 84.9423 50.2187C84.8536 50.292 84.7535 50.3814 84.6964 50.4895C84.6638 50.5512 84.5832 50.5991 84.5159 50.6384C84.4672 50.6669 84.4255 50.6908 84.4149 50.7142C84.4057 50.7341 84.4866 50.7486 84.5776 50.7648C84.6431 50.7765 84.7141 50.7892 84.7606 50.8055C84.8717 50.8444 84.9058 50.896 84.8709 50.9327C84.8547 50.9497 84.8236 50.9633 84.7926 50.9768C84.7564 50.9926 84.72 51.0082 84.7075 51.029C84.7054 51.0326 84.7035 51.0361 84.7017 51.0397C84.657 51.1273 84.7469 51.2107 84.8401 51.2967C84.9465 51.3952 85.0571 51.4956 84.9778 51.6139C84.9528 51.6509 84.8947 51.6909 84.8384 51.7296C84.7794 51.77 84.7225 51.8093 84.7077 51.8421C84.6479 51.975 84.8511 52.0954 85.0382 52.2065C85.1627 52.2802 85.2798 52.3493 85.3076 52.4149C85.3586 52.5345 85.6013 52.5959 85.7804 52.6401C85.8732 52.6631 85.9495 52.6818 85.9729 52.7026C85.9666 52.7223 85.9591 52.7423 85.9508 52.7619C85.9335 52.7801 85.9156 52.7989 85.9218 52.8159C85.9223 52.8172 85.9233 52.8185 85.9238 52.8198C85.8678 52.9292 85.7873 53.0377 85.7072 53.1464C85.5271 53.3888 85.3493 53.6307 85.4597 53.8761C85.4835 53.9285 85.5846 53.9812 85.6874 54.0342C85.8133 54.0992 85.9421 54.1652 85.935 54.2362C85.9181 54.4039 85.7591 54.5828 85.6025 54.7549C85.3671 55.0165 85.1375 55.2705 85.4063 55.4916C85.495 55.5639 85.641 55.632 85.7882 55.6997C85.8702 55.7376 85.9529 55.7766 86.0254 55.8157C85.8932 55.8116 85.7693 55.8113 85.6536 55.811C85.4153 55.8105 85.2113 55.81 85.0369 55.7758C84.6246 55.6957 84.0579 55.6089 83.6478 55.6348C83.5365 55.6419 83.4123 55.6436 83.2872 55.6451C82.9735 55.6488 82.6531 55.6527 82.5114 55.7461C82.4159 55.808 82.1974 55.972 82.4407 56.0608C82.4937 56.0802 82.5977 56.0894 82.7133 56.0995C82.921 56.1178 83.1669 56.1396 83.2273 56.229C83.2375 56.244 83.2468 56.261 83.2555 56.2783C83.2903 56.3474 83.3287 56.4242 83.496 56.447C83.6887 56.4732 83.9077 56.4576 84.163 56.4395C84.4955 56.4159 84.8904 56.3881 85.3698 56.4414C85.4646 56.452 85.4979 56.4777 85.5232 56.4971C85.541 56.5107 85.5552 56.5211 85.5836 56.5211C85.6162 56.5211 85.6838 56.5139 85.7693 56.5048C86.071 56.4726 86.598 56.416 86.6262 56.5645C86.6338 56.605 86.6105 56.6525 86.5894 56.6949C86.5584 56.7575 86.5328 56.8092 86.6195 56.8125C86.6524 56.8137 86.688 56.8141 86.7249 56.8141C86.7165 56.8631 86.708 56.9109 86.6996 56.9606C86.5991 57.0278 86.6116 57.1157 86.6276 57.2241C86.6315 57.2504 86.6352 57.2781 86.6379 57.3068C86.6206 57.4036 86.6036 57.5021 86.586 57.5986C86.5456 57.6763 86.4779 57.7599 86.3687 57.8516C86.1499 58.034 85.7832 58.1993 85.4248 58.3637C85.2738 58.4326 85.1238 58.5004 84.9873 58.5686C84.9691 58.5451 84.9478 58.5247 84.9192 58.5092C84.7231 58.4037 84.3457 58.3742 83.9983 58.3472C83.7672 58.3291 83.5493 58.312 83.4075 58.2734C83.1477 58.2038 82.8486 58.2257 82.6274 58.2415C82.5126 58.2498 82.4186 58.2564 82.3623 58.2481C82.3171 58.2414 82.2951 58.2223 82.2724 58.2025C82.2526 58.1852 82.2318 58.1673 82.1952 58.1569C81.7502 58.0303 81.4976 58.0852 81.13 58.166C80.9273 58.2105 80.6894 58.2625 80.365 58.296C80.0213 58.3277 79.9203 58.3269 79.7797 58.256C79.6122 58.3238 79.4448 58.3908 79.2774 58.4587C79.2896 58.4821 79.3968 58.4954 79.5746 58.5128C79.8922 58.5439 80.0142 58.685 80.1096 58.7936C80.1538 58.8452 80.1925 58.8898 80.2421 58.9136C80.5059 59.0399 80.8623 58.9824 81.176 58.9324C81.3486 58.9047 81.5084 58.8793 81.6325 58.8874C81.6856 58.8908 81.7376 58.8799 81.7907 58.8688C81.8317 58.8602 81.8734 58.8515 81.9166 58.8492C82.2305 58.8326 82.4674 58.9031 82.6874 58.9673C82.8133 59.0041 82.9341 59.0389 83.0605 59.0562C83.099 59.0613 83.1382 59.065 83.1763 59.0684C83.2318 59.0733 83.2848 59.0782 83.3304 59.0876C83.4343 59.109 83.5062 59.1597 83.5844 59.2148C83.6246 59.2431 83.6665 59.2725 83.7155 59.2997C83.7789 59.3349 83.9037 59.3424 84.0342 59.3511C84.1264 59.3571 84.2213 59.3635 84.3001 59.3798C84.4425 59.4094 84.4969 59.4803 84.5474 59.5453C84.5694 59.5737 84.5912 59.6009 84.6186 59.6234C84.6298 59.6325 84.6514 59.6361 84.6807 59.6356C84.7846 59.7428 84.8904 59.8447 84.9939 59.9416C85.5131 60.4343 85.9641 60.8611 85.6907 61.5535C85.6391 61.685 85.6582 61.8224 85.7125 61.9591C85.6376 62.3021 85.5605 62.6479 85.4806 63.0006C85.4542 63.1049 85.4277 63.2084 85.4012 63.3111C85.1228 63.4074 84.891 63.523 84.7118 63.6539C84.3751 63.8984 84.3152 64.138 84.2463 64.4187C84.1953 64.6261 84.1394 64.8581 83.9644 65.1369C83.6707 65.6066 83.4339 66.0928 83.3436 66.6266C83.2533 67.1578 83.2186 67.7652 83.2359 68.1903C83.245 68.4219 83.0264 68.6963 82.8246 68.9556C82.5405 69.3189 82.2894 69.6526 82.742 69.7638C82.8866 69.7993 83.1311 69.8171 83.3688 69.8347C83.5381 69.8472 83.7035 69.8594 83.8279 69.877C83.8056 69.978 83.7838 70.0789 83.7615 70.1807C83.5042 70.3947 83.2424 70.7099 83.6005 70.916C83.5776 71.0218 83.555 71.1277 83.5314 71.2305C83.4836 71.4542 83.4345 71.6743 83.3855 71.8969C83.3692 71.9696 83.3529 72.0431 83.3366 72.1169C83.3364 72.1176 83.3362 72.1183 83.336 72.1191C83.3031 72.2675 83.2702 72.4173 83.2366 72.5651C83.2223 72.6283 83.208 72.6916 83.1938 72.7549C83.1577 72.9164 83.1214 73.0778 83.0843 73.2383C83.0645 73.3228 83.045 73.4081 83.025 73.4939C82.9928 73.6335 82.9601 73.7726 82.9271 73.9126C82.8736 74.138 82.8189 74.3634 82.7631 74.5884C82.7538 74.6254 82.7122 74.6664 82.6448 74.7027C82.5772 74.739 82.4898 74.7676 82.3972 74.783C82.3047 74.7984 82.2124 74.7995 82.137 74.787C82.0619 74.7745 82.0104 74.7492 81.99 74.7173C81.8666 74.5229 81.7439 74.3279 81.6217 74.1329C81.5461 74.0117 81.4701 73.8916 81.395 73.7705C81.3488 73.6961 81.3032 73.6222 81.2574 73.5489C81.171 73.4095 81.0844 73.2688 80.9987 73.1277C80.9649 73.0723 80.9311 73.0171 80.8973 72.9618C80.8181 72.8322 80.7391 72.7001 80.6606 72.5688C80.6601 72.568 80.6597 72.5672 80.6592 72.5664C80.6205 72.5018 80.5819 72.4373 80.5436 72.3734C80.4266 72.1761 80.3107 71.98 80.1954 71.7784C80.134 71.6744 80.0729 71.5657 80.0116 71.4574C79.9774 71.3972 79.9432 71.337 79.9095 71.2779C79.8914 71.2456 79.8734 71.2127 79.8552 71.1796C79.4306 70.4219 79.0246 69.6544 78.6422 68.8632C78.2599 68.0739 77.9022 67.2694 77.5702 66.4517C77.2383 65.6356 76.9325 64.8076 76.651 63.9725C76.5921 63.7974 76.5342 63.6249 76.477 63.4474C75.0982 59.5284 73.907 55.3722 73.1286 51.2012C72.9565 50.3855 72.7843 49.5109 72.6254 48.6268C72.495 47.9037 72.3739 47.1601 72.264 46.4248C72.1539 45.6823 72.0549 44.9505 71.9683 44.1984C71.9415 43.974 71.9157 43.7321 71.891 43.496Z" fill="black"/>
</svg>
