<svg width="68" height="93" viewBox="0 0 68 93" fill="none" xmlns="http://www.w3.org/2000/svg">
<path d="M28.5644 78.2384C30.3403 78.2965 32.0616 78.4377 33.6149 78.4976C36.4438 78.5976 38.6634 78.4697 40.9752 76.6947C41.6195 76.1959 42.2578 75.5916 42.8917 74.9065C46.2564 71.2555 48.422 66.4788 50.2242 62.1073C50.3833 61.7224 50.5406 61.3379 50.6971 60.9543C52.6745 56.1653 53.4097 50.7672 53.1702 44.9161C53.1363 44.044 53.081 43.1577 53.0081 42.2633C52.4298 35.5171 51.0417 28.4099 49.1436 21.671C49.1102 21.5529 49.0766 21.4357 49.0427 21.3195C47.2636 15.1561 44.0972 9.68128 38.4852 6.9937C38.3011 6.89641 38.1141 6.80894 37.923 6.73136C36.7279 6.23412 35.2673 6.16192 33.5825 6.49843C31.3925 6.87935 29.1283 8.2673 26.9849 9.94536C26.7466 10.1311 26.5053 10.3247 26.2686 10.5178C24.5752 11.9054 22.9328 13.4223 21.3026 14.9656C20.0863 16.1187 18.8806 17.2898 17.6747 18.4641C17.507 18.627 17.2907 18.7369 17.07 18.7659C16.849 18.7948 16.6418 18.7419 16.4897 18.6135C16.3376 18.485 16.2503 18.2891 16.242 18.0663C16.2338 17.8439 16.3068 17.6125 16.4397 17.42C17.4068 16.0238 18.3773 14.6264 19.3707 13.2339C20.4762 11.6871 21.6008 10.1493 22.8182 8.62792C23.6189 8.97491 24.3465 9.11017 25.0851 8.76567C25.2405 8.69384 25.4104 8.5894 25.5676 8.46741C25.7936 8.29126 25.9967 8.07765 26.1193 7.84437C26.3051 7.48877 26.3588 7.11632 26.4155 6.76014C26.4741 6.38871 26.5406 6.03038 26.7702 5.73875C27.1614 5.24356 27.4221 4.60912 27.7543 3.9371C27.8745 3.69326 28.0054 3.44377 28.1546 3.19709C29.2447 2.37334 30.5024 1.62409 31.8845 1.08096C32.5686 0.806663 33.2942 0.559517 34.0669 0.365703C34.9504 0.297667 35.7865 0.303438 36.5059 0.27222C37.1513 0.243826 37.7625 0.118875 38.4094 1.43051e-06C38.7987 0.0341136 39.1883 0.08688 39.5742 0.15759C40.003 0.236272 40.4274 0.337274 40.8432 0.458047C42.5239 0.922569 44.1931 1.58188 45.7744 2.42849C47.08 3.5173 48.3446 4.74089 49.8371 6.37085C50.4803 7.07643 51.0104 7.85356 51.4753 8.60869C52.1663 9.72896 52.7174 10.8015 53.3753 11.6218C53.8148 12.1694 54.0912 12.8656 54.3384 13.5556C54.6747 14.4893 54.9519 15.3964 55.6018 16.0589C56.0078 16.4695 56.4304 16.8393 56.8164 17.1849C57.254 17.5834 57.6381 17.9333 57.9137 18.3173C58.0235 18.4644 58.114 18.6147 58.1792 18.7705C58.5934 19.7592 59.1444 20.54 59.6257 21.2361C60.2037 22.0723 60.6805 22.787 60.6645 23.5485C60.6624 23.665 60.6525 23.7982 60.6407 23.949C60.5799 24.7493 60.4731 26.0071 61.19 27.5599C61.4452 28.1137 61.8309 28.5942 62.2069 29.07C62.7536 29.7614 63.2805 30.4469 63.3393 31.3071C63.348 31.4357 63.2882 31.5871 63.2333 31.7245C63.1633 31.8991 63.1019 32.0513 63.2012 32.1087C63.4926 32.2772 63.8405 32.5744 64.2173 32.9016C64.4942 33.1419 64.7868 33.399 65.0845 33.632C65.7029 35.7812 66.2573 37.9687 66.7199 40.2217C66.9317 41.2541 67.1237 42.2993 67.2909 43.3663C67.2793 43.3885 67.2677 43.4107 67.2561 43.4329C66.9635 43.9989 66.7001 44.5638 66.5057 45.1466C66.2411 45.9417 66.2101 46.9389 66.1196 48.2326C66.0521 49.1835 65.9516 50.2967 65.682 51.5801C65.1908 53.954 64.9964 56.3922 64.9448 58.0101C64.9357 58.35 64.9251 58.6966 64.9104 59.0646C64.839 60.4623 64.7753 62.2413 63.9527 65.5074C63.7799 66.1767 63.5896 66.8185 63.3885 67.4295C62.6664 69.624 61.8145 71.4215 61.0914 72.8156C60.6192 73.7252 60.1995 74.4653 59.8923 75.0418C59.3673 76.0288 58.6629 77.2079 57.9013 78.3591C56.7161 80.1654 55.3707 81.8925 54.6246 82.9025C54.3601 83.2635 54.0849 83.6447 53.7763 84.055C53.504 84.4175 53.2043 84.8049 52.8679 85.2148C52.1518 86.0825 51.2535 87.0947 49.8999 88.2541C47.7877 90.0404 46.0596 90.8935 44.2612 91.5114C43.5227 91.7606 42.771 91.7262 42.0218 91.6544C40.9543 91.5507 39.9048 91.3783 38.6907 91.8017C38.4071 91.9001 38.1104 92.0384 37.7991 92.1773C37.2294 92.4324 36.598 92.6905 35.9354 92.7061C35.7012 92.712 35.4945 92.6509 35.29 92.5897C35.2013 92.5631 35.1133 92.5364 35.0247 92.5149C34.892 92.4816 34.7579 92.4604 34.6163 92.47C33.7441 92.5293 32.9173 92.5919 32.1879 92.6312C31.2487 92.6818 30.4701 92.6935 29.9932 92.6107C29.1417 92.4629 28.2161 92.5403 27.2738 92.5939C26.5548 92.635 25.8269 92.6627 25.1347 92.5698C23.1542 92.304 20.4448 92.1291 17.4881 91.7547C16.363 91.6082 15.4825 91.1527 14.3487 90.4949C14.2301 90.4258 14.1096 90.3546 13.9868 90.2812C13.3974 89.9235 12.7352 89.5172 11.9171 89.0368C11.3626 88.7101 10.7872 88.6225 10.2442 88.5209C9.74432 88.4273 9.26688 88.3189 8.88505 88.0047C8.54678 87.7258 8.46671 87.3318 8.39823 86.96C8.32416 86.5463 8.265 86.1624 7.86129 85.9424C7.64829 85.8259 7.32132 85.7646 6.92579 85.6709C6.76847 85.633 6.60356 85.5922 6.42667 85.5375C6.47098 85.498 6.50624 85.4589 6.53181 85.4285C6.71085 85.2118 6.42909 84.786 6.17396 84.3478C6.07002 84.1716 5.9726 83.9974 5.90446 83.8371C5.65471 83.2579 4.94029 82.399 4.424 81.6655C4.20478 81.3594 4.08921 81.0194 3.97558 80.6238C3.87462 80.2707 3.77436 79.8736 3.61601 79.3902C3.52619 79.1145 3.51666 78.8785 3.51323 78.6863C3.51071 78.5467 3.5111 78.4288 3.48632 78.3292C3.4806 78.3063 3.46938 78.2867 3.45387 78.2693C3.41629 78.236 3.34517 78.2188 3.26764 78.1998C3.19163 78.1811 3.10918 78.1604 3.04629 78.121C2.89613 78.0271 2.805 77.8649 2.79856 77.7349C2.79558 77.675 2.81075 77.6216 2.82597 77.5686C2.8437 77.5068 2.86188 77.4454 2.85135 77.3722C2.80208 77.0334 2.61966 76.7579 2.43032 76.4556C2.22476 76.1314 2.01242 75.7786 1.98188 75.3366C1.97202 75.1964 1.99309 75.04 2.01507 74.8906C2.03789 74.7337 2.06069 74.581 2.04791 74.4585C1.99707 73.9662 1.70579 73.5541 1.44369 73.1657C1.26871 72.9037 1.10845 72.6608 1.04059 72.4139C0.917034 71.962 0.644976 71.7553 0.442156 71.5933C0.337389 71.5102 0.251542 71.4409 0.21815 71.3631C0.214976 71.2877 0.213143 71.2108 0.212441 71.1353C0.221482 71.0647 0.231014 70.9918 0.217274 70.9259C0.216228 70.9209 0.2146 70.9161 0.213546 70.9111C0.221403 70.4815 0.263455 70.0706 0.31161 69.655C0.420763 68.7267 0.563757 67.8374 0.451891 66.8978C0.427871 66.697 0.328137 66.4909 0.228648 66.2776C0.106762 66.0171 -0.0153532 65.754 0.00157452 65.4823C0.0417624 64.8396 0.240747 64.2022 0.450502 63.5891C0.765924 62.6652 1.10526 61.7939 0.963926 60.9342C0.917068 60.6515 0.817046 60.3546 0.716417 60.0698C0.660665 59.9089 0.605337 59.7458 0.561325 59.5819C0.685887 59.6364 0.805126 59.6742 0.916342 59.7095C1.14564 59.7819 1.34162 59.8443 1.48888 60.0148C1.83696 60.4158 2.33765 60.8795 2.75042 60.897C2.86237 60.9022 2.98381 60.9297 3.106 60.958C3.41274 61.0291 3.72519 61.1001 3.91433 60.8233C4.04115 60.6386 4.34512 60.1719 4.16894 59.8025C4.1301 59.7237 4.03599 59.6625 3.93157 59.594C3.74414 59.4708 3.52158 59.3236 3.52671 59.0006C3.52762 58.9462 3.53048 58.8873 3.53446 58.8265C3.55056 58.5819 3.56967 58.3201 3.42848 58.1858C3.26545 58.0327 3.04602 58.0098 2.78976 57.9845C2.45633 57.9507 2.05867 57.9153 1.64803 57.5602C1.56696 57.4897 1.55675 57.3864 1.54921 57.3082C1.54389 57.2531 1.53932 57.2106 1.51255 57.2004C1.48176 57.1888 1.41191 57.1902 1.32349 57.1923C1.0117 57.201 0.46572 57.2101 0.567272 56.6695C0.595103 56.5235 0.659086 56.3631 0.717445 56.2192C0.803335 56.0073 0.876606 55.8299 0.798654 55.785C0.769069 55.7681 0.736189 55.7529 0.701768 55.7386C0.755245 55.569 0.809775 55.399 0.865366 55.2284C1.02317 55.0338 1.09977 54.7134 1.19561 54.331C1.21914 54.2372 1.24461 54.1383 1.27261 54.0356C1.39074 53.7022 1.51113 53.3726 1.63397 53.0475C1.75652 52.7981 1.91571 52.5303 2.11694 52.2766C2.52175 51.7637 3.05133 51.372 3.56601 51.0148C3.78359 50.8624 4.00068 50.7113 4.20666 50.555C4.19377 50.64 4.18633 50.7196 4.19252 50.7843C4.23485 51.2282 4.53737 51.5025 4.81576 51.7534C5.00109 51.9202 5.17651 52.0759 5.26051 52.262C5.41307 52.6078 5.70701 52.6762 5.92317 52.7287C6.03542 52.7558 6.12714 52.7787 6.16852 52.8309C6.20162 52.8729 6.20006 52.9433 6.19878 53.0157C6.19765 53.0789 6.1969 53.1441 6.2187 53.1931C6.48525 53.786 6.7742 53.7242 7.19008 53.646C7.4198 53.6023 7.68944 53.5526 8.01734 53.5992C8.3608 53.6597 8.44997 53.7096 8.50417 53.9818C8.72488 53.8572 8.94639 53.7334 9.16867 53.6104C9.18199 53.5376 9.09893 53.452 8.95737 53.3205C8.70395 53.0866 8.74716 52.6164 8.78827 52.2437C8.80553 52.0753 8.8216 51.9276 8.80486 51.8342C8.7168 51.3369 8.33834 51.3253 8.0025 51.3203C7.81796 51.3172 7.64712 51.3147 7.54728 51.2289C7.50455 51.1924 7.44576 51.1995 7.38591 51.2066C7.33964 51.2121 7.29253 51.2179 7.2517 51.2035C6.95525 51.0988 6.83 50.7683 6.71807 50.4562C6.6785 50.3463 6.64021 50.2389 6.59592 50.1452C6.56716 50.0897 6.53614 50.0392 6.50117 49.9962C6.47343 49.9621 6.44337 49.9319 6.41398 49.903C6.37107 49.8609 6.33036 49.8203 6.30144 49.7702C6.23557 49.656 6.23281 49.4717 6.23116 49.2674C6.23082 49.1613 6.22828 49.0562 6.21843 48.9501C6.20539 48.8133 6.10569 48.7267 6.00166 48.6359C5.92816 48.5716 5.85266 48.5049 5.80336 48.4168C5.71462 48.2563 5.75177 48.0204 5.78656 47.801C5.80179 47.7052 5.81622 47.612 5.82002 47.5298C5.82156 47.4963 5.80719 47.4743 5.78108 47.4606C5.82011 47.0896 5.85058 46.7358 5.88249 46.3854C6.03872 44.6438 6.1878 43.105 7.35111 41.1703C7.57079 40.8066 7.74193 40.3832 7.88503 39.9435C8.59446 38.6441 9.33858 37.3483 10.1283 36.0665C10.5148 35.9281 10.8902 35.714 11.2537 35.4201C11.936 34.87 12.3932 34.1799 12.9584 33.3737C13.3775 32.7769 13.8549 32.1182 14.5334 31.4254C15.674 30.2663 16.8451 29.0887 18.1714 27.7637C18.9963 26.9398 19.9424 26.0727 20.8723 25.3367C21.3938 24.9257 21.8535 24.5623 22.2755 24.2215C22.8676 23.7442 23.65 23.4182 24.3719 23.1274C25.395 22.7118 26.3029 22.3631 26.4909 21.6628C26.5495 21.44 26.5397 21.1427 26.5303 20.8541C26.5229 20.6492 26.5194 20.4464 26.5413 20.2762C26.8197 20.1053 27.0908 19.9413 27.3655 19.7769C27.999 19.6507 28.8756 19.3702 29.3737 18.6048C29.6652 18.4389 29.9471 18.2817 30.2351 18.1229C30.8406 17.7885 31.4533 17.4597 32.069 17.1408C32.2627 17.042 32.4779 16.9299 32.6796 16.8286C32.6816 16.8276 32.6835 16.8267 32.6855 16.8258C33.0933 16.6205 33.5076 16.4165 33.9295 16.2145C34.1078 16.1294 34.2782 16.0504 34.4623 15.964C34.9139 15.7546 35.3683 15.5514 35.8326 15.3533C36.0643 15.2568 36.3258 15.1456 36.5647 15.0514C36.9755 14.8857 37.3681 14.7388 37.792 14.5893C38.4619 14.3617 39.1225 14.1414 39.9189 14.0151C40.0499 13.9963 40.2063 14.0138 40.318 14.0737C40.4523 14.1306 40.5156 14.225 40.5145 14.3182C40.5127 14.4123 40.4619 14.5016 40.3797 14.5847C40.3129 14.6652 40.2156 14.7321 40.1156 14.7738C39.4959 15.0385 38.9311 15.4059 38.3812 15.7748C38.0295 16.0114 37.7075 16.2458 37.3678 16.4966C37.1723 16.6435 36.955 16.8055 36.7662 16.9541C36.384 17.2493 36.012 17.5483 35.6428 17.8518C35.4914 17.9752 35.3538 18.0911 35.2083 18.2131C34.8631 18.5017 34.5241 18.7918 34.1931 19.0813C34.1911 19.083 34.1891 19.0848 34.1871 19.0865C34.0246 19.2287 33.8499 19.3805 33.6952 19.5196C33.1954 19.9628 32.7 20.4128 32.2106 20.8663C31.9477 21.1103 31.6931 21.3495 31.4251 21.6016C31.2736 21.7437 31.1353 21.8769 30.9927 22.0136C30.915 22.0877 30.8356 22.1632 30.7553 22.2397C28.944 23.9823 27.1827 25.7814 25.4608 27.6064C25.0014 28.0918 24.5651 28.5617 24.1071 29.0543C23.0212 30.2647 22.0705 31.6574 21.2212 33.1316C20.0658 35.1393 19.0893 37.301 18.2073 39.533C16.5236 43.8006 15.2295 48.2925 13.8408 52.9646C11.5444 60.7292 11.2994 68.3114 14.1356 74.4153C14.3609 74.6492 14.8243 75.127 16.2364 75.806C16.9705 76.1539 17.8925 76.502 18.9065 76.8106C19.5471 77.0026 20.2644 77.1833 20.9977 77.3399C22.8207 77.7293 24.7624 77.9925 26.7296 78.1396C27.328 78.1834 27.9407 78.2174 28.5644 78.2384Z" fill="black"/>
</svg>
