<svg width="49" height="44" viewBox="0 0 49 44" fill="none" xmlns="http://www.w3.org/2000/svg">
<path d="M27.3803 27.8626C28.2468 27.49 29.1552 27.4754 29.9592 27.4533C30.7453 27.4549 31.4838 27.3354 31.4637 27.3358C31.4548 27.3469 31.3864 27.3935 31.2674 27.53C31.5775 26.8268 31.7025 26.0171 31.8195 25.1114C31.9943 24.1165 31.869 23.4655 32.8146 21.2136C32.6555 21.4893 32.6759 21.509 32.738 21.4116C33.0782 20.8546 33.4626 18.7737 33.8189 16.8077C34.0004 15.9876 34.1451 15.218 34.2456 14.5824C34.3152 14.1403 34.3672 13.7822 34.4069 13.4789C34.4275 13.1178 34.5352 13.0872 34.1567 11.8027C34.4779 12.4616 34.9331 12.8344 35.0669 12.8594C35.2197 12.9014 35.1683 12.7507 35.0394 12.5782C34.7684 12.2168 34.231 11.7389 33.6679 11.2689C33.6539 11.2546 33.6393 11.24 33.6241 11.2251C31.9912 9.78709 29.3205 8.22497 26.9534 6.92081C26.762 6.81526 26.5742 6.71314 26.3828 6.61299C24.808 5.7893 23.2706 5.16266 21.4811 4.9293C21.3269 4.90856 21.1724 4.89022 21.0172 4.87449C20.1604 4.78685 19.2797 4.78524 18.3681 4.86508C17.6884 4.9235 16.9967 5.02374 16.3015 5.14763C16.2049 5.16443 16.0826 5.11522 15.9596 5.00567C15.8363 4.89601 15.7216 4.73647 15.6401 4.5549C15.5585 4.37325 15.5156 4.18091 15.5185 4.01545C15.5213 3.85055 15.5715 3.72623 15.6538 3.66575C16.2533 3.22855 16.877 2.80316 17.545 2.40505C18.2855 1.96337 19.0841 1.55775 19.9292 1.21969C20.2187 1.99666 20.5013 2.57376 20.8617 2.79689C20.9725 2.86537 21.1042 2.90217 21.2262 2.88408C21.3067 2.87209 21.3836 2.83579 21.4471 2.7679C21.5905 2.61496 21.6886 2.3616 21.7873 2.12064C21.8906 1.86873 21.9953 1.63008 22.1478 1.53959C22.406 1.38616 22.65 1.0306 22.9292 0.663713C23.0313 0.530223 23.136 0.395124 23.2479 0.268198C24.1428 0.11093 25.0504 0.028054 25.9431 0C26.2656 0.13746 26.5529 0.26072 26.8122 0.276909C27.0458 0.291675 27.2851 0.165505 27.5392 0.00179052C27.6734 0.0058074 27.8101 0.0113986 27.9432 0.0171106C28.2206 0.0300691 28.4913 0.0456429 28.7654 0.0657263C29.3256 0.101491 29.8823 0.147229 30.4341 0.199729C30.9698 0.586808 31.5218 0.979679 32.2875 1.33308C32.6175 1.48559 32.9167 1.71318 33.202 1.934C33.624 2.26034 34.0136 2.57167 34.4486 2.61269C34.74 2.64029 34.9765 2.85725 35.2088 3.07588C35.5229 3.3701 35.8279 3.667 36.2985 3.53347C36.5945 3.44951 36.8983 3.32553 37.1899 3.21859C37.4702 3.11506 37.7412 3.0285 37.973 3.00505C38.1068 2.98099 38.2199 2.98021 38.3106 3.01865C38.7438 3.20239 39.234 3.17729 39.6887 3.17627C40.2364 3.17564 40.7326 3.21048 40.9445 3.64816C40.9767 3.71463 41.0064 3.79461 41.0448 3.88954C41.2524 4.42253 41.4872 5.04909 42.7314 6.03858C43.1771 6.41509 43.7597 6.82517 44.2865 7.38936C44.4177 7.52932 44.5444 7.67687 44.6628 7.82993C44.9373 7.78546 45.2252 7.92424 45.2428 8.29106C45.2452 8.3558 45.1839 8.45487 45.1278 8.54552C45.0558 8.65938 44.9937 8.76203 45.087 8.77235C45.3591 8.79822 45.6874 8.90061 46.046 9.03388C46.3101 9.1335 46.5902 9.24919 46.8752 9.35448C47.4485 10.6995 47.8131 12.0746 48.0495 13.304C48.1589 13.8728 48.244 14.4268 48.3121 14.9627C47.9526 15.2439 47.6256 15.5238 47.3751 15.8C47.0478 16.1654 46.9409 16.6207 46.786 17.1903C46.7606 17.2833 46.7339 17.3804 46.7046 17.4816C46.6054 17.7748 46.4809 18.1067 46.2819 18.4825C45.8089 19.3754 45.8357 20.364 45.9977 21.0542C46.0323 21.1996 46.0692 21.3481 46.1084 21.5091C46.2402 22.1442 46.4858 22.8386 46.3604 24.7059C46.2849 25.5641 46.0902 26.4883 45.6704 27.4876C45.7405 27.4824 45.6129 27.8806 45.5268 28.1962C45.4348 28.5198 45.3415 28.8357 45.2911 29.0908C45.2054 29.5266 45.0574 30.0934 44.8814 30.6835C44.6092 31.6078 44.2546 32.5813 44.1006 33.1697C44.0468 33.379 43.9956 33.6038 43.9342 33.849C43.8481 34.196 43.7437 34.5844 43.5873 35.0227C43.2274 35.7857 42.7649 36.5336 42.2026 37.2326C40.9877 38.7048 40.1484 39.1531 39.2755 39.5362C38.9208 39.6834 38.4835 39.5939 38.0491 39.4834C37.4327 39.3256 36.8324 39.1228 36.4045 39.5098C36.3044 39.6002 36.2136 39.7306 36.1206 39.8649C35.947 40.113 35.7558 40.3783 35.4655 40.4385C35.3646 40.4593 35.2489 40.4194 35.1361 40.3797C35.0128 40.3355 34.8942 40.291 34.7978 40.3282C34.4379 40.4669 34.1093 40.6264 33.8142 40.7647C33.4379 40.9414 33.121 41.081 32.8969 41.0845C32.4971 41.0907 32.1532 41.3355 31.8011 41.5782C31.5328 41.7634 31.2595 41.9478 30.9641 42.0198C30.9293 42.0283 30.894 42.0373 30.8583 42.047C30.0639 42.2623 28.7699 42.8529 27.3955 43.4142C26.86 43.6366 26.3743 43.4974 25.8072 43.2994C25.4535 43.1758 25.0677 43.0278 24.6177 42.9237C24.361 42.8648 24.1633 43.0464 23.9783 43.2135C23.8061 43.3675 23.6486 43.5089 23.4817 43.4376C23.3351 43.3746 23.232 43.0876 23.1412 42.8148C23.0395 42.5112 22.9388 42.2256 22.7963 42.285C22.7316 42.3116 22.6561 42.4195 22.5669 42.5566C22.552 42.5827 22.5366 42.6098 22.5208 42.6377C22.4816 42.7066 22.4395 42.7795 22.3944 42.8517C22.3957 42.7929 22.3952 42.7403 22.3945 42.7006C22.3898 42.4195 22.2469 42.2742 22.1101 42.1317C22.0549 42.0749 21.9994 42.0188 21.9531 41.9544C21.7857 41.7174 21.4745 41.6842 21.2336 41.6996C21.1333 41.7061 21.0404 41.6205 20.9307 41.5206C20.8324 41.432 20.726 41.3318 20.5868 41.2747C20.5073 41.2422 20.4464 41.1616 20.3958 41.0943C20.3592 41.0457 20.328 41.004 20.2994 40.9934C20.2747 40.9842 20.2559 41.0651 20.2348 41.1562C20.2195 41.2217 20.203 41.2927 20.182 41.3392C20.1314 41.4503 20.0664 41.4845 20.0196 41.4496C19.998 41.4335 19.9807 41.4024 19.9634 41.3714C19.9434 41.3353 19.9234 41.2989 19.8964 41.2865C19.7716 41.2293 19.6533 41.3226 19.5292 41.4194C19.3922 41.5257 19.2501 41.6361 19.0888 41.556C19.0381 41.5308 18.9832 41.4724 18.9312 41.4158C18.8765 41.3565 18.8233 41.2992 18.7782 41.2841C18.5946 41.2229 18.4239 41.4245 18.2648 41.6097C18.1587 41.7329 18.0591 41.8486 17.9658 41.8751C17.7949 41.9234 17.7022 42.1644 17.6335 42.3423C17.598 42.4345 17.5688 42.5102 17.5384 42.533C17.5107 42.5262 17.4826 42.518 17.455 42.5092C17.4298 42.4913 17.4037 42.4729 17.3791 42.4786C17.3773 42.479 17.3754 42.48 17.3736 42.4805C17.2195 42.4211 17.0682 42.3369 16.9177 42.2526C16.5797 42.0632 16.2476 41.8742 15.8871 41.97C15.8093 41.9906 15.7286 42.0884 15.6454 42.1876C15.5434 42.3091 15.4384 42.4331 15.3352 42.421C15.0885 42.392 14.8439 42.2192 14.6025 42.0474C14.2397 41.789 13.8886 41.5334 13.5331 41.7736C13.4148 41.8528 13.2956 41.989 13.1745 42.1259C13.1062 42.2021 13.0371 42.2788 12.9681 42.3451C12.991 42.2145 13.007 42.0914 13.0218 41.9766C13.0524 41.74 13.0786 41.5376 13.1507 41.369C13.3222 40.9707 13.5116 40.4181 13.5201 40.007C13.5224 39.8954 13.534 39.7717 13.5459 39.6472C13.5758 39.3348 13.6053 39.0158 13.4914 38.8633C13.4155 38.7606 13.2154 38.5223 13.0625 38.7512C13.0291 38.801 13.0029 38.9029 12.9735 39.0161C12.9207 39.2195 12.8571 39.4604 12.7196 39.5063C12.6964 39.514 12.6714 39.5206 12.6457 39.5265C12.5437 39.5501 12.4249 39.575 12.3674 39.7367C12.3006 39.9229 12.2903 40.1422 12.2791 40.3981C12.264 40.7313 12.2487 41.1274 12.0922 41.5917C12.0611 41.6835 12.0157 41.7115 11.9814 41.7328C11.9566 41.7477 11.9376 41.7597 11.9331 41.7877C11.9279 41.82 11.9285 41.8882 11.9294 41.9745C11.9326 42.2788 11.9412 42.8116 11.6913 42.8087C11.6239 42.8077 11.5501 42.7745 11.4842 42.7444C11.3856 42.6998 11.3024 42.6622 11.281 42.7468C11.2729 42.7789 11.2657 42.8139 11.2589 42.8502C11.1772 42.8302 11.0968 42.81 11.0143 42.7891C10.9176 42.673 10.7675 42.6625 10.5715 42.6461C10.5234 42.642 10.4728 42.6372 10.4203 42.6309C10.253 42.5843 10.0766 42.5346 9.90137 42.4822C9.87359 42.4682 9.84565 42.4529 9.81757 42.4362C9.73546 42.3767 9.65331 42.2976 9.57316 42.1918C9.37112 41.9249 9.22587 41.5176 9.08454 41.1185C9.02511 40.9504 8.96781 40.7837 8.90831 40.6299C8.94517 40.6196 8.97945 40.6056 9.00823 40.5828C9.20538 40.4264 9.34144 40.0697 9.46539 39.7412C9.54698 39.5225 9.62271 39.316 9.70858 39.1897C9.86587 38.9582 9.90938 38.6613 9.94171 38.4418C9.95849 38.328 9.97251 38.2348 9.99726 38.1825C10.0172 38.1406 10.0482 38.1249 10.0803 38.1086C10.1083 38.0944 10.1373 38.0795 10.1602 38.0469C10.4324 37.6505 10.4181 37.3889 10.4025 37.0091C10.3939 36.7997 10.3814 36.5533 10.416 36.2286C10.4574 35.8857 10.4826 35.7878 10.6077 35.6712C10.5601 35.4893 10.514 35.3076 10.4695 35.1261C10.4377 35.1315 10.3958 35.2319 10.3316 35.3998C10.2178 35.6999 10.0041 35.7769 9.84441 35.8376C9.76762 35.8652 9.70095 35.8893 9.65821 35.9302C9.43138 36.1478 9.4119 36.5096 9.396 36.8283C9.38725 37.0037 9.37955 37.1661 9.33712 37.2837C9.31901 37.334 9.31992 37.3877 9.32081 37.4425C9.32149 37.4848 9.32232 37.5279 9.31427 37.5704C9.25523 37.8791 9.10311 38.0869 8.95787 38.2785C8.87389 38.3881 8.79388 38.4932 8.73764 38.6097C8.72051 38.6452 8.70515 38.6818 8.69048 38.7174C8.66906 38.7694 8.64839 38.8189 8.62358 38.8599C8.56678 38.9531 8.48058 39.006 8.38075 39.0622C8.33022 39.0911 8.27764 39.1213 8.22613 39.1589C8.15942 39.2077 8.11402 39.3251 8.06614 39.4476C8.03222 39.5342 7.99761 39.6234 7.95165 39.6931C7.86904 39.8193 7.75207 39.8457 7.64511 39.87C7.59905 39.8807 7.55208 39.891 7.51061 39.9086C7.49376 39.9157 7.48207 39.935 7.47402 39.9632C7.28912 40.0219 7.10793 40.0825 6.92928 40.1404C6.00981 40.4083 5.23086 40.703 3.83832 39.7848C3.56413 39.5983 3.21749 39.4471 2.763 39.2267C2.12307 38.7137 0.89602 37.9689 0.116532 35.7762C0.0875952 35.5187 0.0448842 35.2244 -2.38419e-07 34.9083C0.224436 34.6899 0.396193 34.4561 0.511163 34.2053C0.728025 33.7363 0.683808 33.3327 0.649758 32.8351C0.625437 32.4686 0.607039 32.0485 0.72409 31.5448C0.92188 30.6997 1.13721 29.8743 1.30646 28.9973C1.47082 28.1204 1.71981 27.1678 1.90264 26.5207C2.00153 26.161 2.342 25.8558 2.66546 25.5906C2.79378 25.4871 2.91975 25.388 3.02725 25.2904C3.29478 25.056 3.44027 24.835 3.21115 24.5591C3.10882 24.4363 2.91138 24.2797 2.72107 24.1247C2.58549 24.0144 2.45402 23.9049 2.36132 23.8101C2.44892 23.6849 2.53758 23.5603 2.62828 23.4371C2.99445 23.2978 3.43029 23.0601 3.30994 22.5673C3.4114 22.4456 3.51446 22.3251 3.61726 22.2108C3.83834 21.96 4.06461 21.7221 4.30055 21.4897C4.378 21.4138 4.45661 21.3383 4.53659 21.2633C4.53739 21.2626 4.5382 21.2619 4.539 21.2613C4.69984 21.1105 4.8655 20.9625 5.03317 20.8219C5.10472 20.7619 5.17732 20.7022 5.25023 20.6438C5.43577 20.4949 5.6266 20.3507 5.8198 20.2165C5.92199 20.1458 6.02621 20.0755 6.13169 20.0079C6.30321 19.8978 6.47866 19.7926 6.65651 19.6947C6.94402 19.5363 7.23818 19.3965 7.53767 19.2773C7.5868 19.2578 7.65454 19.266 7.72633 19.3024C7.79825 19.3389 7.86827 19.4002 7.92446 19.4752C7.98068 19.5503 8.0201 19.6347 8.03791 19.7121C8.05552 19.7892 8.04964 19.8527 8.0233 19.8924C7.86122 20.1348 7.71769 20.3825 7.58896 20.6343C7.50937 20.7901 7.43595 20.9481 7.36778 21.1058C7.32595 21.2029 7.28566 21.3001 7.24834 21.3969C7.17732 21.58 7.11111 21.7668 7.05117 21.953C7.02777 22.0261 7.00504 22.0998 6.98351 22.1732C6.9328 22.3455 6.88504 22.5205 6.84224 22.6948C6.84197 22.6959 6.84171 22.6969 6.84144 22.698C6.82035 22.7838 6.80061 22.8695 6.78193 22.9547C6.7236 23.2166 6.67492 23.4771 6.63088 23.7429C6.60978 23.881 6.58756 24.0239 6.56844 24.1663C6.55777 24.2455 6.54797 24.3247 6.53911 24.4026C6.53396 24.4451 6.52865 24.488 6.52351 24.5311C6.45548 25.1464 6.42163 25.7596 6.41173 26.3712C6.41023 26.7335 6.42503 27.0856 6.45647 27.4266C6.53851 28.3215 6.74238 29.1212 7.04527 29.8206C7.34962 30.5297 7.73787 31.124 8.23353 31.8694C8.39742 32.1174 8.57543 32.3867 8.76869 32.7044C8.40692 31.5964 7.8906 31.2528 7.7952 31.0977C7.66324 30.9429 7.71792 30.9217 7.82082 30.8984C8.04021 30.8645 8.45879 30.8768 8.90017 30.8742C9.79662 30.8739 10.8333 30.8579 11.8808 30.8352C14.6606 30.5523 18.5505 29.8571 22.3164 29.3262C22.5854 29.2854 22.8463 29.2439 23.0984 29.2013C23.912 29.065 24.6487 28.9136 25.1488 28.7511C25.6444 28.5915 25.9532 28.4421 26.6607 28.1614C26.6858 28.1513 26.7108 28.1412 26.7357 28.1312C26.9496 28.0439 27.1637 27.955 27.3803 27.8626Z" fill="black"/>
</svg>
