<svg width="131" height="207" viewBox="0 0 131 207" fill="none" xmlns="http://www.w3.org/2000/svg">
<path d="M28.5175 47.0993C30.7004 48.6487 32.4056 50.8064 34.5523 52.8882C35.4141 53.7062 36.3078 54.5404 37.2708 55.3973C39.2415 57.1138 41.4344 59.3119 43.0412 61.4016C46.3124 66.7996 46.1882 69.5835 46.4458 72.7169C46.4776 74.3117 46.454 75.8223 46.419 77.2912C46.5153 81.1136 44.9731 85.1279 43.8382 87.2786C43.1089 88.8628 42.3294 89.9474 41.5811 90.9247C39.5381 93.5084 37.5749 95.3184 35.6065 97.1656C33.7548 98.9145 31.7894 100.492 29.7682 101.909C28.093 103.086 26.3272 104.17 24.7451 105.1C23.6925 105.697 23.0153 106.173 21.4184 107.295C19.9351 108.18 18.4869 108.993 17.0182 109.804C15.4608 110.662 13.8986 111.498 12.3252 112.321C12.3022 112.342 12.2216 112.389 12.1973 112.408C10.753 113.043 9.31173 113.666 7.88069 114.293C6.55079 114.878 5.22793 115.459 3.95309 116.089C3.50491 116.312 3.06686 116.539 2.65607 116.784L2.66958 116.772C2.16697 117.092 1.74418 117.365 1.31359 117.73C1.20138 117.823 1.03986 117.869 0.857451 117.854C0.67462 117.84 0.487057 117.767 0.331677 117.642C0.176869 117.517 0.0644745 117.348 0.0204591 117.166C-0.0238108 116.984 0.00482213 116.804 0.0959321 116.666C0.427175 116.147 0.906209 115.588 1.25202 115.18C1.25777 115.176 1.2729 115.161 1.27876 115.157C1.6815 114.718 2.07486 114.335 2.47591 113.956C3.40443 113.083 4.3385 112.27 5.27179 111.463C5.87307 112.049 6.4257 112.431 6.98565 112.401C7.27198 112.385 7.61075 112.24 7.7558 111.969C7.88807 111.724 7.91052 111.423 7.9337 111.135C7.95604 110.835 7.9803 110.548 8.12221 110.363C8.36572 110.047 8.48007 109.566 8.60208 109.059C8.64536 108.875 8.69083 108.687 8.7427 108.503C8.95821 108.32 9.17391 108.136 9.39068 107.952L9.22742 108.062C9.85326 107.453 10.4707 106.845 11.0909 106.232C11.4937 106.042 11.8648 105.854 12.1169 105.624C12.3475 105.414 12.4689 105.107 12.563 104.768C12.6905 104.641 12.813 104.517 12.9401 104.39C13.7482 103.578 14.5539 102.763 15.3469 101.948C15.7699 101.761 16.2155 101.553 16.6475 101.328C16.8523 101.28 17.2911 100.97 17.7733 100.585C18.2092 100.237 18.7237 99.9341 19.222 99.6607C19.5013 99.5073 19.7772 99.3607 20.0367 99.2122C20.4335 98.9913 20.7758 98.7629 21.0227 98.4735C21.2887 98.1619 21.686 97.9921 22.0798 97.8208C22.6087 97.5907 23.1319 97.3573 23.3073 96.7963C23.4188 96.4426 23.4754 96.0765 23.5257 95.7368C23.6047 95.1972 23.6661 94.7263 23.8888 94.4952C24.3114 94.0573 24.5144 93.5102 24.6825 93.0308C24.8858 92.4528 25.0389 91.9728 25.4951 91.8598C25.5639 91.843 25.6478 91.8283 25.7429 91.8116C26.2417 91.7251 27.0566 91.5662 27.492 90.6755C27.5537 90.5481 27.5946 90.4062 27.6226 90.2566C27.6753 90.0232 27.6957 89.7794 27.7191 89.5341C27.7725 88.9385 27.8176 88.3656 28.2522 88.083C28.3163 88.0417 28.4394 88.0418 28.5503 88.0434C28.6917 88.0452 28.8147 88.0469 28.7803 87.9586C28.6814 87.6969 28.6092 87.3627 28.53 86.9979C28.47 86.7323 28.407 86.4489 28.3216 86.1742C28.9901 85.1384 29.6075 84.1213 30.0275 83.2634C30.2186 82.8732 30.3636 82.52 30.4321 82.269C30.8172 82.3226 31.1657 82.3561 31.4291 82.3705C31.4339 82.3708 31.4387 82.371 31.4435 82.3713C31.8913 82.0974 32.1768 81.6458 32.4903 81.1423C32.7239 80.7654 32.9688 80.3714 33.3001 79.9714C33.9062 79.246 33.8661 78.4109 33.6208 77.8444C33.615 77.8242 33.6092 77.8042 33.6034 77.7846C33.5471 77.5954 33.4877 77.408 33.4229 77.2061C33.1757 76.449 32.8763 75.4835 32.4712 73.7854C32.0864 72.1844 31.8674 70.949 31.673 70.1655C31.5748 69.7645 31.4871 69.4801 31.3964 69.2986C31.248 68.9909 31.0515 68.6893 31.0315 68.8109C31.0295 68.8344 31.0369 68.8746 31.0575 68.9312C30.5423 68.2778 30.0793 67.8111 29.7437 67.5846C29.6079 67.4925 29.4586 67.4063 29.296 67.3165C28.8425 67.0666 28.3039 66.801 27.5584 66.3033C26.7667 65.7797 26.3037 65.3173 25.8561 64.7445C25.8531 64.7407 25.8501 64.7369 25.8472 64.7331C25.6395 64.4753 25.5841 64.0557 25.522 63.6195C25.4332 62.9907 25.3336 62.3308 24.7296 62.0685C24.59 62.0083 24.4147 61.9728 24.2339 61.9378C23.8989 61.8712 23.5373 61.7998 23.297 61.5402C23.2137 61.45 23.1783 61.3193 23.1426 61.1905C23.1027 61.0483 23.0663 60.9111 22.9657 60.8311C22.592 60.5336 22.2041 60.2728 21.8582 60.0385C21.4124 59.7366 21.0391 59.4801 20.8584 59.2504C20.5377 58.8418 20.0291 58.6008 19.5111 58.3497C19.1158 58.1582 18.7143 57.9607 18.393 57.6822C17.8753 57.2332 17.1908 56.7541 16.4057 56.2536C15.8133 55.879 15.1654 55.4997 14.4932 55.1263C13.9102 54.8018 13.6243 54.2869 13.2672 53.6249C13.0454 53.213 12.7965 52.7435 12.4298 52.2195C12.2214 51.9219 11.8858 51.8391 11.5721 51.7575C11.2844 51.6834 11.0157 51.6107 10.8921 51.3814C10.7825 51.1784 10.8885 50.875 10.9894 50.5869C11.1026 50.2671 11.2095 49.9664 11.0087 49.8428C10.9019 49.7772 10.6925 49.7707 10.4452 49.7633C10.3464 49.7594 10.2416 49.7548 10.1343 49.7464C10.1795 49.7085 10.218 49.6728 10.2467 49.6452C10.4495 49.4505 10.3899 49.1756 10.335 48.9069C10.3128 48.7994 10.2895 48.6913 10.285 48.5911C10.2668 48.2215 9.93331 47.8026 9.64628 47.4953C9.5246 47.3652 9.48276 47.1853 9.4359 46.9753C9.39341 46.7877 9.34762 46.5771 9.23417 46.3477C9.17132 46.2191 9.16217 46.0789 9.15898 45.9668C9.15815 45.9424 9.15743 45.9192 9.15622 45.8974C9.16032 45.8545 9.16057 45.8181 9.14975 45.7924C9.13635 45.7607 9.05686 45.7907 8.96749 45.8246C8.90315 45.8491 8.83344 45.8755 8.77933 45.8823C8.65011 45.8986 8.56718 45.8502 8.55365 45.7782C8.54744 45.7449 8.55659 45.7068 8.56567 45.6689C8.57623 45.6246 8.58699 45.5802 8.57264 45.5429C8.50644 45.3715 8.32424 45.2972 8.13174 45.2163C7.92017 45.1275 7.69557 45.03 7.59565 44.7835C7.56424 44.7059 7.55442 44.6024 7.5447 44.5014C7.53457 44.3958 7.52406 44.2927 7.48899 44.226C7.34663 43.9551 7.00754 43.8552 6.68951 43.7502C6.47814 43.6805 6.27671 43.609 6.15265 43.4895C5.92651 43.2713 5.62928 43.2721 5.40882 43.2714C5.29453 43.2708 5.20036 43.2695 5.14758 43.2349C5.12184 43.1871 5.09647 43.1373 5.07283 43.0884C5.05906 43.0378 5.0449 42.9854 5.0127 42.9491C5.01024 42.9463 5.00734 42.9439 5.0049 42.9412C4.88008 42.6574 4.78174 42.3582 4.68917 42.0556C4.48057 41.374 4.3062 40.6892 3.89252 40.067C3.80369 39.9335 3.64453 39.8271 3.48279 39.7128C3.28637 39.5767 3.08478 39.427 3.0111 39.2197C2.83703 38.7302 2.815 38.1717 2.82473 37.6476C2.83582 36.8487 2.9103 36.1139 2.53753 35.5228C2.41468 35.3286 2.23942 35.1478 2.0648 34.9572C1.96745 34.8504 1.87115 34.7488 1.78508 34.6391C1.91921 34.6469 2.04378 34.6438 2.15994 34.6407C2.39938 34.6341 2.60411 34.6289 2.79069 34.7123C3.23219 34.9152 3.83574 35.1019 4.23524 35.0006C4.34379 34.9738 4.46734 34.9597 4.5918 34.9458C4.90432 34.9113 5.22172 34.873 5.33112 34.6416C5.40358 34.4802 5.57636 34.1036 5.31244 33.9009C5.25471 33.8564 5.14842 33.8379 5.03032 33.8168C4.81829 33.7787 4.56601 33.7317 4.48869 33.5112C4.47574 33.4741 4.46351 33.4334 4.4519 33.3911C4.40548 33.2231 4.35788 33.0414 4.18754 32.9792C3.99133 32.9087 3.77339 32.9381 3.51926 32.9746C3.1884 33.021 2.79516 33.0836 2.30817 32.9163C2.21195 32.8834 2.17582 32.8088 2.14891 32.7571C2.1299 32.7198 2.11482 32.6912 2.08635 32.6895C2.05365 32.6876 1.98643 32.7027 1.90142 32.7222C1.60198 32.7898 1.0763 32.9182 1.03814 32.5007C1.02827 32.3877 1.04994 32.2569 1.07042 32.1396C1.1006 31.9702 1.12743 31.8333 1.04075 31.8148C1.00787 31.808 0.97226 31.8033 0.935361 31.7994C0.944899 31.6654 0.955457 31.5308 0.967031 31.3957C0.977158 31.379 0.986257 31.3617 0.994433 31.3437C1.07038 31.2107 1.06426 31.0317 1.05738 30.8107C1.05553 30.7513 1.05402 30.6885 1.0537 30.6232C1.0789 30.4078 1.10482 30.1904 1.13234 29.9714C1.18066 29.7984 1.25742 29.6141 1.37736 29.4201C1.61775 29.0315 2.00706 28.6994 2.39076 28.3802C2.55246 28.2457 2.71354 28.1132 2.86209 27.9786C2.87559 28.0357 2.89265 28.0873 2.91813 28.1277C3.09264 28.4041 3.46274 28.5282 3.8031 28.6412C4.02957 28.7162 4.24322 28.786 4.37845 28.8898C4.62635 29.0796 4.92695 29.0738 5.14894 29.0709C5.26413 29.0693 5.35846 29.0684 5.41334 29.094C5.4573 29.1147 5.47649 29.1587 5.49647 29.204C5.51387 29.2436 5.53216 29.2843 5.56725 29.3112C5.99406 29.6374 6.25242 29.5509 6.62784 29.4328C6.83497 29.3674 7.07822 29.2921 7.40518 29.267C7.75108 29.2483 7.85115 29.2643 7.98222 29.4245C8.15708 29.3106 8.33234 29.1977 8.50799 29.0865C8.49912 29.0392 8.39449 28.9988 8.22032 28.9399C7.90912 28.8348 7.80939 28.5346 7.73449 28.2985C7.69968 28.1893 7.66971 28.094 7.62516 28.038C7.38867 27.7402 7.02552 27.7917 6.70507 27.842C6.52881 27.8694 6.36569 27.8954 6.24453 27.857C6.19271 27.8406 6.13905 27.8546 6.08435 27.8688C6.04206 27.8798 5.99906 27.8911 5.95585 27.8886C5.64205 27.8701 5.42183 27.6791 5.2193 27.4975C5.10324 27.3936 4.9924 27.2932 4.87189 27.2321C4.83516 27.2135 4.79741 27.1979 4.76073 27.1831C4.70717 27.1616 4.65617 27.1406 4.61353 27.1109C4.51643 27.0435 4.4585 26.9165 4.3966 26.776C4.36485 26.704 4.33196 26.6284 4.29181 26.5557C4.23979 26.4615 4.11978 26.4161 3.99441 26.3681C3.90584 26.3341 3.81467 26.2985 3.74255 26.2433C3.61211 26.1434 3.58158 25.9667 3.5551 25.801C3.54353 25.7289 3.53208 25.6588 3.51359 25.5984C3.50606 25.5738 3.48638 25.5598 3.45764 25.5535C3.39561 25.2764 3.3339 25.007 3.27718 24.7406C2.99947 23.4132 2.8203 22.1249 3.70081 20.4997C3.86865 20.1949 3.98641 19.8456 4.08467 19.4788C4.65235 18.4065 5.32486 17.3746 6.08634 16.4272C6.35923 16.3912 6.62525 16.3237 6.88618 16.2226C6.96636 16.2022 7.04526 16.178 7.12278 16.1498C7.68716 15.9467 8.03465 15.5732 8.44416 15.1349C8.74855 14.8085 9.08526 14.4493 9.57322 14.0916C10.3916 13.493 11.1858 12.8438 11.9519 12.0176C12.7139 11.1954 13.5557 10.2205 14.1515 9.50706C14.4761 9.11745 15.0116 8.84688 15.5225 8.60692C16.2148 8.27599 16.7452 8.06366 17.1244 7.42897C17.1401 7.38905 17.1529 7.34674 17.1626 7.30178C17.204 7.11008 17.1945 6.83444 17.1902 6.56635C17.188 6.3749 17.1911 6.18623 17.2117 6.03616C17.4482 5.94514 17.6779 5.86532 17.9045 5.79307C18.4115 5.8577 19.0842 5.88639 19.5002 5.36873C19.7252 5.3185 19.9478 5.27215 20.1622 5.232C20.63 5.14058 21.0848 5.06618 21.5414 4.99973C21.6908 4.97835 21.841 4.95762 21.9916 4.93775C21.9931 4.93762 21.9945 4.93748 21.996 4.93734C22.2994 4.89732 22.6031 4.86114 22.9036 4.82948C23.0315 4.81608 23.1602 4.803 23.2884 4.79065C23.6135 4.75933 23.942 4.73099 24.264 4.70884C24.4347 4.69721 24.6075 4.68578 24.7794 4.67627C25.0607 4.66019 25.3412 4.64752 25.624 4.63831C26.0809 4.62393 26.5312 4.61938 27.0004 4.63229C27.0735 4.63527 27.1575 4.67027 27.22 4.73411C27.283 4.79798 27.3232 4.88427 27.3364 4.97709C27.3494 5.07001 27.3352 5.16408 27.2966 5.24308C27.2583 5.32175 27.195 5.37912 27.1313 5.40504C26.7194 5.56669 26.3241 5.74349 25.926 5.92723C25.6796 6.04112 25.4366 6.15818 25.1939 6.27675C25.0457 6.3495 24.8972 6.42283 24.751 6.49684C24.4755 6.63616 24.1952 6.78036 23.9208 6.92544C23.8126 6.98269 23.7045 7.0405 23.5975 7.09849C23.3452 7.23482 23.0921 7.37386 22.8422 7.51492C22.8407 7.51576 22.8392 7.51661 22.8377 7.51745C22.7149 7.58682 22.5931 7.65671 22.473 7.72658C22.1025 7.94107 21.7408 8.15919 21.3796 8.38587C21.194 8.50461 21.0023 8.62746 20.815 8.75253C20.7121 8.82156 20.608 8.89235 20.5094 8.96161C20.4557 8.99905 20.4003 9.03739 20.3454 9.07603C19.8308 9.44375 19.3368 9.836 18.9914 10.2126C19.061 10.2113 18.942 10.3643 18.8595 10.5142C18.7682 10.669 18.6614 10.8516 18.5598 11.0343C18.3478 11.4106 18.1375 11.8073 17.9236 12.2168C17.1973 13.6159 16.4823 15.0839 15.767 16.5457C15.0639 17.9834 14.3631 19.4219 13.6518 20.8636C13.6414 20.8877 13.6312 20.9117 13.621 20.9357C12.358 23.9177 12.6013 27.2664 13.0851 31.4722C13.7779 35.0482 14.2913 34.8374 18.0495 38.7371C18.8319 39.491 19.8998 40.4305 20.9763 41.3246C21.9978 42.1736 23.0925 43.0494 24.1779 43.889C24.7191 44.3084 25.2586 44.7193 25.802 45.1278C26.3401 45.5303 26.8919 45.934 27.46 46.3436C27.8006 46.5884 28.1526 46.8402 28.5175 47.0993Z" fill="black"/>
<path d="M29.7508 180.831C30.4268 182.559 29.2307 184.38 29.3726 185.853C29.5101 187.296 30.3928 188.7 30.6054 190.121C30.6628 190.626 30.6538 191.132 30.5467 191.62C30.0673 193.816 29.1326 195.824 27.9918 197.464C27.2653 198.513 26.4248 199.462 25.6911 200.109C25.677 200.222 25.4362 200.494 25.4108 200.606C24.9063 201.026 24.3924 201.41 23.8757 201.764C22.4289 202.75 20.9645 203.512 19.4869 204.213C19.4777 204.218 19.4686 204.222 19.4594 204.227C19.4563 204.235 19.433 204.254 19.4297 204.263C18.4204 204.726 17.411 205.143 16.3974 205.553C15.9488 205.734 15.5004 205.913 15.0513 206.091C14.7157 206.224 14.3804 206.356 14.0449 206.488C13.9981 206.506 13.8988 206.476 13.7651 206.401C13.6312 206.325 13.4745 206.212 13.3248 206.081C13.175 205.95 13.0415 205.809 12.9495 205.687C12.8578 205.564 12.8157 205.471 12.8282 205.423C12.9203 205.074 13.0121 204.726 13.1037 204.377C13.2056 203.991 13.3062 203.605 13.4074 203.22C14.0603 203.714 14.5784 204.062 14.8799 204.132C15.034 204.168 15.1483 204.125 15.086 203.965C15.0298 203.822 14.8814 203.622 14.7397 203.431C14.5914 203.233 14.4506 203.044 14.4317 202.941C14.3993 202.768 14.2055 202.462 14.0015 202.141C13.9273 202.024 13.8512 201.905 13.7816 201.79C13.8765 201.426 13.9705 201.063 14.0624 200.703C14.2123 200.662 14.3423 200.617 14.3813 200.519C14.4163 200.431 14.3376 200.257 14.2253 200.057C14.2366 200.012 14.2477 199.967 14.2584 199.922L14.2228 199.965C14.2252 199.955 14.2276 199.945 14.23 199.935C14.3149 199.576 14.3992 199.219 14.4804 198.866C14.8097 198.803 15.1419 198.725 15.4274 198.51C15.5508 198.416 15.733 198.374 15.9086 198.331C16.1675 198.268 16.4108 198.207 16.4195 198C16.4248 197.862 16.5884 197.836 16.7517 197.809C16.9706 197.773 17.1896 197.734 17.0187 197.434C16.9107 197.246 16.7633 197.039 16.6246 196.849C16.4046 196.547 16.2085 196.286 16.2428 196.2C16.3075 196.037 16.177 195.77 16.058 195.539C15.9151 195.26 15.7896 195.033 16.0559 195.078C16.0963 195.085 16.1484 195.097 16.2075 195.11C16.3917 195.151 16.6421 195.204 16.7989 195.166L16.5788 195.556C16.6923 195.502 16.7571 195.41 16.7158 195.252C16.6784 195.117 16.5035 194.922 16.3292 194.735C16.0756 194.462 15.8238 194.208 16.014 194.158C16.0423 194.151 16.1357 194.174 16.2212 194.195C16.3297 194.221 16.4247 194.244 16.3546 194.198C16.1491 194.062 15.9277 193.9 15.6853 193.726C15.5073 193.598 15.3177 193.464 15.1151 193.33C15.1123 193.009 15.0969 192.713 15.0736 192.434C15.063 192.306 15.0503 192.182 15.0363 192.062C15.4009 192.132 15.7324 192.185 15.9902 192.203C16.3267 192.228 16.4572 192.151 16.623 192.051C16.745 191.977 16.8863 191.891 17.1449 191.808C17.6245 191.652 17.5945 191.341 17.4026 191.131C17.3624 191.085 17.3185 191.04 17.2704 190.992C17.0872 190.811 16.8569 190.591 16.5987 190.251C16.4217 190.02 16.3387 189.838 16.287 189.686C16.2678 189.599 16.2535 189.518 16.24 189.445C16.2154 189.31 16.1945 189.2 16.152 189.116C16.0795 188.971 16.0136 188.797 15.9454 188.627C15.8391 188.359 15.726 188.102 15.5819 187.964C15.5306 187.915 15.4675 187.865 15.3998 187.812C15.212 187.664 14.9844 187.493 14.8371 187.264C14.6821 187.025 14.7517 186.871 14.922 186.689C14.9911 186.616 15.2909 186.516 15.5995 186.408C16.0374 186.255 16.4916 186.081 16.3295 185.984C16.2917 185.961 16.2132 185.945 16.1309 185.929C15.9796 185.899 15.8161 185.871 15.8703 185.798C15.8892 185.773 15.9681 185.737 16.0452 185.702C16.1301 185.663 16.2128 185.624 16.2128 185.601C16.2126 185.514 16.1733 185.438 16.138 185.374C16.0924 185.291 16.0537 185.224 16.113 185.16C16.2185 185.046 16.0797 184.99 15.9399 184.943C15.8329 184.907 15.7248 184.875 15.7222 184.812C15.7151 184.633 15.4201 184.489 15.0038 184.48C14.8468 184.476 15.0004 184.349 15.1886 184.171C15.3058 184.061 15.4371 183.932 15.5172 183.811C15.5623 183.742 15.397 183.801 15.2473 183.86C15.109 183.915 14.9835 183.97 15.0377 183.912C15.0856 183.861 15.3237 183.695 15.5479 183.535C15.7976 183.357 16.0296 183.186 15.9685 183.195C15.936 183.201 15.8065 183.268 15.6545 183.351C15.5943 183.383 15.5309 183.418 15.4681 183.453C15.5166 183.42 15.5598 183.39 15.5925 183.367C15.8237 183.207 15.9312 183.102 16.0342 182.997C16.0754 182.955 16.1157 182.913 16.1634 182.868C16.3391 182.701 16.3307 182.624 16.2923 182.593C16.2761 182.58 16.3332 182.512 16.3985 182.431C16.4564 182.359 16.5208 182.276 16.5471 182.215C16.5622 182.181 16.6159 182.118 16.6604 182.065C16.6926 182.027 16.72 181.995 16.7241 181.982C16.7276 181.972 16.6635 182.021 16.5917 182.077C16.5399 182.117 16.484 182.16 16.4461 182.187C16.3557 182.251 16.322 182.263 16.3423 182.233C16.3517 182.219 16.3728 182.195 16.3938 182.172C16.4182 182.145 16.4428 182.117 16.4485 182.104C16.4747 182.045 16.3889 182.088 16.3018 182.134C16.2056 182.185 16.1085 182.241 16.1453 182.162C16.1569 182.137 16.1915 182.089 16.2246 182.041C16.2594 181.992 16.2924 181.943 16.2966 181.926C16.3132 181.854 16.1467 181.973 15.9986 182.088C15.8998 182.163 15.8085 182.236 15.7788 182.245C15.7241 182.261 15.5519 182.431 15.4266 182.558C15.3616 182.624 15.3086 182.678 15.2905 182.693C15.2921 182.685 15.2944 182.676 15.2973 182.667C15.3063 182.652 15.3155 182.636 15.3091 182.638C15.3086 182.638 15.3078 182.639 15.3073 182.639C15.3293 182.58 15.3661 182.503 15.401 182.425C15.4212 182.379 15.4408 182.334 15.4567 182.292C15.4262 182.11 15.3723 181.961 15.2136 181.93C15.1676 181.921 15.0717 181.971 14.9739 182.021C14.8542 182.083 14.7308 182.145 14.6942 182.103C14.607 182.001 14.6125 181.789 14.621 181.583C14.6333 181.271 14.6529 180.971 14.3506 181.05C14.2506 181.076 14.1132 181.145 13.9739 181.213C13.8963 181.252 13.818 181.29 13.7463 181.321C13.8405 181.228 13.927 181.139 14.0075 181.057C14.1736 180.886 14.3157 180.739 14.4546 180.632C14.7831 180.378 15.2183 180.012 15.4875 179.702C15.5606 179.617 15.6453 179.527 15.7307 179.435C15.945 179.206 16.1632 178.972 16.2167 178.824C16.2523 178.725 16.3287 178.491 16.1183 178.623C16.0724 178.652 15.9956 178.722 15.9102 178.8C15.7569 178.94 15.5747 179.105 15.4892 179.103C15.4748 179.103 15.4604 179.101 15.4461 179.099C15.389 179.09 15.3256 179.079 15.1966 179.186C15.0481 179.309 14.9008 179.472 14.7294 179.662C14.5061 179.909 14.2418 180.204 13.8748 180.513C13.8022 180.574 13.7651 180.583 13.737 180.59C13.7172 180.595 13.7016 180.6 13.6814 180.62C13.6583 180.643 13.6141 180.694 13.5581 180.759C13.3608 180.989 13.0172 181.393 12.9164 181.327C12.8893 181.31 12.8805 181.266 12.8728 181.227C12.8615 181.17 12.8523 181.123 12.7882 181.181C12.764 181.203 12.7382 181.228 12.7117 181.253C12.6914 181.219 12.6713 181.185 12.6512 181.151C12.6882 181.043 12.6335 181.002 12.5644 180.95C12.5476 180.937 12.5303 180.923 12.5131 180.908C12.4748 180.84 12.4367 180.772 12.3995 180.704C12.3888 180.631 12.3953 180.536 12.43 180.409C12.4994 180.156 12.6885 179.814 12.8775 179.483C12.9571 179.343 13.0368 179.205 13.1069 179.076C13.1315 179.077 13.1572 179.075 13.1858 179.065C13.382 178.994 13.6763 178.758 13.9464 178.54C14.1261 178.395 14.2953 178.258 14.4172 178.183C14.6406 178.045 14.8517 177.832 15.0082 177.675C15.0894 177.593 15.156 177.527 15.2011 177.493C15.2374 177.466 15.2618 177.461 15.287 177.455C15.309 177.451 15.3319 177.446 15.3633 177.426C15.7444 177.188 15.9052 176.988 16.1429 176.701C16.2738 176.542 16.4279 176.357 16.6535 176.121C16.894 175.874 16.9689 175.807 17.0992 175.744C17.1963 175.599 17.294 175.455 17.3924 175.312C17.3749 175.31 17.2911 175.376 17.1535 175.488C16.9077 175.689 16.764 175.706 16.6516 175.718C16.5996 175.724 16.5541 175.729 16.5082 175.751C16.2639 175.867 16.018 176.129 15.8033 176.362C15.6849 176.489 15.5756 176.608 15.4795 176.686C15.4384 176.72 15.4038 176.76 15.3686 176.8C15.3414 176.832 15.3137 176.864 15.2823 176.893C15.0544 177.11 14.8482 177.231 14.6555 177.342C14.5452 177.406 14.4393 177.467 14.337 177.541C14.3059 177.564 14.2748 177.587 14.2447 177.611C14.2007 177.644 14.1587 177.677 14.1203 177.702C14.0328 177.758 13.9569 177.778 13.8738 177.8C13.8312 177.811 13.7867 177.822 13.7378 177.839C13.6743 177.861 13.576 177.938 13.4733 178.018C13.4006 178.074 13.3257 178.133 13.2587 178.175C13.1375 178.251 13.065 178.247 12.9977 178.243C12.9683 178.241 12.9395 178.239 12.9084 178.244C12.8957 178.246 12.8776 178.258 12.8553 178.277C12.7288 178.283 12.6029 178.293 12.4798 178.303C11.8641 178.351 11.3153 178.37 11.2414 177.791C11.2281 177.683 11.1562 177.613 11.0561 177.563C10.9502 177.234 10.8528 176.902 10.7658 176.569C10.9538 176.348 11.0985 176.144 11.1952 175.961C11.3775 175.619 11.3378 175.437 11.2933 175.223C11.2612 175.065 11.2249 174.886 11.2797 174.618C11.3718 174.168 11.4267 173.745 11.356 173.362C11.2843 172.979 11.1649 172.574 11.0528 172.303C10.9905 172.154 11.1306 171.886 11.2626 171.637C11.4495 171.289 11.6258 170.987 11.1899 171.083C11.0505 171.113 10.8215 171.191 10.5985 171.266C10.4398 171.319 10.2839 171.369 10.165 171.401C10.1672 171.323 10.1696 171.245 10.1733 171.168C10.3771 170.933 10.574 170.635 10.2091 170.611C10.2162 170.532 10.2217 170.45 10.2303 170.373C10.2456 170.205 10.2657 170.041 10.2873 169.874C10.2948 169.82 10.3025 169.765 10.3107 169.711C10.3109 169.711 10.311 169.71 10.3111 169.71C10.3272 169.6 10.3435 169.487 10.363 169.379C10.3712 169.332 10.3802 169.287 10.3883 169.24C10.4092 169.12 10.432 169.001 10.4581 168.886C10.4716 168.824 10.4848 168.76 10.4993 168.698C10.5227 168.597 10.5484 168.498 10.5741 168.396C10.6168 168.233 10.664 168.072 10.7157 167.913C10.7243 167.887 10.7648 167.854 10.8307 167.82C10.8968 167.786 10.9825 167.755 11.0732 167.73C11.1639 167.706 11.2542 167.691 11.3279 167.687C11.4013 167.682 11.4515 167.689 11.4713 167.705C11.5916 167.804 11.7127 167.899 11.8346 167.991C11.9106 168.05 11.9862 168.103 12.0619 168.158C12.1085 168.191 12.155 168.225 12.2016 168.258C12.2887 168.317 12.3773 168.378 12.4659 168.439C12.5009 168.463 12.5352 168.485 12.5701 168.508C12.6514 168.56 12.7342 168.616 12.8162 168.668C12.8167 168.669 12.8172 168.669 12.8176 168.669C12.8578 168.694 12.8982 168.72 12.9383 168.745C13.0616 168.823 13.1839 168.897 13.3074 168.973C13.3729 169.011 13.4393 169.053 13.5051 169.091C13.5419 169.113 13.5788 169.134 13.6154 169.155C13.6351 169.167 13.6549 169.179 13.6747 169.191C14.1377 169.461 14.5967 169.708 15.0526 169.946C15.5077 170.183 15.9584 170.407 16.4031 170.618C16.8486 170.83 17.2872 171.03 17.72 171.219C19.5641 172.024 21.3473 172.599 22.9118 172.954C24.531 173.802 25.9999 175.035 27.1454 176.414C27.6451 177.011 28.0963 177.653 28.484 178.288C28.8752 178.931 29.2066 179.569 29.4953 180.222C29.5835 180.42 29.6687 180.623 29.7508 180.831Z" fill="black"/>
<path d="M76.556 7.87075C78.2997 8.97725 79.6181 10.5584 80.9916 12.2019C81.926 13.3202 82.8044 14.4179 83.7761 15.2915C84.3769 15.831 84.9959 16.3138 85.5286 16.6487C86.6118 17.3433 87.6311 17.5328 87.7486 17.2848C87.6399 17.1469 88.1222 17.1779 88.5914 17.1847C89.0805 17.2009 89.6579 17.2423 90.2548 17.3274C91.0566 17.4419 91.9132 17.5377 92.7876 17.6191C92.9128 17.6498 92.8297 17.6844 92.8224 17.7225C92.8115 17.7601 92.941 17.773 93.189 17.7422C93.6917 17.6802 94.4823 17.5077 95.256 17.3456C96.5128 17.0864 97.7827 16.8178 99.0448 16.5456C101.306 16.0567 103.559 15.5536 105.747 15.007C107.146 14.6574 108.546 14.2736 109.941 13.8541C111.781 13.301 113.62 12.6843 115.402 11.9964C117.072 11.3476 118.711 10.636 120.202 9.82756C120.808 9.50155 121.431 9.11456 121.858 8.83307C122.979 7.96327 124.095 6.80467 125.118 5.60164C125.27 5.42026 125.419 5.24024 125.568 5.05815C126.306 4.16043 126.985 3.23265 127.751 2.24474C127.991 1.93998 128.247 1.62959 128.532 1.33509L128.509 1.37133C128.735 1.14115 128.961 0.802822 129.213 0.461949C129.288 0.359994 129.367 0.258752 129.449 0.160392C129.536 0.0564926 129.684 0.000583422 129.857 0.0104167C130.031 0.0200855 130.218 0.0878529 130.383 0.198067C130.549 0.308255 130.681 0.45808 130.763 0.605936C130.845 0.754121 130.875 0.88008 130.848 0.97132C130.822 1.05802 130.799 1.14694 130.775 1.24078C130.685 1.58005 130.602 1.98329 130.38 2.50096C130.37 2.51408 130.346 2.55881 130.335 2.57129C130.227 2.84768 130.129 3.15375 130.03 3.48406C129.77 4.36061 129.491 5.36495 129.174 6.34264C128.376 6.10575 127.729 6.00557 127.297 6.22726C127.143 6.30582 127.001 6.44385 126.939 6.61277C126.913 6.68239 126.901 6.75871 126.908 6.83723C126.93 7.07663 127.065 7.32751 127.193 7.56907C127.326 7.82178 127.45 8.06364 127.423 8.26606C127.377 8.60936 127.511 9.0498 127.641 9.52162C127.688 9.6936 127.734 9.86969 127.772 10.0457C127.381 10.9114 126.946 11.777 126.401 12.6573C126.331 12.7632 126.263 12.8625 126.197 12.9575C125.799 13.2673 125.468 13.4913 125.244 13.7504C125.045 13.9798 124.962 14.2869 124.901 14.6264C124.788 14.7587 124.676 14.8874 124.567 15.0125C123.845 15.8309 123.106 16.5831 122.35 17.3047C121.566 17.5869 120.762 17.8695 119.811 18.3542C119.683 18.4191 119.549 18.4775 119.412 18.5315C119.12 18.6458 118.819 18.7341 118.527 18.8178C117.895 18.9977 117.304 19.1539 116.908 19.5087C116.643 19.7459 116.266 19.8205 115.893 19.8902C115.391 19.9845 114.895 20.0705 114.648 20.5501C114.494 20.8515 114.375 21.1808 114.263 21.4862C114.085 21.9716 113.924 22.3962 113.663 22.5464C113.173 22.8281 112.842 23.2692 112.545 23.6576C112.188 24.1244 111.881 24.5147 111.429 24.4439C111.36 24.4331 111.279 24.4142 111.188 24.3924C110.81 24.3025 110.26 24.167 109.69 24.3934C109.533 24.4559 109.373 24.5465 109.216 24.6732C108.957 24.8815 108.771 25.2196 108.588 25.5508C108.321 26.0328 108.057 26.5001 107.588 26.5208C107.518 26.5238 107.42 26.4608 107.33 26.4032C107.216 26.33 107.117 26.2658 107.108 26.3582C107.083 26.629 106.999 26.9496 106.907 27.2979C106.839 27.5539 106.767 27.8253 106.71 28.1027C105.677 28.6346 104.641 29.1459 103.601 29.6386C103.124 29.8644 102.645 30.0867 102.165 30.3054C101.795 30.0433 101.43 29.8173 101.078 29.6707C100.618 29.4793 100.123 29.5373 99.4863 29.6064C99.3924 29.6167 99.294 29.6276 99.196 29.6369C98.8033 29.6736 98.358 29.7034 97.8063 29.6838C96.613 29.6208 94.9251 30.1949 93.5781 30.4676C93.3169 30.5304 93.0629 30.5879 92.8093 30.644C92.8008 30.6459 92.7923 30.6478 92.7837 30.6496C92.0902 30.8561 91.2368 31.1262 89.5144 31.3231C87.8605 31.5035 86.3688 31.4101 85.0092 31.1835C84.3982 31.081 83.8075 30.9482 83.2409 30.7944C83.177 30.7781 83.1118 30.7611 83.0505 30.7454C82.1769 30.5262 81.1003 30.1059 80.2106 29.6614C78.8011 28.9634 77.7094 28.2305 77.0566 27.8831C76.8232 27.7571 76.5832 27.6367 76.323 27.5001C76.322 27.4996 76.3209 27.499 76.3199 27.4985C75.6139 27.1338 74.8562 26.7414 74.0183 26.1569C73.1445 25.5488 72.7597 25.0931 72.414 24.5426C72.2747 24.3201 72.3091 23.942 72.3412 23.5503C72.3623 23.2919 72.383 23.0285 72.3535 22.8023C72.3195 22.5421 72.2171 22.3297 71.9753 22.2349C71.8698 22.1936 71.7328 22.18 71.5893 22.1664C71.3255 22.1413 71.04 22.1162 70.8837 21.911C70.8291 21.8394 70.8195 21.7258 70.8095 21.6141C70.7985 21.4913 70.7871 21.371 70.7161 21.3111C70.4507 21.0879 70.166 20.9028 69.9115 20.7395C69.5832 20.5289 69.3063 20.3545 69.1841 20.1761C68.9666 19.8581 68.5739 19.725 68.1775 19.5957C67.8756 19.4975 67.5696 19.4006 67.3374 19.2226C67.2907 19.1868 67.2409 19.1506 67.191 19.116C66.476 18.6227 65.7642 18.4244 64.8766 18.3796C64.5018 18.3531 64.282 18.0385 63.9526 17.6208C63.8913 17.5441 63.8296 17.4655 63.7586 17.3829C63.5908 17.1851 63.3956 16.9758 63.1489 16.7723C62.9518 16.6095 62.6922 16.6881 62.4531 16.7617C62.2336 16.8298 62.0307 16.8934 61.9022 16.7587C61.7906 16.6406 61.8094 16.3359 61.8286 16.0472C61.8487 15.7254 61.867 15.4226 61.6975 15.416C61.6069 15.4124 61.4594 15.5101 61.2817 15.6256C61.2123 15.6716 61.1383 15.7201 61.0616 15.7669C61.0855 15.7131 61.1052 15.6644 61.1196 15.6273C61.2215 15.3653 61.1238 15.1685 61.026 14.9757C60.9864 14.8984 60.9482 14.8226 60.9224 14.7429C60.8268 14.4493 60.4984 14.2836 60.2315 14.1969C60.1188 14.1601 60.0481 14.0413 59.9652 13.9027C59.8907 13.7793 59.8086 13.641 59.6766 13.5304C59.6018 13.4676 59.5634 13.3673 59.5312 13.2836C59.5079 13.223 59.4879 13.1712 59.4601 13.1496C59.4362 13.131 59.3874 13.1992 59.3324 13.276C59.2929 13.3313 59.2501 13.3912 59.211 13.4264C59.1179 13.5105 59.0336 13.5161 58.9948 13.4649C58.9768 13.4412 58.9686 13.4051 58.9605 13.3692C58.9511 13.3274 58.9418 13.2853 58.9164 13.2629C58.7995 13.1599 58.6385 13.2014 58.4698 13.2444C58.2858 13.2921 58.0933 13.3416 57.9453 13.206C57.8985 13.1632 57.8581 13.0877 57.8195 13.0147C57.7792 12.9383 57.7395 12.8645 57.6951 12.8335C57.5143 12.708 57.2628 12.8371 57.0341 12.9575C56.8815 13.0373 56.738 13.1127 56.63 13.1061C56.431 13.0935 56.2605 13.2929 56.1347 13.4401C56.0696 13.5164 56.0163 13.5792 55.9774 13.5911C55.9686 13.586 55.9597 13.5809 55.9508 13.5756C55.9324 13.5645 55.914 13.553 55.8961 13.5412C55.8746 13.516 55.8523 13.4899 55.8246 13.4874C55.8224 13.4872 55.8202 13.4876 55.8181 13.4874C55.6714 13.3807 55.5348 13.2521 55.3974 13.124C55.0901 12.8367 54.7813 12.5534 54.3704 12.5427C54.282 12.5405 54.1703 12.6121 54.0574 12.6851C53.9191 12.7746 53.7778 12.8663 53.6716 12.8269C53.4187 12.7331 53.2003 12.5021 52.9833 12.2751C52.6572 11.9338 52.3321 11.6015 51.9129 11.7623C51.7745 11.8154 51.6251 11.9251 51.4754 12.0361C51.392 12.098 51.3082 12.1605 51.2265 12.2131C51.2726 12.0887 51.3104 11.9704 51.3456 11.8602C51.4183 11.6329 51.4805 11.4384 51.5856 11.2865C51.8336 10.9275 52.1425 10.4255 52.2267 10.023C52.2495 9.91372 52.2847 9.79456 52.3204 9.67467C52.4102 9.3739 52.5023 9.06676 52.3984 8.89043C52.3286 8.77162 52.1405 8.49228 51.9272 8.68601C51.8808 8.72822 51.835 8.82356 51.7842 8.92951C51.693 9.1199 51.585 9.34529 51.4258 9.36447C51.399 9.3677 51.3703 9.3695 51.3409 9.37051C51.2234 9.37453 51.092 9.37884 51.0066 9.52915C50.9083 9.7023 50.8676 9.91822 50.8199 10.1699C50.7579 10.4977 50.6834 10.8869 50.4586 11.323C50.4141 11.4092 50.3643 11.4303 50.3267 11.4464C50.3002 11.4577 50.2798 11.467 50.2714 11.4942C50.2618 11.5254 50.253 11.593 50.2419 11.6786C50.2028 11.9806 50.133 12.5077 49.897 12.4738C49.8332 12.4646 49.7675 12.423 49.7087 12.3856C49.622 12.3304 49.5498 12.2849 49.5193 12.3666C49.5079 12.3977 49.4969 12.4316 49.4861 12.467C49.4132 12.439 49.3404 12.4112 49.2675 12.3835C49.1947 12.2605 49.0567 12.2374 48.885 12.2097C48.8433 12.203 48.7994 12.1956 48.754 12.1868C48.61 12.132 48.466 12.0777 48.3218 12.0232C48.2135 11.9542 48.1031 11.8568 47.9945 11.7172C47.7768 11.4375 47.6227 11.0221 47.4696 10.6161C47.4052 10.4451 47.3404 10.2754 47.2716 10.1185C47.313 10.1096 47.3513 10.0969 47.3834 10.0751C47.6031 9.92598 47.7532 9.57386 47.8923 9.24986C47.9848 9.03437 48.0724 8.83126 48.1721 8.70949C48.3543 8.48636 48.4049 8.19063 48.442 7.97181C48.4613 7.85833 48.4773 7.76541 48.5064 7.71444C48.5298 7.67363 48.5664 7.65998 48.6043 7.64583C48.6373 7.6335 48.6716 7.62055 48.6984 7.58941C49.0247 7.21124 49.01 6.94734 48.986 6.56256C48.9727 6.35037 48.957 6.10141 48.9951 5.77652C49.0416 5.43387 49.0715 5.33707 49.2257 5.23001C49.1644 5.04245 49.1027 4.85497 49.0407 4.66754C48.9999 4.67013 48.9484 4.76799 48.8707 4.93228C48.7319 5.22561 48.4717 5.28851 48.2686 5.33852C48.1748 5.36167 48.0929 5.38209 48.041 5.42088C47.7659 5.62739 47.7599 5.99241 47.7531 6.31315C47.7495 6.48974 47.7457 6.65313 47.6986 6.76967C47.6785 6.81954 47.6816 6.87373 47.6845 6.92897C47.6867 6.97167 47.6891 7.01511 47.6808 7.05759C47.6203 7.36604 47.444 7.56801 47.2817 7.75617C47.1884 7.86385 47.0997 7.96742 47.0391 8.08315C47.0206 8.11841 47.0043 8.15489 46.9887 8.19036C46.9659 8.24215 46.944 8.29147 46.917 8.3321C46.8557 8.42464 46.7571 8.47563 46.6493 8.53134C46.594 8.55991 46.5365 8.5898 46.4804 8.6273C46.4078 8.67593 46.3619 8.79367 46.314 8.91664C46.2801 9.00355 46.245 9.09301 46.1988 9.16339C46.1151 9.2906 45.9917 9.31859 45.8766 9.3447C45.8264 9.35607 45.778 9.36766 45.7355 9.38641C45.7182 9.39405 45.7069 9.41367 45.6999 9.44219C45.6562 9.45674 45.613 9.47152 45.5702 9.48648C45.4237 9.53697 45.2832 9.5896 45.1447 9.64161C44.2468 9.98036 43.4889 10.2839 42.4978 9.81978C42.3104 9.73221 42.0977 9.71277 41.8776 9.72877C41.2139 9.50951 40.5477 9.295 39.8801 9.08711C39.7774 8.79028 39.638 8.53528 39.4601 8.32847C39.1264 7.94033 38.7508 7.82738 38.3064 7.69916C37.9782 7.60451 37.6133 7.50133 37.1947 7.27492C37.0513 7.19777 36.9071 7.12328 36.762 7.05216C36.1655 6.7711 35.5492 6.53403 34.8884 6.3979C34.0594 6.22516 33.1576 6.13675 32.5516 6.16252C32.2211 6.17404 31.8509 5.97059 31.4803 5.802C31.3374 5.73662 31.196 5.67605 31.0619 5.63346C30.6671 5.53062 30.3486 5.53297 30.2109 5.88642C30.1508 6.04207 30.1186 6.29544 30.0856 6.54204C30.0624 6.71758 30.0397 6.88908 30.009 7.02012C29.8437 7.02105 29.6785 7.02259 29.5124 7.02377C29.1677 6.81127 28.6584 6.61813 28.3162 7.03278C28.1443 7.0345 27.9743 7.03617 27.8067 7.03686C27.4447 7.04112 27.0905 7.04321 26.731 7.04672C26.6139 7.04741 26.4947 7.04868 26.3769 7.04954C26.3757 7.0495 26.3746 7.04946 26.3734 7.04941C26.1331 7.0519 25.8942 7.05392 25.6553 7.0558C25.5543 7.05636 25.4516 7.05741 25.3501 7.05818C25.0911 7.06046 24.8312 7.06298 24.5734 7.06433C24.4387 7.06442 24.2997 7.06595 24.1625 7.06643C23.9393 7.0674 23.713 7.06883 23.4892 7.06904C23.1258 7.06977 22.762 7.06909 22.3986 7.06583C22.3393 7.06511 22.2728 7.03253 22.2161 6.97204C22.1592 6.91147 22.1153 6.82864 22.0926 6.73766C22.07 6.64662 22.0698 6.55265 22.0913 6.47268C22.1127 6.39302 22.1557 6.33411 22.2072 6.3058C22.5237 6.13345 22.841 5.96017 23.1586 5.78716C23.3541 5.6804 23.552 5.57234 23.7478 5.46598C23.868 5.40054 23.9904 5.33511 24.1085 5.27045C24.335 5.14779 24.5648 5.02438 24.794 4.90223C24.8838 4.85415 24.9748 4.80579 25.0643 4.75788C25.2766 4.6449 25.4897 4.53255 25.7048 4.42016C25.7061 4.41949 25.7074 4.41882 25.7087 4.41815C25.8129 4.36329 25.919 4.30796 26.0227 4.25354C26.3446 4.08629 26.6628 3.92149 26.9903 3.75622C27.1597 3.66885 27.3368 3.58083 27.5113 3.49327C27.6088 3.44441 27.7073 3.39528 27.8023 3.34736C27.8547 3.32142 27.9081 3.29537 27.962 3.26914C28.7253 2.89065 29.4902 2.52174 30.2634 2.16168C30.8105 1.92498 31.381 1.72359 31.956 1.55721C33.4812 1.11739 34.9697 0.911768 36.3514 0.727949C36.6205 0.692985 36.8871 0.659579 37.152 0.627093C38.2947 0.494277 39.4337 0.400161 40.5729 0.336301C42.8117 0.21119 45.0515 0.19444 47.2938 0.273139C51.4384 0.426794 55.5268 0.864962 59.667 1.66156C62.2682 2.16844 64.8244 2.81262 67.3621 3.60526C68.0573 3.82236 68.7621 4.05608 69.4686 4.30547C70.0388 4.50726 70.639 4.73053 71.2834 5.00001C72.6759 5.56768 74.2369 6.44738 75.2833 7.08455C75.3502 7.12476 75.4197 7.16687 75.4867 7.20754C75.8398 7.42127 76.1948 7.64164 76.556 7.87075Z" fill="black"/>
</svg>
