<svg width="74" height="435" viewBox="0 0 74 435" fill="none" xmlns="http://www.w3.org/2000/svg">
<path d="M73.3567 180.886C73.3203 184.78 72.3425 189.064 71.3338 192.139C69.8113 197.245 68.0152 203.876 65.7925 209.856C64.6743 212.969 63.3437 216.072 61.7911 219.109C60.3404 221.962 58.6566 224.714 56.9776 227.235C51.5956 235.485 45.4594 243.921 38.9995 251.23C37.2759 253.229 35.4404 255.573 33.5335 257.899C31.4364 260.461 29.2781 263.108 26.9895 265.738C23.8716 269.982 20.0236 280.64 16.6817 288.826C15.7123 291.238 14.9002 293.592 14.3727 295.857C13.8154 298.167 13.6659 300.322 13.3812 303.566C12.6927 311.437 12.4189 320.001 12.2155 328.302C12.1105 331.872 12.6121 335.558 13.5496 339.28C14.5449 343.244 16.0157 347.24 17.6726 351.259C21.1005 359.392 24.974 368.04 29.5913 374.806C30.8131 376.39 31.9452 378.035 32.9857 379.717C35.8748 384.341 37.9094 389.25 40.2451 393.632C42.844 398.452 45.136 403.588 46.1898 409.089C46.5879 411.099 46.78 413.119 47.0517 414.991C47.4308 417.45 48.1914 419.975 49.0139 422.451C49.7488 424.638 50.5673 426.814 51.4485 428.954L51.4416 428.94C51.7438 429.617 51.929 430.276 52.16 430.892C52.3046 431.281 52.4691 431.688 52.6138 432.102C52.7771 432.565 52.8424 433.043 52.8025 433.413C52.7623 433.784 52.627 434.018 52.4362 434.073C52.2441 434.127 52.0086 434 51.7686 433.739C51.5284 433.477 51.3014 433.108 51.1129 432.704C50.9457 432.342 50.7607 431.987 50.5619 431.575C50.244 430.913 49.9955 430.286 49.7168 429.807C49.7139 429.801 49.7046 429.783 49.7019 429.776C48.5876 427.659 47.5381 425.506 46.5632 423.306C45.4948 420.861 44.4786 418.402 43.7817 415.646C43.471 414.376 43.2282 413.169 42.9451 412.007C43.6336 411.282 44.0957 410.352 43.9723 408.793C43.9093 407.995 43.6309 406.874 43.2096 406.123C42.8314 405.444 42.4054 405.007 41.9916 404.588C41.5619 404.159 41.1477 403.759 40.8005 403.169C40.2106 402.169 39.4222 401.33 38.5758 400.479C38.271 400.176 37.949 399.854 37.6332 399.539C36.9984 398.482 36.3332 397.439 35.642 396.401C34.2571 394.306 33.0288 392.201 31.8004 390.184C31.2046 388.914 30.6437 387.777 30.0729 386.875C29.5616 386.065 28.9593 385.414 28.317 384.81C28.0071 384.373 27.6898 383.938 27.3698 383.512C26.3144 382.107 25.2017 380.767 24.0218 379.49C22.5823 377.874 21.4897 376.34 20.4019 374.785C18.9815 372.132 17.6207 369.367 15.8127 365.818C15.0364 364.29 14.36 362.736 13.7274 361.237C12.7935 359.025 11.9548 356.932 11.0114 355.193C10.8899 354.968 10.7743 354.739 10.6636 354.505C10.1984 353.522 9.81819 352.456 9.45223 351.385C8.84289 349.604 8.27847 347.816 7.38387 346.319C6.82064 345.378 6.26327 344.515 5.75879 343.698C4.95654 342.4 4.28721 341.216 3.9602 340.057C3.34707 337.883 2.71375 335.986 2.23295 334.258C1.65588 332.184 1.29946 330.352 1.51196 328.739C1.52345 328.652 1.53667 328.56 1.55145 328.464C1.5785 328.309 1.60975 328.141 1.64373 327.96C1.92237 326.485 2.36932 324.134 2.09961 320.763C2.00384 319.561 1.7623 318.432 1.52877 317.325C1.18903 315.706 0.866198 314.146 1.04276 312.457C1.06918 312.207 1.16769 311.949 1.25801 311.708C1.37276 311.406 1.47322 311.147 1.3933 310.984C1.15857 310.521 0.904646 309.779 0.631863 308.976C0.431741 308.373 0.220752 307.759 -2.95639e-05 307.163C0.00408125 305.688 0.00983191 304.265 0.072845 302.65C0.136681 300.195 0.158918 296.525 0.773376 293.166C1.16913 290.853 1.72909 288.654 2.36135 286.551C2.93273 285.773 3.49621 284.996 4.03765 284.182C4.15195 284.016 4.26437 283.849 4.37474 283.68C5.17241 282.456 5.9019 280.756 6.85322 278.559C7.55565 276.938 8.37495 275.052 9.4539 272.879C11.4501 268.856 13.1177 264.533 14.4765 261.504C14.7664 260.856 15.0727 260.201 15.4664 259.463C15.8118 258.824 16.2124 258.116 16.8546 257.258C18.1038 255.487 19.6954 253.18 22.3424 249.456C24.39 246.589 26.3437 243.969 28.357 241.643C29.4284 240.401 30.3952 239.288 31.2493 238.293C32.4151 236.935 33.3633 235.808 34.0622 234.924C35.2591 233.413 36.711 231.568 38.1239 229.682C40.3396 226.734 42.4608 223.668 43.5875 221.861C43.9849 221.224 44.3977 220.54 44.8392 219.801C44.9824 219.561 45.1303 219.313 45.2839 219.055C46.3558 217.228 47.5234 215.175 48.8018 212.434C50.167 209.456 50.9397 207.444 51.7596 205.419C51.8447 205.202 51.9293 204.987 52.0138 204.773C52.3976 203.798 52.9568 203 53.5271 202.164C54.3346 200.979 55.1678 199.712 55.4959 197.778C55.5728 197.325 55.6147 196.834 55.6573 196.315C55.7353 195.365 55.8137 194.328 56.1177 193.297C56.2243 192.935 56.3803 192.63 56.5341 192.328C56.7039 191.994 56.8699 191.669 56.9684 191.267C57.1961 190.341 57.4195 189.392 57.6693 188.435C57.7975 187.941 57.9135 187.478 58.0163 187.05C58.3712 185.584 58.5576 184.504 58.7392 183.827C59.0657 182.63 59.0669 181.269 58.969 179.838C58.8956 178.745 58.7687 177.614 58.7165 176.478C58.6677 175.403 58.5457 174.169 58.3506 172.814C57.9439 169.952 57.3639 166.684 56.6707 163.388C56.276 161.511 56.2451 159.891 56.1882 157.806C56.1524 156.512 56.1071 155.039 55.945 153.226C55.8528 152.198 55.5393 151.368 55.2467 150.6C54.9775 149.895 54.7257 149.242 54.6775 148.537C54.6348 147.913 54.8493 147.476 55.0523 147.059C55.2782 146.595 55.4899 146.157 55.3125 145.525C55.2179 145.188 54.9959 144.8 54.7303 144.341C54.6252 144.159 54.5135 143.965 54.3999 143.76C54.4597 143.759 54.5118 143.752 54.5509 143.744C54.8268 143.691 54.842 143.008 54.8526 142.34C54.8569 142.073 54.86 141.806 54.8802 141.584C54.9444 140.888 54.7533 139.717 54.531 138.708C54.4925 138.534 54.4533 138.363 54.4146 138.201C54.303 137.734 54.2891 137.288 54.2714 136.769C54.2562 136.311 54.2359 135.786 54.1397 135.141C54.0842 134.771 54.0949 134.475 54.1042 134.23C54.1112 134.054 54.1161 133.9 54.0941 133.767C54.0748 133.651 53.9736 133.579 53.8597 133.498C53.7777 133.44 53.6888 133.377 53.6192 133.291C53.453 133.084 53.3425 132.786 53.3223 132.566C53.313 132.464 53.3233 132.379 53.3337 132.294C53.3457 132.196 53.3583 132.098 53.3387 131.972C53.2479 131.391 53.0148 130.87 52.7694 130.326C52.5004 129.731 52.2178 129.111 52.0933 128.365C52.0544 128.131 52.0433 127.875 52.0311 127.624C52.0187 127.362 52.0061 127.108 51.963 126.903C51.7852 126.06 51.3661 125.35 50.9761 124.695C50.7174 124.261 50.4713 123.851 50.32 123.45C50.0412 122.711 49.6849 122.387 49.4205 122.142C49.2838 122.016 49.172 121.915 49.1086 121.792C49.0773 121.672 49.0452 121.546 49.015 121.424C48.9966 121.309 48.9776 121.19 48.9379 121.086C48.9348 121.079 48.9313 121.071 48.9283 121.063C48.7687 120.381 48.6303 119.699 48.4922 119.031C48.1772 117.517 47.8479 116.028 47.1972 114.58C47.0551 114.263 46.8428 113.983 46.6198 113.684C46.3506 113.328 46.0735 112.966 45.9167 112.548C45.7409 112.077 45.5844 111.578 45.4487 111.098C45.3071 110.592 45.1718 110.073 45.0297 109.558C44.617 108.063 44.133 106.581 43.2318 105.462C42.9339 105.092 42.5886 104.763 42.2391 104.437C42.0443 104.256 41.847 104.073 41.6573 103.886C41.7989 103.868 41.9209 103.831 42.0346 103.797C42.2691 103.728 42.4699 103.667 42.7442 103.8C43.3916 104.109 44.2098 104.431 44.534 104.168C44.6219 104.096 44.7388 104.051 44.8571 104.007C45.1535 103.896 45.4594 103.784 45.3121 103.219C45.2141 102.84 44.9235 101.874 44.399 101.457C44.2853 101.366 44.1539 101.347 44.0081 101.327C43.7455 101.29 43.4367 101.247 43.0842 100.774C43.0247 100.694 42.9617 100.607 42.897 100.517C42.6391 100.155 42.3466 99.7527 42.1073 99.6842C41.8317 99.6053 41.6703 99.7611 41.4817 99.9418C41.2363 100.178 40.9433 100.454 40.2996 100.328C40.1722 100.303 40.0538 100.176 39.964 100.081C39.9007 100.014 39.8517 99.9635 39.8241 99.9729C39.7925 99.984 39.7509 100.045 39.6985 100.122C39.513 100.395 39.1887 100.865 38.6653 100.095C38.5233 99.887 38.3865 99.6319 38.2628 99.4034C38.0808 99.0667 37.9267 98.7877 37.8313 98.8007C37.7952 98.8058 37.7593 98.8163 37.7235 98.8291C37.5631 98.5715 37.401 98.314 37.238 98.0577C37.1029 97.6778 36.784 97.2315 36.3797 96.6807C36.2814 96.5468 36.1777 96.4056 36.0707 96.2588C35.7387 95.7587 35.4011 95.2601 35.0609 94.7661C34.8114 94.3573 34.5633 93.9098 34.3277 93.417C33.8542 92.4281 33.5656 91.4642 33.2687 90.5223C33.2682 90.5209 33.2678 90.5195 33.2674 90.5181C33.1249 90.101 32.9777 89.6773 32.8221 89.2612C32.9398 89.3805 33.0485 89.4831 33.1414 89.5537C33.4365 89.7789 33.7035 89.9048 33.9423 89.9669C34.2139 90.0307 34.4608 90.0259 34.6971 90.022C34.9894 90.0179 35.2645 90.0137 35.5499 90.1472C36.0732 90.3932 36.2757 90.1675 36.4262 90C36.5041 89.9132 36.5687 89.8429 36.6555 89.8626C36.7253 89.8787 36.8219 89.9672 36.9217 90.0591C37.0087 90.1391 37.0988 90.2221 37.1748 90.2609C38.0947 90.7307 38.1266 90.357 38.1663 89.8019C38.1889 89.4972 38.2123 89.1376 38.3924 88.8398C38.5981 88.5439 38.6993 88.5079 39.1171 88.8203C39.0101 88.4057 38.9029 87.9943 38.7899 87.5793C38.6851 87.4655 38.5289 87.4407 38.2888 87.4242C38.0826 87.4092 37.8172 87.2477 37.5381 87.0302C37.2395 86.7998 36.9168 86.487 36.6397 86.2168C36.3905 85.9731 36.1811 85.7683 36.0361 85.6634C35.2814 85.1241 35.1585 85.5457 35.0538 85.9235C34.9957 86.1305 34.9415 86.3212 34.7883 86.3268C34.7229 86.3292 34.716 86.4052 34.7085 86.4819C34.7027 86.5413 34.6969 86.6018 34.6642 86.6302C34.4267 86.8366 33.9091 86.559 33.4321 86.2991C33.1592 86.151 32.8942 86.0028 32.7045 85.962C32.6462 85.949 32.593 85.9438 32.5421 85.9397C32.4677 85.9336 32.3961 85.9269 32.3134 85.8933C32.1242 85.8155 31.8514 85.573 31.5515 85.3014C31.3967 85.1607 31.2385 85.0174 31.08 84.8849C30.8747 84.7132 30.7184 84.7109 30.5544 84.7079C30.4392 84.7066 30.3197 84.7041 30.1768 84.6416C29.918 84.5283 29.5825 84.157 29.2741 83.8099C29.139 83.6579 29.0093 83.512 28.8926 83.3938C28.8451 83.3457 28.809 83.3319 28.7811 83.3432C28.2586 82.7793 27.7609 82.24 27.2781 81.7048C24.8887 79.0001 22.7598 76.5985 20.9969 71.8181C20.6745 70.9048 20.2874 69.9274 19.9099 68.8686C19.6717 67.9933 19.4681 67.0812 19.3264 66.109C19.0076 63.7636 18.8285 61.5005 18.7235 59.218C18.9526 58.5905 19.1314 57.845 19.2622 56.9691C19.5091 55.3273 19.5149 53.665 19.5871 51.7021C19.6403 50.2968 19.7287 48.7331 19.9938 46.9328C20.0018 46.8758 20.0101 46.8186 20.0186 46.7611C20.5265 43.3892 21.4856 40.1932 22.6469 36.7352C23.256 34.9267 23.9666 33.0295 24.6679 31.2514C25.1959 29.8688 25.7141 28.1808 26.1929 26.8878C26.738 25.3758 27.6076 23.8773 28.4941 22.548C29.7381 20.6686 31.0043 19.1491 31.3145 17.9002C31.4136 17.4993 31.4292 17.0524 31.4543 16.6139C31.4733 16.3001 31.4961 15.9927 31.5535 15.7127C31.9974 15.1751 32.4531 14.655 32.923 14.1505C33.8597 13.4391 35.2073 12.3812 36.3125 11.0712C36.395 10.9727 36.4762 10.8722 36.5558 10.7699C37.1042 10.3275 37.6582 9.90506 38.2012 9.51119C39.3849 8.64853 40.5713 7.86959 41.7865 7.12781C42.1833 6.88624 42.5865 6.64658 42.9916 6.41177C42.9955 6.40959 42.9993 6.40742 43.0032 6.40524C43.82 5.93188 44.6505 5.47407 45.4725 5.04196C45.8277 4.85485 46.1764 4.67527 46.5343 4.49373C47.4359 4.03686 48.3477 3.59672 49.2552 3.17971C49.7369 2.95839 50.2229 2.7402 50.7086 2.52826C51.5026 2.18138 52.3056 1.84493 53.1098 1.52403C54.4021 1.01009 55.7203 0.518896 57.0553 0.0933368C57.2763 0.0232368 57.4926 -0.0073902 57.6788 0.00154221C57.8604 0.0123169 57.9691 0.0708933 58.0005 0.159149C58.0309 0.24798 57.983 0.361208 57.8543 0.485418C57.7215 0.610879 57.5438 0.727891 57.3391 0.823925C56.0975 1.40807 54.8686 2.05657 53.6738 2.72169C52.93 3.136 52.1901 3.56439 51.4609 4.00048C51.0148 4.26759 50.5698 4.53894 50.1297 4.81352C49.3009 5.33053 48.4701 5.8682 47.6555 6.41732C47.3322 6.63516 47.0182 6.85079 46.6991 7.07301C45.9591 7.58908 45.2154 8.12629 44.4909 8.67396C44.4865 8.67725 44.4821 8.68054 44.4778 8.68384C44.1219 8.95296 43.7692 9.22573 43.4243 9.49873C42.359 10.341 41.3354 11.2077 40.3374 12.1314C39.8246 12.6089 39.2993 13.1181 38.8005 13.6343C38.7791 13.6565 38.7578 13.6786 38.7365 13.7007C38.4786 13.9687 38.2331 14.2341 37.9928 14.5028C37.8496 14.6623 37.707 14.8241 37.5665 14.9872C34.312 18.7591 32.1202 23.2119 30.7291 27.9821C30.2487 29.5713 29.9282 31.0934 29.3749 32.9639C28.3789 36.2362 27.517 39.5113 27.0583 42.7092C26.8386 44.2473 26.7171 45.7637 26.7311 47.2355C26.7473 50.6257 26.9654 54.0087 27.374 57.3555C27.6697 59.7609 28.0632 62.1768 28.5787 64.4593C30.365 70.786 36.0307 77.8041 41.3608 83.9082C47.2449 90.6865 52.4481 97.909 56.4445 106.487C60.7748 116.225 63.8582 125.956 66.4326 136.022C67.3117 139.515 68.0793 143.001 68.7774 146.486C69.7318 151.25 70.5714 156.137 71.3041 160.904C71.8339 164.357 72.3095 167.754 72.7522 171.169C72.9399 172.629 73.0994 174.117 73.2113 175.654C73.3307 177.302 73.3993 179.032 73.3567 180.886Z" fill="black"/>
</svg>
