<svg width="59" height="57" viewBox="0 0 59 57" fill="none" xmlns="http://www.w3.org/2000/svg">
<path d="M24.4696 8.41286C25.2514 7.64345 25.953 7.09868 26.5817 6.6503C28.0897 5.43859 30.3856 4.27136 32.2486 3.78169C34.7827 3.09994 37.2511 2.83957 39.5274 2.46657C40.5969 2.28938 41.6608 2.11433 42.4865 1.93166C44.3885 1.53868 46.6137 0.925296 49.5298 0.854291C50.3223 0.918504 51.4438 0.866845 53.4584 1.95863C54.4402 2.50254 55.5586 3.54002 56.1977 4.55737C56.8516 5.56668 57.0845 6.36651 57.1412 6.47867C57.4628 7.42866 57.5142 7.82514 57.5948 8.21032C57.6638 8.5789 57.7048 8.84853 57.7411 9.09599C57.8113 9.58325 57.8552 9.95767 57.8942 10.3116C57.9704 11.0121 58.0195 11.6046 58.056 12.1811C58.0903 12.5943 58.1502 13.5759 58.1232 14.4848C58.084 16.0892 57.906 17.733 57.6206 19.2672C56.9998 23.2748 54.6865 27.0478 53.2879 28.9239C52.2309 30.4964 51.4143 31.3996 50.6264 32.3687C50.3807 32.6655 50.1432 32.9527 49.9141 33.233C48.6547 34.8029 47.1415 36.7672 45.4843 38.5199C43.4868 40.654 41.2687 42.6149 38.8703 44.3037C38.5613 44.5213 38.2493 44.7346 37.9343 44.9434C35.1158 46.7962 32.3131 48.1832 29.4828 49.4587C28.3395 49.9762 26.8207 50.6173 25.7086 50.9717C25.1835 51.156 24.6578 51.3401 24.1301 51.5242C21.9024 52.2943 19.7078 53.0741 17.306 53.762C16.1066 54.0982 14.9042 54.3336 13.7702 54.539C12.8996 54.6978 12.0512 54.8527 11.1997 55.0289C11.1935 55.0319 11.1737 55.0374 11.1674 55.0402C10.5603 55.1448 9.93996 55.2783 9.31992 55.424C8.40903 55.6384 7.49633 55.8813 6.58673 56.1433C6.58478 56.1444 6.5784 56.1468 6.57643 56.1479C6.38619 56.1995 6.19514 56.2488 5.9965 56.2929C5.83096 56.3296 5.64009 56.2906 5.48929 56.1756C5.33862 56.0605 5.23458 55.8869 5.18571 55.6942C5.1364 55.5011 5.15757 55.2977 5.20469 55.1296C5.25189 54.9619 5.32219 54.8419 5.43792 54.7752C5.57517 54.6963 5.72328 54.6067 5.87421 54.5132L5.85032 54.5238C6.68014 53.9997 7.52244 53.4911 8.39002 53.0022C8.96705 52.6779 9.55244 52.3623 10.1724 52.0613L10.1223 52.0788C10.7046 51.7713 11.2946 51.4716 11.8772 51.1807C12.332 51.8888 12.7901 52.3884 13.3632 52.4842C13.6558 52.533 14.0358 52.4653 14.2499 52.2298C14.4419 52.0185 14.5369 51.7262 14.6227 51.4484C14.7124 51.1576 14.7924 50.8824 14.9674 50.728C15.2299 50.4965 15.4103 50.1171 15.5758 49.7042C15.5966 49.6492 15.618 49.5932 15.64 49.5365C15.7065 49.3632 15.7727 49.1863 15.8478 49.0122C16.8055 48.3984 17.7999 47.7232 18.7904 47.0452C19.241 46.9167 19.6527 46.7874 19.9597 46.5942C20.235 46.4209 20.4221 46.1321 20.5887 45.8062C20.7429 45.6995 20.8978 45.5924 21.0525 45.4852C21.5056 45.1718 21.9594 44.858 22.4151 44.5437C23.0137 44.1398 23.4868 43.8112 23.9171 43.4691C24.3932 43.3503 24.9206 43.1835 25.5046 42.9457C25.9019 42.7844 26.3225 42.5917 26.7649 42.3568C27.2363 42.1063 27.7392 41.9219 28.2216 41.7389C28.9335 41.4693 29.5998 41.2035 30.0295 40.7564C30.316 40.4582 30.7275 40.3037 31.1364 40.1438C31.6836 39.9304 32.2301 39.7036 32.4269 39.1421C32.5004 38.932 32.5543 38.7163 32.5968 38.5052C32.6265 38.3614 32.6506 38.22 32.6736 38.0825C32.7639 37.5415 32.8259 37.073 33.0519 36.8397C33.4773 36.4006 33.6803 35.8467 33.8449 35.3613C34.0438 34.7762 34.1894 34.2891 34.6468 34.1595C34.7161 34.1398 34.8006 34.1218 34.8964 34.101C35.3973 33.9954 36.2216 33.7957 36.6433 32.8615C36.7819 32.5531 36.8032 32.1769 36.8102 31.8052C36.8108 31.777 36.8114 31.7488 36.8119 31.7208C36.8219 31.1382 36.8156 30.5814 37.2192 30.2773C37.2796 30.2319 37.4003 30.225 37.5106 30.2184C37.6504 30.2106 37.7737 30.2015 37.732 30.1164C37.6103 29.866 37.5109 29.538 37.4001 29.1813C37.3189 28.9192 37.2311 28.6421 37.1256 28.3694C37.5526 27.5633 37.9916 26.7026 38.5023 25.7574C38.7228 25.3542 38.9411 24.9638 39.1543 24.5859C39.4921 23.9866 39.8191 23.4158 40.1058 22.895C40.5786 22.8501 41.0178 22.787 41.38 22.6857C41.6294 22.6172 41.8366 22.4922 42.0012 22.3756C42.2305 22.1294 42.448 21.8689 42.6724 21.6049C43.0232 21.1917 43.3876 20.7781 43.8436 20.3704C44.696 19.6153 44.8855 18.6593 44.7687 18.0527C44.7454 17.9243 44.7162 17.7955 44.6805 17.6597C44.6683 17.6138 44.6555 17.5667 44.642 17.5183C44.5224 16.8623 44.3829 16.0692 44.1103 14.7496C43.9852 14.1272 43.8629 13.5951 43.7679 12.6612C43.663 11.7549 43.6044 10.9792 43.5445 10.5355C43.5238 10.3794 43.5019 10.2683 43.491 10.2723C43.4919 10.2966 43.445 10.348 43.6372 11.0099C43.6137 10.9528 43.72 11.3557 44.0091 11.898C44.4895 12.9525 46.0103 14.2639 46.9342 14.5906C47.8866 14.9899 48.37 15.01 48.6645 15.0536C48.4425 15.0786 48.173 15.1103 47.8749 15.1536C47.0552 15.2697 46.0057 15.49 45.3789 15.706C45.1567 15.7825 44.9185 15.8739 44.6494 15.9742C44.5559 16.0091 44.4584 16.0451 44.3569 16.082C43.5564 16.3517 42.7905 16.6192 41.8941 16.8773C40.8319 17.1886 40.2489 17.2424 39.5955 17.2214C39.3335 17.2134 39.036 16.9788 38.7163 16.7453C38.2843 16.4259 37.8014 16.1114 37.4264 16.3641C37.4149 16.3728 37.4039 16.3824 37.3932 16.3928C37.3287 16.4557 37.2806 16.5579 37.2393 16.6629C37.1616 16.8568 37.1155 17.0554 36.9721 17.0601C36.9215 17.0621 36.8448 17.0097 36.7674 16.9604C36.6823 16.9062 36.5963 16.8557 36.5511 16.8802C36.3834 16.971 36.2334 17.1142 36.0598 17.2891C36.0389 17.3101 36.0178 17.3314 35.9965 17.353C35.627 17.7053 35.3379 17.97 35.1105 18.0805C34.6625 18.2977 34.3788 18.7073 34.1654 19.0751C34.0012 19.3568 33.8809 19.6115 33.726 19.7561C33.4975 19.9683 33.3764 20.2078 33.3858 20.3918C33.1201 21.0371 32.8606 21.8012 32.5712 22.6722C32.346 23.3425 31.8636 23.7868 31.1763 24.4008C30.7438 24.7846 30.2398 25.2349 29.5552 25.9015C29.1647 26.2794 28.972 26.766 28.7309 27.2472C28.5669 27.5746 28.3799 27.8991 28.105 28.1615C28.0574 28.2103 28.002 28.2517 27.9361 28.2832C27.7108 28.3908 27.4007 28.2757 27.1082 28.1639C26.7815 28.0403 26.4775 27.921 26.3044 28.1372C26.2119 28.2524 26.1658 28.4774 26.0996 28.7498C26.0734 28.8575 26.0436 28.9727 26.0068 29.0915C25.9749 29.0418 25.9437 28.9996 25.9194 28.9681C25.7469 28.7461 25.4225 28.8112 25.0942 28.8718C24.9635 28.896 24.8321 28.92 24.7133 28.9242C24.2789 28.94 23.671 29.2987 23.1677 29.5949C22.9562 29.7205 22.714 29.7523 22.4294 29.7818C22.1762 29.8077 21.8901 29.8321 21.5443 29.9141C21.3466 29.9609 21.1715 29.9415 21.0278 29.9229C20.9237 29.9094 20.8353 29.8965 20.7625 29.9104C20.6994 29.9225 20.6772 30.0153 20.65 30.1201C20.6306 30.1954 20.6084 30.2773 20.5674 30.3389C20.4696 30.4864 20.3035 30.5706 20.1705 30.5704C20.1091 30.5704 20.0558 30.5523 20.0031 30.5339C19.9416 30.5124 19.8807 30.4903 19.8061 30.4955C19.5951 30.51 19.3993 30.5737 19.1996 30.6552C19.1314 30.6955 19.0603 30.7455 18.9892 30.7958C18.7843 30.9401 18.5652 31.0906 18.2783 31.0578C18.1882 31.0474 18.0859 31.0053 17.9878 30.964C17.884 30.921 17.7839 30.8791 17.7038 30.8766C17.3788 30.8664 17.1073 31.1107 16.8502 31.3334C16.6797 31.4815 16.5137 31.6201 16.3489 31.6675C16.0463 31.7541 15.9042 32.0121 15.7976 32.2029C15.7423 32.3017 15.6956 32.3828 15.6422 32.4113C15.5901 32.4099 15.5369 32.4072 15.4846 32.4036C15.4356 32.3905 15.3845 32.377 15.3393 32.3871C15.3359 32.3878 15.3326 32.3892 15.3292 32.39C15.0358 32.3585 14.7413 32.2985 14.4517 32.2343C13.7957 32.0902 13.1583 31.9278 12.468 32.0263C12.3197 32.0475 12.1646 32.1446 12.0057 32.2417C11.8104 32.3606 11.6054 32.4798 11.4008 32.4602C10.9139 32.4137 10.4277 32.209 9.95802 31.9912C9.62183 31.8356 9.29445 31.6737 8.96741 31.5577C8.58741 31.426 8.18939 31.3465 7.72327 31.3687C7.42928 31.382 7.10306 31.4374 6.73649 31.4643C6.53315 31.4796 6.31496 31.4853 6.0866 31.4682C6.17907 31.3635 6.24736 31.2574 6.31061 31.1583C6.44008 30.9533 6.55329 30.7803 6.78029 30.68C7.32274 30.4446 7.83042 29.9972 7.90133 29.5911C7.9215 29.4809 7.96414 29.364 8.00716 29.2462C8.11529 28.9501 8.2211 28.6504 8.00867 28.4339C7.86121 28.2878 7.50435 27.9245 7.0923 27.9846C7.00212 27.9985 6.91237 28.0687 6.80996 28.1448C6.62646 28.2788 6.39671 28.4449 6.01619 28.2605C5.95257 28.229 5.88425 28.1915 5.81426 28.1498C5.53343 27.9857 5.23571 27.7578 5.01901 27.774C4.76798 27.7927 4.63065 27.9645 4.47938 28.1765C4.2795 28.4457 4.06468 28.8045 3.40493 28.7926C3.27434 28.7889 3.13716 28.6797 3.03887 28.5974C2.96931 28.5394 2.91747 28.4953 2.89091 28.5075C2.86068 28.5217 2.82429 28.5853 2.77996 28.6674C2.64319 28.9218 2.41985 29.3742 1.93072 28.92C1.87044 28.8627 1.80556 28.7882 1.74169 28.7005C1.58687 28.4881 1.45729 28.2355 1.35364 28.0111C1.20042 27.6809 1.09984 27.4103 1.005 27.4142C0.969149 27.4158 0.932611 27.422 0.895693 27.4305C0.781524 27.1735 0.679304 26.915 0.588573 26.6567C0.5557 26.2911 0.385115 25.8404 0.229633 25.2502C0.192198 25.1077 0.155918 24.9558 0.123209 24.7966C0.0410085 24.2668 -0.000779629 23.7284 0 23.1917C0.0269413 22.7652 0.10726 22.3127 0.262466 21.8592C0.436433 21.351 0.68952 20.9133 0.975556 20.5381C1.16145 20.4091 1.36102 20.2776 1.56158 20.1441C1.75334 20.0163 1.94643 19.8861 2.13047 19.749C2.12767 19.8216 2.13021 19.8883 2.14453 19.9417C2.24301 20.3079 2.58106 20.5117 2.89028 20.7001C3.09659 20.8242 3.29179 20.9391 3.40349 21.0737C3.41936 21.0927 3.43582 21.1104 3.45276 21.127C3.63602 21.4094 3.91144 21.4301 4.11435 21.4561C4.22904 21.4697 4.3226 21.4823 4.37027 21.5276C4.4085 21.5638 4.41617 21.6319 4.42595 21.7006C4.43442 21.7603 4.44433 21.8229 4.47427 21.8656C4.84739 22.3782 5.12572 22.2359 5.51196 22.1268C5.72665 22.0637 5.98046 22.0046 6.30806 22.0246C6.65401 22.0532 6.74743 22.0895 6.86067 22.2532C7.02962 22.1746 7.20064 22.1109 7.37268 22.0588C7.38972 22.0517 7.40677 22.0445 7.42383 22.0374C7.4244 21.9874 7.32949 21.9268 7.16996 21.8343C6.88484 21.6693 6.84681 21.3435 6.82608 21.0883C6.81625 20.9698 6.8092 20.8667 6.7791 20.7999C6.62088 20.4438 6.25801 20.4058 5.9313 20.389C5.75219 20.3786 5.58598 20.3714 5.47802 20.3025C5.43187 20.2731 5.37569 20.2766 5.31843 20.2804C5.2742 20.2832 5.22906 20.2867 5.18754 20.2745C4.8858 20.1863 4.72275 19.9227 4.58432 19.6609C4.5046 19.5115 4.43174 19.3641 4.33668 19.2605C4.30769 19.2289 4.27672 19.2005 4.24654 19.1733C4.20249 19.1337 4.16082 19.0951 4.13069 19.0478C4.06208 18.94 4.05589 18.7661 4.05778 18.5704C4.0588 18.4698 4.06155 18.364 4.05789 18.2583C4.05313 18.1217 3.96124 18.0269 3.86543 17.9267C3.79792 17.8558 3.72895 17.7815 3.69003 17.6854C3.61912 17.512 3.69324 17.2594 3.77651 17.0225C3.81244 16.9194 3.84938 16.8185 3.87415 16.7286C3.88423 16.692 3.87553 16.6657 3.85274 16.6469C3.99172 16.2402 4.15453 15.8403 4.34705 15.4506C4.39925 15.3453 4.45272 15.2418 4.50942 15.1381C4.39913 14.5652 4.77063 13.413 5.77037 12.5133C5.97781 12.323 6.13875 12.0767 6.27509 11.8047C6.87526 11.1565 7.48421 10.5066 8.099 9.86195C8.16236 9.79451 8.22597 9.72709 8.28989 9.65964C8.63912 9.66238 8.97832 9.6036 9.30554 9.47962C9.92021 9.24717 10.3289 8.8413 10.8366 8.36316C11.2124 8.01043 11.6424 7.61723 12.257 7.246C12.6312 7.02054 13.0125 6.79298 13.4102 6.5583C14.1052 6.14632 14.9004 5.69064 15.7031 5.28975C16.9621 4.65584 18.2665 4.17746 19.1628 3.80694C19.2626 3.76614 19.3643 3.73525 19.4739 3.70932C19.8949 3.61165 20.3678 3.62131 20.8125 3.63318C21.5972 3.65412 22.2941 3.68198 22.4836 3.13425C22.5442 2.9592 22.5616 2.69243 22.5792 2.43309C22.5917 2.24836 22.6052 2.06753 22.6326 1.92559C22.8443 1.87752 23.0559 1.82939 23.2677 1.78223C23.7287 1.90172 24.3893 1.96199 24.7936 1.45017C25.0119 1.40352 25.2299 1.35694 25.4418 1.31369C25.9019 1.21633 26.3529 1.12464 26.8075 1.03283C26.9573 1.00269 27.1046 0.97368 27.2569 0.942846C27.2584 0.942612 27.2598 0.942377 27.2613 0.942143C27.5632 0.882036 27.8687 0.82114 28.1693 0.762872C28.2956 0.738814 28.4281 0.712256 28.554 0.688435C28.7179 0.656241 28.8809 0.624558 29.0406 0.59433C29.2082 0.561511 29.3709 0.530811 29.534 0.500199C29.705 0.468307 29.8783 0.4353 30.0516 0.402965C30.3321 0.350766 30.6175 0.297148 30.8999 0.245656C31.3559 0.162797 31.8153 0.0801557 32.2775 0.00362837C32.3532 -0.00874025 32.4373 0.010692 32.5119 0.0600905C32.5865 0.109623 32.6461 0.184458 32.679 0.272297C32.7118 0.360162 32.7159 0.456044 32.6922 0.542181C32.6685 0.628072 32.6184 0.696751 32.5544 0.736832C32.1635 0.9807 31.7732 1.22962 31.3848 1.47748C31.1445 1.63087 30.9006 1.78671 30.6615 1.93967C30.5133 2.03427 30.3654 2.12826 30.2193 2.22197C30.0807 2.31064 29.9422 2.39934 29.7987 2.48992C29.6615 2.57778 29.5212 2.66683 29.3798 2.75613C29.2725 2.82501 29.1585 2.89663 29.0508 2.96577C28.7932 3.12988 28.5302 3.29577 28.2712 3.46009C28.2696 3.46107 28.2681 3.46206 28.2665 3.46305C28.1369 3.54479 28.0117 3.62486 27.8846 3.70553C27.4952 3.95213 27.1095 4.19711 26.715 4.44546C26.5114 4.57572 26.2989 4.70874 26.0889 4.84157C25.9713 4.91578 25.8551 4.98966 25.7403 5.06275C25.6773 5.10242 25.6139 5.14217 25.5499 5.18229C24.1306 6.08282 22.7165 6.97808 21.3505 7.88491C21.3075 7.91338 21.265 7.94165 21.2231 7.96973C19.8163 8.91024 18.5801 9.82202 17.9132 10.7731C17.8378 10.8721 17.7615 10.9753 17.6828 11.0838C16.9646 12.0778 16.254 13.2996 15.5731 14.5659C15.4799 14.7393 15.3871 14.9141 15.2945 15.0901C14.1325 17.1697 13.5114 18.7736 11.7056 21.4835C11.812 21.6039 11.7474 21.9609 11.6546 23.0767C11.7581 22.9422 11.8373 22.7152 11.8611 22.5012C11.8728 22.2706 11.9161 22.12 11.7016 21.7036C11.6032 21.5156 11.3622 21.214 11.1185 21.0006C10.8744 20.7823 10.6669 20.6536 10.5725 20.5841C10.3776 20.4502 10.5549 20.4655 10.8309 20.4513C12.5749 20.4413 14.5465 20.006 17.0915 19.2684C16.7226 19.2217 17.4305 18.805 18.6376 17.4957C18.6447 17.4883 18.6518 17.481 18.6589 17.4736C18.3618 17.6677 19.074 16.6111 19.6517 15.3812C20.002 14.6814 20.3906 13.894 20.8352 13.0499C21.4932 11.8539 22.2703 10.8148 23.0102 9.961C23.5098 9.38279 24.0041 8.87202 24.4696 8.41286Z" fill="black"/>
</svg>
