<svg width="67" height="62" viewBox="0 0 67 62" fill="none" xmlns="http://www.w3.org/2000/svg">
<path d="M49.8132 0.482519C51.214 0.666303 52.548 1.16462 53.8664 1.76658C54.5316 2.06946 55.1903 2.3971 55.8837 2.74043C56.232 2.91292 56.5875 3.08832 56.9889 3.28222C57.1899 3.37956 57.4004 3.48045 57.6528 3.60115C57.938 3.74158 58.1172 3.80727 58.8574 4.20374C62.1994 6.27125 62.4163 8.31983 62.858 9.3143C63.5619 11.7094 63.6521 12.7737 63.9898 13.8262C64.2679 14.7915 64.6854 15.5671 64.7999 15.3104C65.8913 17.5637 66.6228 19.6464 66.4678 22.8751C66.4625 22.9526 66.4557 23.0468 66.4478 23.1381C66.097 26.0551 65.4378 26.8125 64.97 27.8247C64.474 28.7407 64.0087 29.4422 63.5583 30.0942C62.6676 31.372 61.795 32.4666 61.1513 33.2862C61.1597 33.2094 61.039 33.3694 60.9327 33.5202C60.821 33.6796 60.6975 33.8693 60.5695 34.0721C60.3153 34.4739 60.0456 34.9207 59.7752 35.369C58.6007 37.3188 57.4535 39.2905 55.9508 41.5506C54.7301 43.4182 53.5592 44.5643 52.4113 45.7119C51.7647 46.3449 51.122 46.9413 50.5373 47.4779C49.3363 48.6866 47.7399 49.9988 46.3102 50.8239C45.6174 51.0418 44.4662 52.0898 43.2868 53.1162C42.8693 53.4785 42.43 53.8534 41.9557 54.2264C41.9093 54.2927 41.7194 54.4416 41.6641 54.5006C40.9423 54.7649 39.7618 55.7711 38.7298 56.5418C38.7197 56.5567 38.6793 56.5932 38.6686 56.6077C38.0232 57.0646 37.3858 57.4932 36.7468 57.9197C35.7844 58.5614 34.8242 59.1888 33.8609 59.816C33.142 60.2835 32.4229 60.7494 31.7038 61.2151C31.6035 61.2798 31.4574 61.2895 31.2937 61.239C31.1297 61.1883 30.9623 61.0824 30.824 60.9393C30.6856 60.7961 30.5852 60.6247 30.5405 60.4594C30.496 60.2944 30.5116 60.1495 30.5801 60.0521C31.0776 59.3476 31.5748 58.6433 32.0702 57.9391C32.6201 57.1575 33.1672 56.3763 33.7097 55.5954C34.386 56.0758 34.9665 56.374 35.429 56.3013C35.6638 56.2654 35.9077 56.105 35.9472 55.851C35.983 55.6227 35.9097 55.3519 35.8398 55.0936C35.7654 54.8247 35.6936 54.5703 35.7544 54.3927C35.8067 54.2359 35.8171 54.0388 35.8001 53.8258L35.7418 53.8887C35.7243 53.691 35.6871 53.4789 35.6486 53.2624C35.6209 53.0938 35.59 52.9251 35.5691 52.7559C36.0642 51.96 36.4647 51.2126 37.2461 50.2361C37.4555 50.1003 37.6721 49.9641 37.8677 49.8362L37.5323 50.1517C37.6336 50.0762 37.7206 49.992 37.7825 49.8966C37.8957 49.7222 37.8905 49.4617 37.8508 49.1738C37.9104 49.063 37.9708 48.95 38.0321 48.835C38.4312 48.0919 38.8537 47.2718 39.4373 46.3514C39.9853 45.9751 40.5636 45.5567 41.4026 44.9851C41.5701 44.8902 41.7341 44.7893 41.8938 44.6785C42.176 44.4829 42.4847 44.3541 42.7819 44.2138C43.2189 44.0091 43.6355 43.7727 43.8008 43.3863C43.9049 43.1431 44.1479 42.9938 44.4031 42.8357C44.42 42.824 44.4369 42.8124 44.4539 42.8007C44.8599 42.521 45.2547 42.2621 45.2497 41.7521C45.2462 41.432 45.1943 41.1043 45.1434 40.803C45.0625 40.3235 44.9841 39.9113 45.1174 39.6957C45.3681 39.2904 45.3911 38.8153 45.3955 38.4101C45.4017 37.9212 45.3794 37.537 45.729 37.4477C45.7822 37.4339 45.8486 37.4219 45.9235 37.4089C46.2342 37.3581 46.706 37.2563 46.866 36.948C46.9207 36.8417 46.9626 36.7064 46.9784 36.5504C47.0068 36.2782 46.8937 35.9483 46.7815 35.624C46.6184 35.1509 46.4577 34.6899 46.7529 34.4001C46.7972 34.3565 46.9081 34.3396 47.009 34.3249C47.1374 34.3059 47.2498 34.2886 47.1889 34.2213C47.0105 34.0232 46.8328 33.7602 46.6403 33.4709C46.4983 33.2598 46.3482 33.0347 46.1827 32.8158C46.471 31.8258 46.7676 30.8136 47.0935 29.7694C47.2435 29.2898 47.3989 28.8046 47.5743 28.292C48.0211 28.1973 48.4438 28.071 48.8062 27.893C49.1908 27.6925 49.4346 27.4256 49.9204 26.7745C50.0114 26.6725 50.1068 26.5622 50.2027 26.4553C50.536 26.0811 50.9101 25.6865 51.412 25.3099C52.3416 24.6158 52.7824 23.7048 52.8591 23.0953C52.8759 22.9665 52.888 22.8375 52.8951 22.7057C52.9074 22.4588 52.9147 22.183 52.8862 21.9311C52.8703 21.8099 52.8445 21.6907 52.7828 21.6568C52.7262 21.645 52.6005 21.6227 52.4699 22.271C52.4684 22.2747 52.467 22.2781 52.4657 22.2813C52.3924 22.4052 52.3401 22.2274 52.2835 22.1267C52.2282 22.0087 52.176 21.8777 52.1265 21.7518C52.0275 21.4989 51.9395 21.2606 51.8556 21.0616C51.7699 20.8577 51.6884 20.6903 51.5993 20.5747C51.5791 20.5486 51.5585 20.5215 51.5374 20.4936C51.1402 19.6494 50.8557 18.7929 50.6404 18.0455C50.2552 16.6882 50.0471 15.6526 49.8394 15.1384C49.7671 14.954 49.6835 14.7714 49.5951 14.592C49.4731 14.346 49.3391 14.0954 49.2141 13.9042C49.0967 13.729 48.9499 13.5453 48.9748 13.8451C49.0031 14.034 49.1026 14.4179 49.5125 15.0576C49.9077 15.677 50.7494 16.6278 52.011 17.2572C52.3408 17.4171 52.4108 17.4263 52.4703 17.4395C52.5247 17.4485 52.5356 17.437 52.5364 17.4207C52.5357 17.387 52.4837 17.3287 52.4261 17.2649C52.3122 17.1444 52.2412 16.7968 52.1502 16.435C52.0231 15.9223 51.8493 15.3793 51.3996 15.41C51.2958 15.4175 51.1705 15.4623 51.0448 15.5112C50.8073 15.5993 50.554 15.6976 50.3458 15.579C50.272 15.5374 50.2204 15.4387 50.1716 15.3425C50.1171 15.2365 50.062 15.1326 49.977 15.1084C49.6687 15.0202 49.3475 14.9728 49.0702 14.9346C48.7068 14.884 48.4026 14.845 48.2279 14.736C47.9187 14.542 47.5265 14.5893 47.133 14.6419C46.8305 14.6816 46.5274 14.7248 46.2512 14.6621C45.7736 14.5536 45.1682 14.5307 44.504 14.582C44.0916 14.6192 43.6647 14.692 43.2453 14.7976C42.8467 14.8985 42.5494 14.6779 42.1614 14.4033C41.9201 14.233 41.6458 14.0415 41.3028 13.9032C41.108 13.825 40.9415 13.9957 40.7952 14.1549C40.66 14.3016 40.5415 14.4386 40.4173 14.3649C40.3077 14.2997 40.2309 14.0125 40.1537 13.7401C40.0685 13.4369 39.9824 13.1523 39.8675 13.215C39.8067 13.2484 39.7401 13.3977 39.6665 13.5757C39.6374 13.6461 39.6071 13.7207 39.5756 13.7949C39.5728 13.7362 39.569 13.6838 39.5658 13.6441C39.5436 13.3639 39.4166 13.2256 39.2901 13.0925C39.2396 13.0394 39.1893 12.9872 39.1454 12.9264C38.9838 12.7021 38.7214 12.6967 38.54 12.7388C38.463 12.7563 38.3793 12.6826 38.2791 12.5982C38.1905 12.5233 38.0893 12.4396 37.9749 12.4044C37.9099 12.3844 37.848 12.3153 37.7953 12.2581C37.7573 12.2167 37.7245 12.1815 37.701 12.176C37.6806 12.1713 37.686 12.2531 37.6931 12.3451C37.6981 12.4113 37.7039 12.4829 37.7012 12.5314C37.6946 12.6473 37.6605 12.6913 37.6206 12.6657C37.6022 12.6539 37.5826 12.6269 37.563 12.6001C37.5401 12.5689 37.5171 12.5375 37.496 12.5304C37.3991 12.498 37.3491 12.6106 37.3078 12.7257C37.2608 12.8529 37.2252 12.9823 37.1147 12.9393C37.0798 12.9258 37.0308 12.8826 36.9827 12.8413C36.9324 12.798 36.8826 12.7571 36.8544 12.7531C36.7387 12.7372 36.7484 12.9579 36.7813 13.1508C36.7985 13.2568 36.8207 13.3552 36.8218 13.4078C36.8075 13.4279 36.7921 13.4458 36.7755 13.4612C36.6013 13.6214 36.6216 13.8886 36.6318 14.0889C36.6387 14.1917 36.6442 14.2761 36.6215 14.3158C36.5867 14.3281 36.5508 14.3396 36.5151 14.3501C36.4771 14.3515 36.4397 14.3519 36.4151 14.3727C36.4133 14.3742 36.4118 14.3763 36.41 14.3779C36.208 14.4261 35.999 14.4489 35.7948 14.4683C35.3337 14.5131 34.8874 14.5474 34.5589 14.8418C34.4886 14.9051 34.4527 15.0373 34.4158 15.1718C34.3716 15.3361 34.3244 15.5048 34.213 15.5535C33.9461 15.6703 33.6119 15.66 33.284 15.648C32.7906 15.6302 32.3128 15.6082 32.0904 16.0143C32.0174 16.1481 31.9716 16.3323 31.927 16.517C31.9015 16.6202 31.8762 16.724 31.8459 16.8189C31.7997 16.6944 31.751 16.5802 31.7055 16.4737C31.6118 16.2543 31.5316 16.0665 31.5132 15.8818C31.4705 15.445 31.3733 14.8625 31.17 14.5051C31.1147 14.4081 31.0624 14.2954 31.01 14.1818C30.8786 13.8967 30.7439 13.6059 30.5498 13.5418C30.4193 13.4986 30.0961 13.4107 30.0615 13.6965C30.0541 13.7587 30.0819 13.8607 30.1126 13.9741C30.1684 14.1775 30.2319 14.4198 30.1228 14.5381C30.1043 14.558 30.0839 14.5779 30.0615 14.5981C29.9728 14.6784 29.8761 14.7661 29.9061 14.9368C29.9418 15.133 30.0498 15.3243 30.176 15.5473C30.3402 15.8377 30.5355 16.1826 30.64 16.6632C30.6604 16.7583 30.6349 16.807 30.6145 16.8444C30.6002 16.8707 30.5897 16.8914 30.6006 16.9177C30.6132 16.9478 30.6502 17.0051 30.6971 17.0776C30.863 17.3332 31.1512 17.7808 30.9341 17.913C30.8761 17.9483 30.7926 17.9614 30.72 17.9717C30.6135 17.9867 30.5215 18.001 30.5497 18.0835C30.5603 18.1149 30.5731 18.1482 30.5871 18.1824C30.5091 18.209 30.4283 18.2369 30.3495 18.2637C30.2094 18.2172 30.079 18.2905 29.9131 18.3833C29.8921 18.3951 29.8706 18.407 29.8487 18.4189C29.8233 18.4324 29.797 18.446 29.7697 18.4598C29.5677 18.5325 29.3717 18.5994 29.1781 18.6623C29.0177 18.6862 28.833 18.6893 28.6333 18.6518C28.2285 18.5785 27.8222 18.3405 27.4348 18.1016C27.2699 18.0016 27.1126 17.8992 26.9554 17.8107C26.9907 17.7785 27.0202 17.7452 27.0382 17.7082C27.1619 17.4544 27.0997 17.0742 27.0415 16.7249C27.0031 16.4923 26.9658 16.2734 26.9836 16.115C27.021 15.8225 26.8909 15.5516 26.7972 15.3505C26.7483 15.2463 26.7087 15.1607 26.7044 15.102C26.701 15.0548 26.7245 15.0223 26.7482 14.9888C26.7703 14.959 26.7925 14.9281 26.7974 14.8868C26.8547 14.3862 26.6832 14.1819 26.4429 13.8811C26.311 13.7148 26.1548 13.52 26.0021 13.2308C25.8464 12.9222 25.8153 12.8261 25.874 12.6525C25.72 12.5326 25.5726 12.4093 25.4204 12.2877C25.392 12.3113 25.4072 12.42 25.4376 12.5986C25.4902 12.9182 25.3222 13.11 25.1867 13.2594C25.1232 13.329 25.0709 13.3882 25.0491 13.4485C24.9362 13.7674 25.1231 14.0798 25.288 14.3549C25.3782 14.5064 25.4644 14.6456 25.4866 14.7695C25.4962 14.8224 25.5282 14.8664 25.5607 14.9113C25.5858 14.9459 25.6115 14.9812 25.6274 15.0214C25.7416 15.3143 25.7013 15.5796 25.6575 15.8275C25.6314 15.9699 25.6114 16.1044 25.6185 16.2356C25.6209 16.2755 25.6257 16.3153 25.6306 16.3538C25.6379 16.4101 25.6445 16.4638 25.6416 16.513C25.6338 16.6255 25.5748 16.7212 25.5056 16.8269C25.4704 16.8809 25.4318 16.938 25.4017 16.9995C25.3615 17.0796 25.3811 17.2046 25.4014 17.3354C25.4156 17.4278 25.43 17.5231 25.4235 17.6081C25.4096 17.7627 25.3132 17.8511 25.2167 17.9351C25.1744 17.9718 25.1361 18.0069 25.1061 18.0453C25.0939 18.0609 25.0933 18.0837 25.1014 18.112C24.9519 18.2684 24.8156 18.4217 24.6763 18.5731C23.996 19.3251 23.3919 19.9707 22.2196 20.0057C21.9994 20.0117 21.7838 20.0892 21.5761 20.2004C21.0515 20.2663 20.5281 20.3262 20.0035 20.3817C19.6253 20.4502 19.3169 20.4811 19.0222 20.5036C18.7759 20.2655 18.5046 20.0751 18.2269 19.9327C17.6992 19.6661 17.2444 19.6524 16.7105 19.6219C16.3177 19.5988 15.8865 19.5648 15.3883 19.4017C14.5493 19.1272 13.733 18.8777 12.8202 18.74C11.9176 18.6036 10.8969 18.4723 10.1775 18.4026C9.7856 18.3653 9.38771 18.0904 9.02109 17.8311C8.66698 17.5794 8.34431 17.3426 8.06803 17.3534C7.94494 17.3584 7.83314 17.4132 7.73343 17.5387C7.63131 17.6685 7.52025 17.8993 7.41296 18.1233C7.33648 18.2829 7.26114 18.4386 7.1907 18.5532C7.03303 18.502 6.87362 18.4505 6.71738 18.398C6.45499 18.0851 6.04635 17.7357 5.58303 18.0075C5.4189 17.9498 5.26032 17.8923 5.10243 17.8338C4.76215 17.7101 4.43039 17.5836 4.09498 17.4527C3.98779 17.4099 3.87476 17.3659 3.76551 17.3219C3.76448 17.3214 3.76345 17.3209 3.76242 17.3204C3.54072 17.2315 3.31551 17.1401 3.09856 17.0476C3.00262 17.0076 2.91129 16.968 2.81693 16.9275C2.57911 16.8251 2.33772 16.7192 2.10504 16.6111C1.97884 16.5532 1.85481 16.495 1.72972 16.4349C1.52508 16.3371 1.32258 16.2366 1.11894 16.131C0.786688 15.9584 0.464973 15.7815 0.123382 15.5588C0.0648198 15.5208 0.0264985 15.454 0.00678854 15.3669C-0.0100846 15.2809 0.0052799 15.1876 0.0442028 15.1023C0.0833528 15.017 0.142206 14.9438 0.208259 14.8933C0.276772 14.8441 0.338131 14.8183 0.39638 14.8241C0.740674 14.8545 1.08048 14.8511 1.42491 14.8431C1.63679 14.8373 1.84708 14.8266 2.05883 14.8147C2.18848 14.8072 2.31643 14.7988 2.44667 14.7897C2.68702 14.7718 2.93497 14.7523 3.17859 14.7306C3.27504 14.722 3.36876 14.7126 3.4666 14.7036C3.68895 14.6813 3.91863 14.6589 4.14407 14.6345C4.14542 14.6343 4.14678 14.6342 4.14813 14.6341C4.25837 14.622 4.37183 14.6099 4.47979 14.5969C4.81908 14.5589 5.15377 14.5179 5.49497 14.476C5.67401 14.4527 5.85416 14.4299 6.03877 14.4063C6.1391 14.3929 6.24042 14.3793 6.341 14.3657C6.39642 14.3586 6.4496 14.3514 6.50502 14.3442C7.1136 14.2614 7.72001 14.1735 8.32493 14.0822C8.97566 13.9825 9.62108 13.8753 10.2625 13.7598C11.4892 13.5378 12.7007 13.2848 13.8557 12.9888C15.0065 12.693 16.1605 12.3507 17.0516 11.95C17.2503 11.8578 17.4445 11.7568 17.513 11.68C20.089 10.3774 22.8738 8.97685 24.6525 7.63623C26.729 6.17652 29.0024 4.61016 30.7146 3.22086C34.1899 0.909136 37.4214 0.417229 40.2354 0.124459C41.7627 -0.0124722 43.2498 -0.0235481 44.6457 0.0294757C45.2855 0.0542951 45.9077 0.0928054 46.5142 0.141022C47.2098 0.194209 47.905 0.258668 48.6094 0.336863C49 0.379573 49.4039 0.428583 49.8132 0.482519Z" fill="black"/>
</svg>
