<svg width="125" height="78" viewBox="0 0 125 78" fill="none" xmlns="http://www.w3.org/2000/svg">
<path d="M77.0521 0.0548015C81.7771 0.152229 86.2026 1.91075 90.9535 2.31295C94.0026 2.57365 97.1239 2.50013 100.308 2.57963C103.328 2.66674 106.371 2.86287 109.578 3.78018C112.811 4.87481 116.534 5.56816 120.827 10.0853C122.948 12.3934 124.081 16.0997 124.016 18.6261C124.02 21.2283 123.505 23.1006 123.031 24.7553C122.557 26.3383 122.041 27.7209 121.539 29.0465C119.941 33.2427 118.253 37.3432 116.524 41.4363C114.255 46.8029 111.907 52.137 109.567 57.459C108.641 59.5671 107.709 61.6916 106.801 63.7985C106.153 65.3077 105.519 66.8057 104.907 68.3094C104.26 69.9044 103.636 71.4946 103.086 73.1093C102.673 74.3193 102.321 75.5222 102.047 76.7782C102.008 76.9532 101.899 77.1145 101.739 77.2276C101.579 77.3408 101.381 77.3958 101.182 77.3791C100.984 77.3623 100.798 77.275 100.659 77.1356C100.521 76.9964 100.442 76.8159 100.436 76.6313C100.39 75.2903 100.44 73.91 100.549 72.5658C100.668 71.077 100.843 69.602 101.036 68.145C101.886 68.1195 102.562 67.9799 102.977 67.4839C103.188 67.2317 103.357 66.8291 103.295 66.4782C103.242 66.1561 103.061 65.8968 102.894 65.6318C102.719 65.354 102.55 65.101 102.543 64.8248C102.534 64.346 102.311 63.858 102.086 63.3182C102.002 63.1283 101.918 62.9328 101.842 62.732C101.861 62.6179 101.88 62.5028 101.899 62.3867C102.105 61.1213 102.317 59.8625 102.534 58.6057C102.77 58.1179 102.977 57.6697 103.064 57.2606C103.141 56.8987 103.075 56.5182 102.968 56.1303C103.005 55.9205 103.042 55.7095 103.08 55.4972C103.323 54.1316 103.571 52.7669 103.822 51.4031C104.343 50.4398 104.873 49.4254 105.389 48.0533C105.611 47.4645 105.906 46.902 106.188 46.365C106.606 45.5689 106.998 44.8219 107.098 44.0924C107.165 43.6046 107.425 43.149 107.683 42.695C108.031 42.0861 108.377 41.478 108.257 40.7945C108.181 40.3643 108.055 39.9535 107.937 39.5724C107.752 38.9641 107.587 38.4372 107.688 38.0316C107.877 37.2717 107.825 36.5486 107.779 35.9138C107.724 35.1464 107.675 34.5116 108.065 34.0733C108.124 34.0074 108.199 33.9341 108.283 33.8519C108.724 33.4219 109.432 32.7251 109.535 31.456C109.57 31.0074 109.457 30.5326 109.341 30.08C109.177 29.408 109.012 28.7712 109.329 28.2185C109.377 28.1368 109.494 28.0717 109.601 28.0127C109.736 27.9373 109.854 27.8739 109.791 27.7939C109.605 27.5622 109.421 27.2289 109.219 26.8719C109.07 26.6115 108.913 26.3294 108.74 26.0633C108.782 25.8511 108.823 25.6414 108.863 25.4341C109.125 24.0931 109.369 22.8039 109.509 21.6985C109.582 21.1192 109.626 20.5828 109.624 20.1663C110.015 20.003 110.363 19.8299 110.621 19.6589C110.96 19.4309 111.046 19.147 111.147 19.0125C111.216 18.9017 111.345 18.9207 111.512 18.7514C111.853 18.4125 110.976 17.8351 110.24 17.7673C110.084 17.7453 109.932 17.7319 109.75 17.7144C109.07 17.6585 108.188 17.5856 106.301 17.4072C104.5 17.2425 102.894 17.0367 101.649 16.8887C101.041 16.8185 100.491 16.7595 100.083 16.7443C99.624 16.7285 99.0806 16.7002 98.4892 16.6689C98.2184 16.6559 97.9377 16.6421 97.6522 16.6286C96.2588 16.5602 94.8722 16.5166 94.0838 16.5741C93.8017 16.5944 93.5021 16.625 93.1749 16.6577C92.264 16.7483 91.1885 16.8639 89.7061 16.8634C88.1377 16.8628 87.1961 16.7023 86.194 16.4336C85.7809 16.3242 85.4579 15.9887 85.1074 15.6414C84.6158 15.1491 84.085 14.6347 83.3288 14.7267C83.1536 14.7483 82.9637 14.8101 82.7644 14.8751C82.3984 14.9944 82.001 15.1242 81.6058 15.0312C81.468 14.9988 81.3503 14.9068 81.2346 14.8166C81.1063 14.7173 80.985 14.6205 80.8401 14.6066C80.2998 14.5548 79.7672 14.5441 79.2913 14.5352C78.6748 14.5235 78.1656 14.5151 77.8538 14.4236C77.2975 14.2604 76.6706 14.3443 76.0321 14.4307C75.5499 14.497 75.0643 14.5652 74.596 14.524C73.2521 14.4058 71.4004 14.5415 69.4858 14.8322C68.7622 14.9421 68.1537 14.7223 67.3872 14.4417C66.9085 14.2671 66.3632 14.0682 65.6795 13.9117C65.2913 13.823 64.9553 13.9823 64.6439 14.1295C64.357 14.2652 64.0911 14.3907 63.8262 14.304C63.5924 14.2274 63.4536 13.9322 63.3218 13.6519C63.1751 13.34 63.0367 13.0466 62.7853 13.0935C62.6515 13.1185 62.4848 13.2574 62.2873 13.4225C62.2091 13.4878 62.1256 13.5569 62.0376 13.6252C62.0441 13.5666 62.047 13.5141 62.0485 13.4744C62.059 13.1934 61.8104 13.0363 61.5662 12.8825C61.4687 12.821 61.3716 12.7604 61.2924 12.6923C61.0011 12.4416 60.4343 12.3827 59.9997 12.3789C59.8159 12.3773 59.6524 12.2845 59.4615 12.1763C59.292 12.0802 59.101 11.9717 58.855 11.9043C58.7146 11.8658 58.6087 11.7808 58.5211 11.7098C58.4577 11.6585 58.4038 11.6146 58.3528 11.6019C58.3087 11.5909 58.2701 11.6703 58.2268 11.7596C58.1957 11.824 58.1618 11.8937 58.1216 11.9386C58.0254 12.0459 57.9054 12.0753 57.8231 12.0371C57.7851 12.0195 57.7557 11.9872 57.7264 11.955C57.6924 11.9175 57.6586 11.8798 57.6107 11.8654C57.3909 11.7996 57.173 11.8846 56.9456 11.9729C56.6958 12.0699 56.4353 12.1708 56.1519 12.0806C56.0627 12.0522 55.9686 11.9905 55.8776 11.9307C55.7823 11.868 55.6897 11.8076 55.6099 11.7898C55.2861 11.7176 54.9739 11.9092 54.6871 12.0856C54.4963 12.2029 54.3172 12.3133 54.1514 12.3349C53.8485 12.3744 53.6797 12.6109 53.5553 12.7855C53.4909 12.876 53.4383 12.9503 53.3848 12.9717C53.3366 12.9636 53.2878 12.9541 53.24 12.9441C53.1964 12.9251 53.1513 12.9054 53.1084 12.91C53.1051 12.9104 53.1019 12.9113 53.0987 12.9117C52.8314 12.8455 52.5698 12.755 52.31 12.6649C51.7279 12.4625 51.1482 12.2624 50.5284 12.3494C50.3949 12.3681 50.257 12.4641 50.1167 12.5616C49.9449 12.6811 49.7694 12.8033 49.5944 12.7895C49.1773 12.7567 48.7616 12.5815 48.3465 12.4089C47.7244 12.1494 47.1184 11.8963 46.5518 12.1435C46.3644 12.2251 46.1826 12.3642 45.9951 12.5044C45.8913 12.5825 45.787 12.6613 45.6822 12.7299C45.7072 12.5985 45.7218 12.4749 45.7355 12.3597C45.7636 12.1221 45.7878 11.9188 45.8911 11.7481C46.1364 11.3447 46.4128 10.788 46.3936 10.3766C46.3884 10.265 46.3978 10.141 46.4079 10.0162C46.4332 9.70306 46.4588 9.38324 46.2469 9.23317C46.1022 9.13198 45.7298 8.89878 45.4846 9.1329C45.4312 9.1839 45.397 9.28673 45.3589 9.40098C45.2905 9.60628 45.2091 9.84937 44.9814 9.90104C44.9431 9.90972 44.9014 9.91741 44.8585 9.92447C44.687 9.95261 44.4955 9.98366 44.4203 10.1482C44.3339 10.3378 44.3463 10.5576 44.3608 10.8138C44.3796 11.1475 44.4019 11.5439 44.2144 12.0166C44.1772 12.1101 44.1099 12.1408 44.059 12.1641C44.0231 12.1806 43.9957 12.1938 43.9923 12.2221C43.9886 12.2546 43.9983 12.3226 44.0107 12.4087C44.0546 12.7125 44.1304 13.2432 43.7619 13.2572C43.662 13.2609 43.5499 13.2332 43.447 13.2081C43.2952 13.1711 43.1693 13.1406 43.1504 13.2267C43.1434 13.2594 43.138 13.2948 43.1335 13.3316C43.0125 13.3185 42.8916 13.3054 42.7709 13.2923C42.618 13.1857 42.4002 13.1896 42.1293 13.1951C42.0635 13.1964 41.9942 13.1975 41.9224 13.1974C41.6855 13.1708 41.4491 13.1445 41.2134 13.1176C41.0273 13.0698 40.8295 12.9943 40.6174 12.8767C40.1944 12.641 39.8318 12.2595 39.4788 11.8865C39.33 11.7294 39.1828 11.5734 39.0335 11.4308C39.0932 11.4149 39.1471 11.3957 39.1889 11.3687C39.4751 11.1836 39.5968 10.8103 39.7085 10.4668C39.7829 10.2383 39.8532 10.0228 39.9651 9.88515C40.1701 9.63301 40.1565 9.33284 40.1464 9.11087C40.1412 8.99574 40.1374 8.90143 40.1652 8.84606C40.1876 8.80169 40.2376 8.78167 40.2892 8.76091C40.3343 8.74283 40.3808 8.7239 40.4111 8.6884C40.7789 8.25716 40.6766 8.00018 40.5275 7.62612C40.4454 7.41983 40.3494 7.17777 40.31 6.85125C40.2775 6.50573 40.2929 6.40517 40.4837 6.27184C40.3408 6.09851 40.1981 5.92521 40.0557 5.75192C39.9981 5.76179 39.9525 5.86731 39.8879 6.04288C39.7723 6.35641 39.416 6.46448 39.139 6.54905C39.0107 6.5882 38.8992 6.62247 38.8357 6.66962C38.4986 6.9204 38.588 7.28101 38.6665 7.59831C38.7097 7.77295 38.7496 7.93459 38.7135 8.05752C38.6981 8.1101 38.7175 8.16299 38.737 8.21693C38.7521 8.25862 38.7676 8.30102 38.7674 8.3443C38.7651 8.65863 38.5651 8.88793 38.3778 9.10083C38.269 9.22273 38.1654 9.33971 38.107 9.46395C38.0892 9.50182 38.0749 9.54051 38.0615 9.5781C38.0419 9.63297 38.0228 9.68526 37.9936 9.72982C37.9272 9.83129 37.7934 9.89793 37.6471 9.97058C37.5721 10.0078 37.4938 10.0467 37.4198 10.0928C37.3238 10.1526 37.2873 10.2762 37.2487 10.4054C37.2215 10.4966 37.193 10.5906 37.1426 10.6675C37.0512 10.8066 36.8716 10.8539 36.7055 10.8979C36.6331 10.917 36.5632 10.9361 36.5041 10.9613C36.48 10.9715 36.4682 10.9927 36.4651 11.0219C36.191 11.1151 35.9386 11.2108 35.6772 11.3043C34.3853 11.7734 33.2914 12.1813 31.6534 11.8427C31.3459 11.7787 31.0213 11.7848 30.6755 11.8259C29.5883 11.6841 28.5296 11.5394 27.4452 11.3914C27.2374 11.1049 26.9825 10.8629 26.6822 10.6715C26.1047 10.3119 25.4959 10.2275 24.8052 10.1285C24.3047 10.0555 23.6908 9.97311 23.031 9.76619C22.2608 9.51922 21.383 9.29657 20.541 9.1303C20.1729 9.06235 19.8014 9.00356 19.4248 8.95593C18.1338 8.7919 16.6063 8.66249 15.5704 8.60929C14.9796 8.57987 14.3857 8.31771 13.8242 8.07361C13.0168 7.72998 12.3246 7.42249 11.8744 7.84697C11.7339 7.98267 11.5982 8.21986 11.4675 8.45032C11.3755 8.61446 11.2811 8.77469 11.1853 8.89366C10.9388 8.85265 10.6975 8.81213 10.4619 8.77092C10.0586 8.47772 9.38059 8.15976 8.73524 8.47071C8.48342 8.42744 8.24055 8.3845 8.01003 8.34119C7.46792 8.24971 6.97606 8.15791 6.45743 8.06514C6.29644 8.03461 6.12317 8.00387 5.9492 7.97297C5.94757 7.97262 5.94594 7.97227 5.9443 7.97192C5.6038 7.90986 5.25563 7.84732 4.91988 7.78461C4.78207 7.75794 4.63076 7.73107 4.48314 7.70426C4.12069 7.6364 3.74264 7.56812 3.37932 7.49944C3.17832 7.46281 3.00145 7.42679 2.79408 7.38984C2.48757 7.33031 2.1615 7.27025 1.84199 7.21001C1.33761 7.11288 0.811874 7.01413 0.30785 6.91702C0.229242 6.90105 0.145676 6.85265 0.0899232 6.78004C0.0330528 6.70728 -0.000113677 6.61637 1.8183e-07 6.52258C0.000166884 6.42878 0.0331491 6.33749 0.0921781 6.26533C0.149911 6.19343 0.236374 6.14739 0.315774 6.1333C0.826089 6.04872 1.35392 5.96745 1.86192 5.88635C2.1838 5.83638 2.51057 5.78609 2.81925 5.73673C3.028 5.70655 3.20526 5.67651 3.40759 5.64652C3.77267 5.58994 4.15318 5.53366 4.51776 5.47804C4.66634 5.45611 4.81787 5.43423 4.95662 5.41218C5.29536 5.36069 5.64555 5.30997 5.9891 5.25936C5.99121 5.25906 5.99333 5.25877 5.99544 5.25847C6.16941 5.23364 6.34156 5.20875 6.50256 5.18392C7.02431 5.10876 7.51844 5.03398 8.06363 4.96092C8.32409 4.921 8.6028 4.88233 8.89008 4.84332C9.05378 4.82166 9.20333 4.79967 9.3527 4.77794C9.43453 4.76641 9.51821 4.75502 9.60312 4.74358C11.5567 4.47244 13.5078 4.21281 15.4608 3.96505C17.1719 3.74621 18.8848 3.53634 20.627 3.33525C20.8492 3.30835 21.0737 3.28163 21.3006 3.25509C23.2733 3.02973 25.1919 2.81494 27.1591 2.61236C39.5527 1.32473 52.0152 0.367558 64.5352 0.0795045C66.3195 0.0379887 68.1496 0.0138326 69.947 0.0042882C71.7532 -0.00490189 73.5266 -8.34465e-05 75.3541 0.0257645C75.9085 0.0330067 76.4653 0.0423217 77.0521 0.0548015Z" fill="black"/>
</svg>
