<svg width="56" height="56" viewBox="0 0 56 56" fill="none" xmlns="http://www.w3.org/2000/svg">
<path d="M37.999 16.8073C37.9404 17.2673 37.869 17.605 37.8128 17.7737C37.7914 17.4193 37.622 18.2582 37.4464 18.9148C37.2422 19.4746 37.0198 20.0519 36.8466 20.6236C36.76 20.9085 36.686 21.1927 36.6323 21.4517C36.6053 21.5803 36.5836 21.7027 36.5661 21.7973C36.5572 21.8429 36.5496 21.8836 36.5404 21.8974C36.5289 21.9019 36.5276 21.9274 36.4816 21.7306C36.4589 21.7256 36.4496 21.7418 36.4612 21.7794C36.4957 21.8906 36.6045 22.0538 36.9713 22.6564C37.3484 23.1278 38.3289 24.3057 39.1264 25.2472C38.7725 24.3853 37.4942 23.1191 36.5844 22.7136C35.6794 22.27 35.4516 22.2738 35.7136 22.2602C35.134 22.1162 34.5037 22.1457 34.4657 22.1386C34.3925 22.1331 34.6472 22.0813 34.9522 22.0234C35.0827 21.9999 35.2063 21.9808 35.3286 21.965C35.8892 21.895 36.3796 21.8111 36.6463 21.7802C36.781 21.7652 36.8461 21.7728 36.8769 21.8015C36.9329 21.8115 36.8534 21.9252 37.4161 21.5717C41.8848 19.069 43.3255 20.0688 44.649 19.9705C47.5195 20.107 48.9116 20.9728 50.2624 21.7799C51.4332 22.5767 52.3207 23.1967 53.6647 24.9338C55.3479 27.4317 54.9756 28.1268 55.135 28.8284C55.1788 29.4728 55.1511 29.8906 55.1227 30.2709C55.0594 31.0127 54.9609 31.5586 54.8651 32.086C54.4431 35.5138 52.6682 38.0352 51.6173 39.3388C51.5999 39.3588 51.5838 39.3763 51.5693 39.3909C51.5322 39.3486 51.3503 39.6255 51.2057 39.8332C51.0523 40.0587 50.8907 40.3059 50.7248 40.5594C50.3918 41.0683 50.0447 41.6009 49.6501 42.1762C48.6991 43.749 48.0541 44.0242 47.4934 44.4743C46.9342 44.8672 46.4447 45.1572 45.9664 45.4413C44.748 46.2001 43.4064 46.876 42.3634 47.3425C42.1983 47.4116 42.0278 47.4984 42.0269 47.4411C40.9327 48.1803 39.6972 48.8394 38.7308 49.2971C38.8098 49.1581 38.6535 49.2329 38.5258 49.331C38.3878 49.4348 38.2288 49.5843 38.0642 49.7484C37.7308 50.0802 37.3824 50.4687 36.9418 50.8951C36.9193 50.9127 36.8971 50.9303 36.875 50.9482C36.4945 51.2549 36.1587 51.6106 35.8726 52.0435C35.5972 52.5637 35.2572 52.9613 34.9341 53.3004C34.5744 53.6757 34.2257 53.9858 33.9346 54.3037L33.9741 54.2181C33.8919 54.3257 33.8304 54.4243 33.7772 54.5741C33.7421 54.6716 33.7118 54.7852 33.6836 54.9015C33.6584 55.0045 33.5635 55.1064 33.4132 55.1826C33.2627 55.2588 33.0702 55.3024 32.8712 55.3022C32.672 55.3019 32.479 55.2589 32.3292 55.1802C32.1799 55.1014 32.0868 54.9917 32.0667 54.8696C32.0447 54.7315 32.0239 54.5869 32.0149 54.4108C31.998 54.1552 32.0313 53.8012 32.1041 53.5134C32.1234 53.4786 32.1626 53.3665 32.1867 53.3349C32.3939 52.7636 32.6183 52.2938 32.7583 51.8879C32.8833 51.5346 32.9406 51.2364 32.9194 51.0295C33.0218 50.4462 33.1962 49.8529 33.4359 49.2858C34.1698 49.5329 34.7662 49.6843 35.2017 49.6011C35.2352 49.5976 35.2679 49.5917 35.2997 49.5834C35.5121 49.5295 35.7065 49.3432 35.6816 49.1009C35.6597 48.8831 35.5231 48.6437 35.3938 48.4146C35.2586 48.1749 35.1312 47.9454 35.155 47.7583C35.1983 47.4385 35.0605 47.0113 35.0205 46.4667C35.0081 46.2671 35.0099 46.0502 35.0647 45.8028C35.1749 45.6607 35.3068 45.504 35.5028 45.3225C36.0872 44.6636 36.5004 44.1651 36.8988 43.6247C37.1654 43.5097 37.4026 43.3902 37.5372 43.219C37.6046 43.1335 37.6366 43.02 37.6479 42.8883C37.7632 42.681 37.8285 42.5116 37.8806 42.3437C38.0231 42.1934 38.1398 42.0714 38.2484 41.9566C38.9233 41.2461 39.3972 40.7098 39.8707 40.1254C40.2181 40.0142 40.5659 39.8924 40.9251 39.7125C41.1915 39.5678 41.4608 39.405 41.7209 39.2198C42.0013 39.0203 42.3078 38.8935 42.542 38.8123C42.7982 38.736 42.9599 38.658 42.837 38.8956C42.8837 38.8026 42.9173 38.7032 42.9326 38.5983C42.9723 38.3266 43.1948 38.1117 43.419 37.887C43.7197 37.5853 44.0212 37.2712 43.8857 36.7917C43.801 36.4895 43.6722 36.1823 43.5728 35.8626C43.5185 35.6805 43.47 35.4996 43.4709 35.2692C43.4174 34.957 43.3869 34.7293 43.4515 34.578C43.6362 34.147 43.5499 33.7482 43.4544 33.4171C43.3394 33.0195 43.2026 32.7463 43.4962 32.6702C43.5408 32.6584 43.5982 32.647 43.6631 32.6343C44.0013 32.5789 44.5645 32.3981 44.3623 32.0172C44.2891 31.8876 44.0565 31.7654 43.8219 31.6853C43.7766 31.6697 43.7313 31.6554 43.6871 31.6424C43.407 31.3362 43.1799 31.0558 43.3143 30.8101C43.3375 30.7678 43.4322 30.7258 43.5186 30.6885C43.6284 30.6409 43.7239 30.6006 43.6408 30.5773C43.3972 30.5109 43.1264 30.4116 42.8312 30.3724C42.6147 30.3441 42.3845 30.3503 42.1525 30.4377C42.1427 30.5108 42.1308 30.6411 42.1974 30.9925C42.2977 31.3453 42.3202 31.9403 43.2686 33.2337C43.5633 33.663 43.5885 33.7034 43.6026 33.7808C43.6096 33.843 43.5736 33.8716 43.562 33.916C43.549 33.9706 43.5587 34.05 43.7748 34.17C43.9962 33.8507 44.2075 33.5617 44.468 33.3365C44.5733 33.2453 44.6946 33.1737 44.8491 33.1064C44.6293 32.9635 44.3826 32.8943 44.1762 32.8178C43.966 32.7294 43.7679 32.6704 43.972 32.3814C44.0745 32.2287 44.3305 32.0577 44.6617 31.7668C44.4597 31.8364 43.9601 32.1966 43.5417 32.4876C43.1136 32.7888 42.7232 33.069 42.4182 33.3089C42.2425 33.4479 42.0602 33.588 41.8759 33.7284C41.1654 34.2617 40.2801 34.8784 38.7009 35.5684C38.4601 35.6739 38.2236 35.7693 37.991 35.8564C37.5525 36.0259 37.0686 36.1946 36.3014 36.3368C35.5568 36.4824 34.3867 36.5383 33.4179 36.3904C33.2591 36.3737 33.056 36.3483 32.8103 36.307C31.9689 36.1846 30.44 35.726 29.2882 34.9315C28.3213 34.308 27.3584 33.2795 26.7824 32.3104C26.6143 32.0864 26.441 31.8506 26.2665 31.6115C25.7335 30.8812 25.195 30.1313 24.771 29.6199C24.6208 29.4395 24.4418 29.2246 24.2451 28.9658C24.1716 28.87 24.0984 28.7736 24.0344 28.6968C23.7141 28.3698 23.1019 27.601 22.5165 26.1173C22.3186 25.6055 22.1708 25.0985 22.0686 24.6097C21.9471 23.986 21.9406 23.8147 21.9165 23.5587C21.8985 23.3274 21.8945 23.1376 21.8976 22.9578C21.9042 22.598 21.9414 22.2947 21.9955 21.9882C22.057 21.6439 22.3585 21.343 22.6734 21.0446C23.1209 20.6193 23.5937 20.2072 23.4608 19.6486C23.4299 19.5171 23.3589 19.3758 23.2852 19.2285C23.15 18.9565 23.0065 18.6566 23.0899 18.3621C23.1191 18.2587 23.2085 18.173 23.2966 18.0879C23.3059 18.0789 23.3152 18.07 23.3244 18.061C23.4097 17.9983 23.4867 17.9372 23.4955 17.8616C23.5324 17.5491 23.5249 17.2496 23.5314 16.8545C23.5358 16.4884 23.5716 15.9712 23.6508 15.613C23.6733 15.5187 23.6992 15.4391 23.7297 15.3751C23.9337 14.9459 23.8902 14.5433 23.82 14.2339C23.7668 13.9971 23.6976 13.8195 23.7268 13.7104C23.7933 13.476 23.6475 13.4147 23.5001 13.7141C23.3981 13.6161 23.275 13.5194 23.1419 13.4518C22.9668 13.3653 23.1182 13.2231 23.3118 13.0498C23.4343 12.9459 23.5691 12.8299 23.6941 12.7853C23.7651 12.7597 23.6493 12.8946 23.5767 13.0544C23.508 13.1996 23.4762 13.3642 23.6102 13.384C23.7293 13.4018 23.9719 13.2257 24.1861 13.0441C24.4278 12.8437 24.6312 12.6368 24.6818 12.7364C24.7103 12.79 24.6927 12.9493 24.7024 13.1487C24.706 13.2273 24.714 13.3118 24.7296 13.3977C24.752 13.3433 24.7736 13.2954 24.7904 13.2593C24.8879 13.0526 25.0244 12.9615 25.1567 12.8806C25.1476 12.847 25.1376 12.8141 25.1277 12.7815C25.1067 12.7117 25.0861 12.643 25.0749 12.5694C25.0341 12.2982 24.8173 12.1816 24.6652 12.1471C24.5997 12.1318 24.5701 12.0322 24.536 11.9172C24.5054 11.8151 24.4714 11.7006 24.4162 11.6268C24.3855 11.5849 24.375 11.4993 24.3664 11.428C24.3602 11.3764 24.3544 11.3324 24.3442 11.3192C24.3353 11.3078 24.3121 11.3854 24.2871 11.4731C24.2692 11.5362 24.2505 11.6048 24.2356 11.6491C24.1998 11.7549 24.1781 11.7852 24.1729 11.7486C24.1704 11.7317 24.171 11.7001 24.1716 11.6687C24.1722 11.6321 24.1727 11.5952 24.169 11.5819C24.1517 11.5206 24.1282 11.6115 24.1329 11.7074C24.136 11.8125 24.1787 11.923 24.2427 11.8362C24.2625 11.8089 24.2818 11.7478 24.3004 11.6878C24.3197 11.6251 24.3381 11.5638 24.36 11.544C24.4464 11.4646 24.6165 11.6269 24.8257 11.742C24.8688 11.7663 24.9126 11.7889 24.9556 11.8075C24.9209 11.9061 24.8868 11.9875 24.8365 12.0304C24.7044 12.1438 24.7279 12.399 24.7457 12.5871C24.755 12.6845 24.7637 12.7641 24.7494 12.7961C24.7247 12.8002 24.6979 12.804 24.6726 12.8063C24.645 12.7997 24.6169 12.7927 24.6008 12.8068C24.5996 12.8078 24.5987 12.8094 24.5974 12.8105C24.4529 12.8143 24.3078 12.7925 24.1745 12.7668C23.8802 12.7045 23.6141 12.6493 23.693 12.7239C23.7114 12.7384 23.7845 12.8093 23.8774 12.8659C23.9899 12.9362 24.1353 12.9824 24.2068 12.9039C24.3403 12.7601 24.4466 12.475 24.4496 12.2489C24.3792 12.2928 24.3079 12.3351 24.2367 12.3766C23.7295 12.6746 23.2264 12.932 23.1622 13.4218C23.1409 13.5839 23.1688 13.7748 23.2023 13.9602C23.221 14.0635 23.2416 14.1655 23.2562 14.2587C23.1635 14.1638 23.0732 14.0788 22.9889 13.9995C22.8152 13.8359 22.6663 13.6964 22.5737 13.5372C22.3553 13.1609 22.0396 12.6589 21.7096 12.4133C21.6202 12.3465 21.5273 12.2639 21.434 12.1806C21.2001 11.9712 20.9594 11.7599 20.7584 11.7751C20.6225 11.786 20.3007 11.8206 20.3959 12.0808C20.4165 12.1377 20.4843 12.2181 20.5599 12.3073C20.642 12.4041 20.7333 12.5116 20.7851 12.6104C20.8014 12.6965 20.7895 12.7907 20.7498 12.8696C20.7312 12.9051 20.7117 12.9398 20.6914 12.974C20.6081 13.1136 20.5259 13.2493 20.6007 13.4105C20.6904 13.5926 20.8555 13.7375 21.0505 13.9041C21.3028 14.1225 21.6113 14.3741 21.8296 14.8309C21.8718 14.922 21.8517 14.9875 21.8345 15.0386C21.8227 15.0744 21.8137 15.1024 21.8316 15.1245C21.8523 15.1499 21.9073 15.191 21.9772 15.2427C22.2238 15.4241 22.6566 15.7439 22.4094 16.0118C22.3443 16.082 22.2434 16.1416 22.1571 16.1897C22.0267 16.2637 21.9203 16.3209 21.9652 16.3967C21.9825 16.4253 22.0029 16.4548 22.0246 16.4848C21.9303 16.5545 21.8368 16.6218 21.7416 16.6892C21.5619 16.7066 21.4078 16.8473 21.2071 17.0206C21.1577 17.0632 21.106 17.1068 21.0502 17.1517C20.8496 17.2793 20.6431 17.4053 20.4263 17.5305C20.2395 17.6078 20.021 17.6691 19.7633 17.6988C19.246 17.7583 18.6832 17.646 18.1301 17.5089C17.8961 17.4515 17.6637 17.3892 17.43 17.3352C17.4933 17.2904 17.5467 17.2452 17.5821 17.1991C17.8187 16.8843 17.7532 16.4919 17.6913 16.1359C17.6485 15.8991 17.6028 15.6782 17.6238 15.5072C17.6593 15.1945 17.4887 14.9451 17.3699 14.758C17.3075 14.6612 17.2571 14.5815 17.2479 14.5223C17.2406 14.4749 17.2642 14.437 17.2879 14.3978C17.3085 14.3637 17.3291 14.3283 17.3299 14.2856C17.3352 13.768 17.1175 13.6019 16.8362 13.3401C16.6794 13.1963 16.5003 13.0234 16.3119 12.7563C16.1171 12.4706 16.0763 12.3785 16.0955 12.2069C15.9376 12.1033 15.7844 11.995 15.6382 11.881C15.6182 11.9046 15.6502 12.0083 15.7043 12.1797C15.802 12.4859 15.6726 12.6811 15.5591 12.825C15.5076 12.8918 15.4586 12.9492 15.4405 13.0073C15.3385 13.3159 15.4858 13.6424 15.6518 13.9206C15.7405 14.0741 15.8282 14.2137 15.8422 14.3398C15.8481 14.3937 15.8815 14.4377 15.9161 14.4823C15.9429 14.5167 15.9703 14.5516 15.9854 14.5922C16.0963 14.8862 16.0054 15.1681 15.8726 15.4304C15.7993 15.5803 15.7139 15.7235 15.6756 15.8605C15.6641 15.9023 15.6563 15.9439 15.6489 15.9841C15.638 16.043 15.6271 16.0991 15.5997 16.1506C15.5554 16.2335 15.4605 16.3086 15.3365 16.3802C15.3042 16.4072 15.269 16.4338 15.2322 16.461C15.1682 16.5084 15.1078 16.5563 15.0484 16.6108C14.9761 16.6809 14.9587 16.8074 14.9399 16.9398C14.9272 17.0333 14.9145 17.1295 14.8796 17.211C14.8149 17.3585 14.6648 17.4222 14.5309 17.4782C14.471 17.5028 14.4137 17.5267 14.3665 17.5556C14.3472 17.5674 14.3386 17.5893 14.3381 17.6187C14.1159 17.7291 13.8995 17.8364 13.688 17.9375C12.6074 18.4163 11.615 18.8891 9.70799 18.0465C9.34318 17.8746 8.9041 17.7325 8.38474 17.5341C7.90218 17.2564 7.36791 16.8986 6.81722 16.3758C6.25179 15.7539 5.57002 15.0424 4.93517 13.605C4.93895 13.568 4.94256 13.5307 4.94603 13.493C5.08492 13.1838 5.18707 12.8737 5.25158 12.5657C5.38356 11.947 5.3091 11.4762 5.24906 10.9437C5.20587 10.5524 5.17509 10.1336 5.26547 9.65082C5.35304 9.18624 5.43598 8.74029 5.48738 8.3258C5.50587 7.9343 5.527 7.5694 5.52887 7.27156C5.53708 6.93508 5.5089 6.69177 5.58581 6.75237C5.6544 6.82321 5.9776 7.03503 6.02442 7.00725C6.03254 7.0089 6.0402 7.01026 6.04744 7.01143C6.15602 7.02935 6.25246 6.81025 6.22726 6.59458C6.18907 6.57998 6.15166 6.56514 6.11508 6.55029C5.57686 6.33058 5.10971 6.14102 5.05244 6.61408C5.03513 6.7642 5.06268 7.00802 5.107 7.23961C5.13827 7.40463 5.17755 7.5631 5.20843 7.68074C5.15064 7.66473 5.10237 7.64749 5.04794 7.6353C4.89284 7.46777 4.64399 7.34971 4.53545 7.51556C4.49588 7.57083 4.47178 7.64692 4.4716 7.74631C4.36018 7.79574 4.24771 7.8503 4.13868 7.90427C3.90331 8.02467 3.67427 8.15362 3.46121 8.28495C3.39145 8.32753 3.32322 8.37074 3.25783 8.41308C3.25716 8.41345 3.2565 8.41382 3.25583 8.41419C3.12453 8.49868 3.00366 8.58389 2.91202 8.63749C2.90982 8.63875 2.90763 8.63999 2.90546 8.6412C2.84589 8.70843 2.78547 8.77658 2.72539 8.84336C2.56352 9.0235 2.39897 9.20361 2.23421 9.37772C2.14677 9.46998 2.0584 9.56311 1.96878 9.65577C1.82326 9.80629 1.67513 9.9567 1.52321 10.1063C1.27574 10.3486 1.03039 10.5824 0.729419 10.8322C0.678714 10.8741 0.600349 10.8953 0.51459 10.8842C0.426412 10.8759 0.341553 10.8333 0.272492 10.77C0.203414 10.7064 0.151885 10.6279 0.122409 10.5509C0.0915869 10.4759 0.0854918 10.409 0.104602 10.359C0.218055 10.0572 0.299915 9.74882 0.380256 9.43835C0.429452 9.24608 0.475201 9.05262 0.519585 8.86001C0.54688 8.74136 0.573785 8.62301 0.599281 8.50529C0.647506 8.28347 0.695931 8.05663 0.741305 7.83307C0.757849 7.75079 0.774595 7.66747 0.790111 7.58589C0.791947 7.57882 0.793808 7.57174 0.795693 7.56467C0.866735 7.30078 0.957335 7.05951 1.05443 6.82868C1.05503 6.82729 1.05563 6.8259 1.05623 6.82451C1.10415 6.71117 1.15399 6.60044 1.20498 6.49249C1.3635 6.1602 1.53551 5.84582 1.72936 5.53272C1.82828 5.36974 1.93793 5.20387 2.05344 5.03941C2.09986 4.97318 2.14798 4.90651 2.19625 4.84112C2.21684 4.81437 2.23746 4.78792 2.25812 4.76179C2.30003 4.70951 2.34362 4.65723 2.39066 4.60364C3.22958 3.58639 4.61123 3.08003 5.34271 2.69538C5.97788 2.48293 6.64629 2.43187 7.32129 2.54853C7.4593 2.5727 7.59825 2.60442 7.73824 2.64482C8.33417 2.79989 9.0687 3.21611 9.57016 3.77497C10.0795 4.32998 10.3498 4.88413 10.5435 5.30212C10.9145 6.14652 11.085 6.64049 11.2983 7.02088C11.315 7.05833 11.3318 7.09616 11.3483 7.13336C11.85 8.26213 12.3361 9.24399 12.7871 9.68378C12.8152 9.71017 12.8423 9.73294 12.868 9.75141C12.7174 9.26658 12.7435 9.27154 12.9073 9.27922C12.5655 8.89832 12.4643 8.83281 12.5093 8.7572C12.5524 8.69093 12.7143 8.64914 12.9108 8.59248C13.1086 8.53714 13.3476 8.47227 13.5851 8.39501C13.8094 8.31984 14.1047 8.22238 14.1508 8.14182C13.6919 8.14977 13.5832 8.16413 13.5502 8.10251C13.5235 8.04528 13.5891 7.93582 13.6724 7.79811C13.757 7.66061 13.8659 7.49377 13.963 7.32497C14.0111 7.2411 14.0568 7.15627 14.0869 7.08392C14.1094 7.02141 14.1537 6.92226 14.0336 7.01787C14.5058 6.28156 14.6219 5.97541 14.7586 5.59159C15.8616 3.80778 17.4271 2.79925 18.1551 2.30492C18.9692 1.77055 19.5452 1.42867 20.1129 1.08337C25.3847 -1.0459 27.8584 0.564333 29.7293 0.886305C31.2367 1.40124 32.5317 2.25673 33.4962 3.13416C35.6753 5.16506 36.5729 7.1385 37.2568 8.88867C37.4824 9.49501 37.6683 10.0905 37.8247 10.6984C38.2483 12.4328 38.2508 14.0721 38.1567 15.3077C38.1147 15.8788 38.0524 16.3865 37.999 16.8073Z" fill="black"/>
</svg>
